<svg width="217" height="217" viewBox="0 0 217 217" fill="none" xmlns="http://www.w3.org/2000/svg">
<g filter="url(#filter0_d_0_474)">
<rect x="50.7266" y="46" width="116" height="116" rx="58" fill="white" shape-rendering="crispEdges"/>
<path d="M123.833 121.575L116.295 129.178H143.081V72.1887L86.5854 72.2V95.9458L94.7847 87.6763C94.4551 86.1771 94.8565 84.5421 96.0134 83.3753C97.8093 81.564 100.722 81.564 102.529 83.3866C104.325 85.1979 104.325 88.1353 102.529 89.9489C101.372 91.1157 99.7509 91.5205 98.2644 91.1881L80.256 109.394C78.7695 109.061 77.1485 109.466 75.9916 110.633C74.1957 112.444 74.1957 115.382 75.9916 117.195C77.6238 118.841 80.1843 119.006 81.9802 117.654C82.1663 117.53 82.3412 117.374 82.5071 117.206C83.664 116.04 84.0653 114.405 83.7357 112.905L101.105 95.3873L106.618 89.8268C106.289 88.3275 106.69 86.6926 107.847 85.5258C109.643 83.7145 112.567 83.7032 114.363 85.5145C116.159 87.3258 116.15 90.2745 114.351 92.0858C113.194 93.2526 111.573 93.6574 110.087 93.325L79.9758 123.674C78.4893 123.341 76.8682 123.746 75.7113 124.913C73.9154 126.724 73.9244 129.673 75.7225 131.484C77.5207 133.296 80.4309 133.296 82.2291 131.484C83.386 130.317 83.7873 128.683 83.4577 127.183L106.879 103.688C106.549 102.189 106.95 100.554 108.107 99.3875C109.903 97.5762 112.827 97.5853 114.623 99.3988C116.419 101.21 116.419 104.148 114.623 105.961C113.466 107.128 111.845 107.533 110.358 107.2L109.605 107.96L109.574 107.928L92.2041 125.447C90.7176 125.114 89.0966 125.519 87.9396 126.686C87.6123 127.016 87.35 127.407 87.1415 127.825C87.0383 128.034 86.9464 128.251 86.8634 128.468C86.7738 128.705 86.7043 128.956 86.6639 129.209C86.6235 129.467 86.6213 129.725 86.6235 129.992C86.6258 130.252 86.6415 130.514 86.6818 130.772C86.711 130.957 86.7491 131.143 86.7984 131.324C87.0159 132.047 87.4083 132.712 87.9374 133.248C89.7243 135.05 92.6368 135.071 94.4529 133.259C95.5582 132.145 95.9708 130.605 95.7129 129.178C95.7129 129.094 95.6928 129.033 95.6816 128.958L113.051 111.44L113.02 111.409L120.517 103.847C120.188 102.348 120.589 100.713 121.746 99.5458C123.542 97.7345 126.465 97.7232 128.272 99.5458C130.068 101.357 130.059 104.306 128.261 106.117C127.104 107.284 125.483 107.689 123.997 107.356L105.132 126.643C103.645 126.31 102.033 126.706 100.876 127.871C99.0693 129.693 99.0806 132.64 100.876 134.453C102.672 136.267 105.585 136.265 107.392 134.442C108.549 133.275 108.941 131.652 108.609 130.15C108.609 130.15 109.32 129.173 109.343 129.173L120.351 118.07C120.022 116.571 120.414 114.945 121.569 113.778C123.365 111.967 126.288 111.956 128.084 113.767C129.891 115.59 129.88 118.536 128.084 120.35C126.932 121.512 125.322 121.908 123.833 121.575Z" fill="#4266B6"/>
</g>
<defs>
<filter id="filter0_d_0_474" x="0.846573" y="0.760009" width="215.76" height="215.76" filterUnits="userSpaceOnUse" color-interpolation-filters="sRGB">
<feFlood flood-opacity="0" result="BackgroundImageFix"/>
<feColorMatrix in="SourceAlpha" type="matrix" values="0 0 0 0 0 0 0 0 0 0 0 0 0 0 0 0 0 0 127 0" result="hardAlpha"/>
<feOffset dy="4.64"/>
<feGaussianBlur stdDeviation="24.94"/>
<feComposite in2="hardAlpha" operator="out"/>
<feColorMatrix type="matrix" values="0 0 0 0 0 0 0 0 0 0 0 0 0 0 0 0 0 0 0.12 0"/>
<feBlend mode="normal" in2="BackgroundImageFix" result="effect1_dropShadow_0_474"/>
<feBlend mode="normal" in="SourceGraphic" in2="effect1_dropShadow_0_474" result="shape"/>
</filter>
</defs>
</svg>
