<svg width="308" height="309" viewBox="0 0 308 309" fill="none" xmlns="http://www.w3.org/2000/svg">
<g opacity="0.2">
<mask id="mask0_0_400" style="mask-type:luminance" maskUnits="userSpaceOnUse" x="0" y="0" width="308" height="309">
<path d="M308 0.481812H0V308.786H308V0.481812Z" fill="white"/>
</mask>
<g mask="url(#mask0_0_400)">
<g opacity="0.07">
<path d="M211.824 -0.256676L192.851 18.7349L191.619 17.5016L210.099 -0.996597L209.73 -32.6903L244.472 -67.467L244.595 -80.7857L274.779 -111H310.261V-109.396H275.395L246.197 -80.1691V-66.8504L211.454 -31.9503L211.824 -0.256676Z" fill="#4266B6"/>
<path d="M339.348 -79.5528L307.439 -47.7358H262.718L239.926 -24.9213V17.748L166.375 91.371H132.003L107.609 115.789L106.377 114.555L131.263 89.7678L165.636 89.6445L238.324 17.008V-25.6612L262.102 -49.339L306.823 -49.4623L338.116 -80.786L339.348 -79.5528Z" fill="#4266B6"/>
<path d="M185.822 105.183L135.803 155.129H118.308L82.2105 191.262L80.9785 190.152L117.569 153.525H135.187L184.097 104.443V44.3858L229.927 -1.48982V-43.2959L285.491 -98.7906H304.094L313.211 -108.04L314.443 -106.807L304.71 -97.0641H286.107L231.652 -42.5559V-0.749901L185.822 45.1257V105.183Z" fill="#4266B6"/>
<path d="M360.655 71.024L340.327 91.3721H298.562L271.951 118.01H153.925L132.242 139.714L131.01 138.481L153.186 116.283H271.211L297.823 89.7689L339.587 89.6456L359.546 69.7908L360.655 71.024Z" fill="#4266B6"/>
<path d="M320.381 -19.7425L290.69 9.97803H266.789L201.616 75.3385L199.275 72.9954L265.434 6.77166L289.211 6.64835L317.055 -21.099V-51.4361L343.419 -77.827L345.76 -75.4839L320.381 -50.0796V-19.7425Z" fill="#4266B6"/>
<path d="M290.302 54.1286L243.24 101.237L242.008 100.128L288.7 53.3886V24.0381L339.705 -27.0171V-46.0086L359.417 -65.7401L360.649 -64.5068L341.43 -45.2687V-26.2771L290.425 24.778L290.302 54.1286Z" fill="#4266B6"/>
<path d="M345.518 42.29L324.697 63.1314H235.377L206.549 91.9886V134.905L136.448 205.075V228.999L119.569 245.894L117.105 243.551L133.121 227.642V203.718L203.222 133.548V90.6321L234.022 59.8017H323.219L342.192 40.9335V21.8186L394.059 -30.2231L396.4 -27.88L345.518 23.1752V42.29Z" fill="#4266B6"/>
<path d="M312.968 63.6242L235.845 140.7H165.128L124.226 181.766L121.885 179.3L163.773 137.371H234.49L309.518 62.2676V29.2174L379.989 -41.1992L382.33 -38.8561L312.968 30.574V63.6242Z" fill="#4266B6"/>
<path d="M159.471 233.685L133.476 259.829L132.244 258.596L157.747 233.068V198.168L207.889 148.1L208.998 149.21L159.471 198.908V233.685Z" fill="#4266B6"/>
<path d="M438.146 50.9219L348.579 140.7H297.698L251.991 186.452H216.016L197.906 204.704L196.674 203.471L215.4 184.849H251.251L297.082 138.974H347.84L436.421 50.3053L436.544 18.2417L442.211 12.4456L443.32 13.6788L438.146 18.8583V50.9219Z" fill="#4266B6"/>
<path d="M454.538 97.1669L379.016 172.763H363.37L322.344 213.829H215.283L142.965 286.219V307.8H141.363V285.479L214.544 212.226H321.728L362.754 171.16H378.4L452.936 96.427V84.7115L482.504 55.1143L483.613 56.3475L454.661 85.4514L454.538 97.1669Z" fill="#4266B6"/>
<path d="M269.621 182.875L207.652 244.906L206.543 243.796L268.02 182.135V136.753L349.332 55.3604V3.68863L389.125 -36.0209L390.234 -34.911L350.933 4.42855L351.057 56.1003L269.745 137.493L269.621 182.875Z" fill="#4266B6"/>
<path d="M194.592 15.7751C195.947 17.1316 195.947 19.2281 194.592 20.4613C193.237 21.8178 191.142 21.8178 189.91 20.4613C188.678 19.2281 188.678 17.0083 189.91 15.7751C191.142 14.5419 193.237 14.5419 194.592 15.7751Z" fill="#4266B6"/>
<path d="M109.443 113.075C110.799 114.308 110.799 116.405 109.443 117.761C108.211 118.994 106.117 118.994 104.762 117.761C103.53 116.528 103.53 114.432 104.762 113.075C106.117 111.842 108.211 111.842 109.443 113.075Z" fill="#4266B6"/>
<path d="M134.95 136.877C136.182 138.11 136.182 140.33 134.95 141.563C133.718 142.919 131.5 142.919 130.268 141.563C128.913 140.206 128.913 138.11 130.268 136.877C131.624 135.52 133.718 135.52 134.95 136.877Z" fill="#4266B6"/>
<path d="M135.586 256.499C136.818 257.732 136.818 259.829 135.586 261.185C134.354 262.542 132.137 262.542 130.905 261.185C129.673 259.829 129.673 257.732 130.905 256.499C132.137 255.143 134.231 255.143 135.586 256.499Z" fill="#4266B6"/>
<path d="M210.734 146.373C212.09 147.606 212.09 149.826 210.734 151.059C209.379 152.416 207.285 152.292 206.053 151.059C204.821 149.702 204.698 147.606 206.053 146.373C207.285 145.14 209.502 145.14 210.734 146.373Z" fill="#4266B6"/>
<path d="M199.872 201.127C201.227 202.484 201.227 204.457 199.872 205.814C198.64 207.17 196.545 207.17 195.19 205.814C193.835 204.58 193.835 202.361 195.19 201.127C196.545 199.771 198.64 199.894 199.872 201.127Z" fill="#4266B6"/>
<path d="M218.229 210.871C219.584 212.104 219.584 214.324 218.229 215.557C216.997 216.79 214.903 216.914 213.547 215.557C212.192 214.324 212.192 212.104 213.547 210.871C214.779 209.638 216.874 209.638 218.229 210.871Z" fill="#4266B6"/>
<path d="M299.419 88.5342C300.774 89.8907 300.651 91.9872 299.419 93.2204C298.063 94.4536 296.092 94.4536 294.737 93.2204C293.382 91.8639 293.382 89.7674 294.737 88.5342C295.969 87.3009 298.187 87.3009 299.419 88.5342Z" fill="#4266B6"/>
<path d="M291.168 21.5719C292.523 22.8051 292.523 25.0249 291.168 26.2581C289.813 27.4914 287.718 27.4914 286.487 26.2581C285.255 24.9016 285.255 22.8051 286.487 21.5719C287.718 20.3387 289.813 20.2154 291.168 21.5719Z" fill="#4266B6"/>
<path d="M168.348 88.1641C169.703 89.5206 169.703 91.4938 168.348 92.8503C166.992 94.2068 165.021 94.0835 163.666 92.8503C162.434 91.6171 162.311 89.5206 163.666 88.1641C164.898 86.8076 167.116 86.9309 168.348 88.1641Z" fill="#4266B6"/>
<path d="M244.725 97.7843C245.957 99.1408 246.081 101.237 244.725 102.47C243.37 103.704 241.276 103.704 240.044 102.47C238.689 101.237 238.689 99.0175 240.044 97.7843C241.276 96.4277 243.37 96.5511 244.725 97.7843Z" fill="#4266B6"/>
<path d="M299.928 137.124C301.283 138.357 301.283 140.453 299.928 141.81C298.696 143.043 296.601 143.043 295.246 141.81C294.014 140.577 294.014 138.48 295.246 137.124C296.601 135.767 298.696 135.891 299.928 137.124Z" fill="#4266B6"/>
<path d="M144.184 306.197C145.54 307.554 145.416 309.65 144.184 310.884C142.829 312.24 140.858 312.24 139.503 310.884C138.148 309.65 138.148 307.431 139.503 306.197C140.735 304.964 142.952 304.964 144.184 306.197Z" fill="#4266B6"/>
<path d="M209.631 241.453C210.863 242.687 210.863 244.783 209.631 246.14C208.399 247.496 206.181 247.496 204.949 246.14C203.717 244.906 203.717 242.81 204.949 241.453C206.181 240.22 208.399 240.22 209.631 241.453Z" fill="#4266B6"/>
<path d="M271.215 134.78C272.57 136.137 272.57 138.233 271.215 139.466C269.983 140.7 267.765 140.7 266.533 139.466C265.178 138.11 265.301 136.013 266.533 134.78C267.888 133.547 269.86 133.547 271.215 134.78Z" fill="#4266B6"/>
<path d="M187.321 42.4133C188.676 43.7699 188.676 45.8663 187.321 47.0996C185.965 48.4561 183.871 48.4561 182.639 47.0996C181.407 45.8663 181.407 43.7699 182.639 42.4133C183.871 41.0568 185.965 41.0568 187.321 42.4133Z" fill="#4266B6"/>
<path d="M241.414 15.0356C242.769 16.3921 242.769 18.4886 241.414 19.7218C240.059 21.0783 237.965 21.0783 236.733 19.7218C235.501 18.4886 235.501 16.2688 236.733 15.0356C237.965 13.679 240.182 13.8023 241.414 15.0356Z" fill="#4266B6"/>
<path d="M84.5684 187.81C85.8004 189.043 85.8004 191.263 84.5684 192.496C83.3364 193.853 81.1188 193.729 79.8868 192.496C78.5316 191.14 78.6548 189.043 79.8868 187.81C81.1188 186.577 83.2132 186.453 84.5684 187.81Z" fill="#4266B6"/>
<path d="M126.59 177.08C128.438 178.93 128.438 181.89 126.59 183.74C124.742 185.59 121.785 185.59 119.937 183.74C118.089 181.89 118.089 178.93 119.937 177.08C121.785 175.231 124.742 175.231 126.59 177.08Z" fill="#4266B6"/>
<path d="M204.064 70.6545C205.912 72.5043 205.912 75.464 204.064 77.3138C202.216 79.1637 199.259 79.1637 197.411 77.3138C195.563 75.464 195.563 72.5043 197.411 70.6545C199.259 68.8046 202.216 68.8046 204.064 70.6545Z" fill="#4266B6"/>
<path d="M269.845 5.04582C271.693 6.89564 271.693 9.85536 269.845 11.7052C267.997 13.555 265.041 13.555 263.193 11.7052C261.345 9.85536 261.345 6.89564 263.193 5.04582C265.041 3.19599 267.997 3.19599 269.845 5.04582Z" fill="#4266B6"/>
<path d="M121.535 241.946C123.383 243.796 123.383 246.756 121.535 248.606C119.687 250.456 116.73 250.456 114.882 248.606C113.034 246.756 113.034 243.796 114.882 241.946C116.73 240.097 119.687 240.097 121.535 241.946Z" fill="#4266B6"/>
</g>
<g opacity="0.2">
<path d="M219.821 29.3399L205.776 43.3985L204.914 42.5353L218.589 28.8466L218.22 5.41546L243.968 -20.3588V-30.2245L266.391 -52.5457H292.632V-51.3125H266.884L245.324 -29.7312V-19.8655L219.452 5.90874L219.821 29.3399Z" fill="#4266B6"/>
<path d="M314.079 -29.3611L290.548 -5.80662L257.531 -5.6833L240.652 11.0884V42.6588L186.198 97.1669H160.695L142.708 115.172L141.846 114.309L160.203 95.9337H185.705L239.42 42.1655V10.5952L257.038 -7.03984H290.055L313.217 -30.2243L314.079 -29.3611Z" fill="#4266B6"/>
<path d="M200.61 107.28L163.65 144.276H150.591L123.98 171.037L123.117 170.174L150.098 143.043H163.157L199.378 106.786V62.3907L233.258 28.4773V-2.47647L274.284 -43.5426H288.082L294.858 -50.3253L295.72 -49.462L288.575 -42.3094H274.776L234.49 -1.98318V28.9706L200.61 62.884V107.28Z" fill="#4266B6"/>
<path d="M329.969 81.9973L314.815 97.0425L283.892 97.1658L264.303 116.774H176.954L160.938 132.806L160.076 131.943L176.462 115.541H263.81L283.399 95.9326H314.322L329.106 81.134L329.969 81.9973Z" fill="#4266B6"/>
<path d="M300.16 15.0344L278.108 36.9856H260.49L212.319 85.2044L210.471 83.4779L259.381 34.5192H277.122L297.696 13.9245V-8.52007L317.162 -28.0049L318.887 -26.2784L300.16 -7.53349V15.0344Z" fill="#4266B6"/>
<path d="M277.988 69.5422L243.122 104.442L242.26 103.579L276.756 69.0489V47.3443L314.455 9.6079V-4.45076L328.993 -19.126L329.855 -18.2628L315.687 -3.95748V10.1012L277.988 47.8376V69.5422Z" fill="#4266B6"/>
<path d="M318.757 60.7869L303.357 76.2021H237.321L215.885 97.5368L216.008 129.354L164.017 181.272V198.907L151.574 211.363L149.849 209.636L161.553 197.797V180.162L213.544 128.244L213.421 96.5502L236.213 73.7357H302.248L316.293 59.8004V45.6184L354.608 7.14203L356.333 8.86853L318.757 46.6049V60.7869Z" fill="#4266B6"/>
<path d="M294.605 76.573L237.687 133.671H185.327L155.02 163.885L153.295 162.158L184.218 131.205H236.578L292.141 75.5865V51.1688L344.132 -0.996277L345.98 0.730226L294.605 52.1553V76.573Z" fill="#4266B6"/>
<path d="M181.125 202.484L161.782 221.722L160.92 220.859L179.77 201.867V176.093L216.853 139.097L217.715 139.96L181.002 176.71L181.125 202.484Z" fill="#4266B6"/>
<path d="M387.259 67.1995L320.978 133.547H283.402L249.522 167.46H222.91L209.482 180.902L208.619 180.039L222.418 166.227H249.029L282.786 132.313H320.485L386.027 66.7062V43.0284L390.216 38.8355L391.078 39.6988L387.259 43.5217V67.1995Z" fill="#4266B6"/>
<path d="M399.329 101.359L343.519 157.347H331.939L301.631 187.684H222.414L168.945 241.206V257.114H167.713V240.712L221.798 186.451H301.015L331.446 156.114H343.027L398.097 100.866V92.2332L420.027 70.282L420.889 71.1452L399.329 92.7265V101.359Z" fill="#4266B6"/>
<path d="M262.578 164.746L216.747 210.622L215.885 209.882L261.346 164.253V130.71L321.591 70.5287V32.299L350.912 2.82513L351.775 3.68839L322.699 32.7923L322.823 71.022L262.578 131.203V164.746Z" fill="#4266B6"/>
<path d="M207.003 41.1795C207.989 42.1661 207.989 43.6459 207.003 44.6325C206.018 45.6191 204.416 45.6191 203.554 44.6325C202.568 43.6459 202.568 42.0428 203.554 41.1795C204.539 40.1929 206.018 40.1929 207.003 41.1795Z" fill="#4266B6"/>
<path d="M144.183 113.198C145.169 114.185 145.169 115.665 144.183 116.651C143.197 117.638 141.719 117.638 140.733 116.651C139.748 115.665 139.748 114.185 140.733 113.198C141.719 112.212 143.197 112.212 144.183 113.198Z" fill="#4266B6"/>
<path d="M162.898 130.835C163.883 131.821 163.883 133.301 162.898 134.288C161.912 135.274 160.311 135.274 159.448 134.288C158.463 133.301 158.463 131.821 159.448 130.835C160.434 129.848 162.035 129.848 162.898 130.835Z" fill="#4266B6"/>
<path d="M163.4 219.255C164.385 220.241 164.385 221.844 163.4 222.708C162.414 223.694 160.936 223.694 159.95 222.708C158.965 221.721 158.965 220.118 159.95 219.255C160.936 218.391 162.414 218.268 163.4 219.255Z" fill="#4266B6"/>
<path d="M219.087 137.739C220.073 138.726 220.073 140.206 219.087 141.192C218.102 142.179 216.5 142.179 215.638 141.192C214.652 140.206 214.652 138.726 215.638 137.739C216.623 136.753 218.102 136.753 219.087 137.739Z" fill="#4266B6"/>
<path d="M210.956 178.313C211.942 179.299 211.942 180.779 210.956 181.766C209.971 182.752 208.492 182.752 207.507 181.766C206.521 180.779 206.521 179.299 207.507 178.313C208.492 177.326 209.971 177.326 210.956 178.313Z" fill="#4266B6"/>
<path d="M224.501 185.465C225.487 186.452 225.487 187.932 224.501 188.918C223.516 189.905 222.037 189.905 221.052 188.918C220.066 187.932 220.066 186.452 221.052 185.465C222.037 184.602 223.516 184.602 224.501 185.465Z" fill="#4266B6"/>
<path d="M284.624 94.9474C285.61 95.934 285.61 97.4139 284.624 98.4005C283.639 99.387 282.16 99.387 281.175 98.4005C280.189 97.4139 280.189 95.934 281.175 94.9474C282.16 93.9609 283.762 93.9609 284.624 94.9474Z" fill="#4266B6"/>
<path d="M278.589 45.4951C279.575 46.4817 279.575 48.0848 278.589 49.0714C277.604 50.058 276.125 50.058 275.14 49.0714C274.154 48.0848 274.154 46.4817 275.14 45.6184C276.125 44.6318 277.727 44.6318 278.589 45.6184V45.4951Z" fill="#4266B6"/>
<path d="M187.659 94.8233C188.645 95.8099 188.645 97.2897 187.659 98.2763C186.673 99.2629 185.195 99.2629 184.209 98.2763C183.347 97.2897 183.224 95.8099 184.209 94.8233C185.195 93.8367 186.673 93.8367 187.659 94.8233Z" fill="#4266B6"/>
<path d="M244.204 101.853C245.19 102.84 245.19 104.319 244.204 105.306C243.342 106.169 241.74 106.169 240.755 105.306C239.769 104.319 239.769 102.716 240.755 101.853C241.74 100.866 243.219 100.866 244.204 101.853Z" fill="#4266B6"/>
<path d="M284.997 130.956C285.983 131.943 285.983 133.422 284.997 134.409C284.011 135.396 282.41 135.396 281.547 134.409C280.685 133.422 280.562 131.943 281.547 130.956C282.533 129.969 284.011 129.969 284.997 130.956Z" fill="#4266B6"/>
<path d="M169.806 256.005C170.792 256.992 170.792 258.472 169.806 259.458C168.82 260.445 167.342 260.445 166.356 259.458C165.371 258.472 165.371 256.992 166.356 256.005C167.342 255.018 168.82 255.018 169.806 256.005Z" fill="#4266B6"/>
<path d="M218.222 208.032C219.208 209.018 219.208 210.498 218.222 211.485C217.236 212.472 215.758 212.472 214.772 211.485C213.787 210.498 213.787 209.018 214.772 208.032C215.758 207.045 217.236 207.045 218.222 208.032Z" fill="#4266B6"/>
<path d="M263.8 129.231C264.785 130.217 264.785 131.697 263.8 132.684C262.814 133.67 261.212 133.67 260.35 132.684C259.364 131.697 259.488 130.217 260.35 129.231C261.336 128.244 262.937 128.244 263.8 129.231Z" fill="#4266B6"/>
<path d="M201.704 60.9103C202.69 61.8969 202.69 63.3768 201.704 64.3633C200.719 65.3499 199.24 65.3499 198.255 64.3633C197.269 63.3768 197.269 61.8969 198.255 60.9103C199.24 59.9238 200.842 59.9238 201.704 60.9103Z" fill="#4266B6"/>
<path d="M221.054 3.81232C222.04 4.79889 222.04 6.27875 221.054 7.26532C220.068 8.2519 218.59 8.2519 217.604 7.26532C216.619 6.27875 216.619 4.67557 217.604 3.81232C218.59 2.82574 220.192 2.82574 221.054 3.81232Z" fill="#4266B6"/>
<path d="M241.751 40.6852C242.737 41.6718 242.737 43.1517 241.751 44.1382C240.766 45.1248 239.287 45.1248 238.302 44.1382C237.316 43.1517 237.316 41.6718 238.302 40.6852C239.287 39.6987 240.766 39.6987 241.751 40.6852Z" fill="#4266B6"/>
<path d="M125.697 168.446C126.682 169.433 126.682 171.036 125.697 171.899C124.711 172.886 123.233 172.886 122.247 171.899C121.261 170.913 121.261 169.433 122.247 168.446C123.233 167.46 124.834 167.46 125.697 168.446Z" fill="#4266B6"/>
<path d="M156.733 160.431C158.089 161.787 158.089 164.007 156.733 165.364C155.378 166.72 153.161 166.72 151.805 165.364C150.45 164.007 150.45 161.787 151.805 160.431C153.161 159.074 155.378 159.074 156.733 160.431Z" fill="#4266B6"/>
<path d="M214.145 81.7517C215.501 83.1082 215.501 85.328 214.145 86.6845C212.79 88.0411 210.573 88.0411 209.217 86.6845C207.862 85.328 207.862 83.1082 209.217 81.7517C210.573 80.3951 212.79 80.3951 214.145 81.7517Z" fill="#4266B6"/>
<path d="M262.819 33.2853C264.175 34.6418 264.175 36.8616 262.819 38.2182C261.464 39.5747 259.247 39.5747 257.891 38.2182C256.536 36.8616 256.536 34.6418 257.891 33.2853C259.247 31.9287 261.464 31.9287 262.819 33.2853Z" fill="#4266B6"/>
<path d="M152.929 208.527C154.284 209.883 154.284 212.103 152.929 213.46C151.574 214.816 149.356 214.816 148.001 213.46C146.646 212.103 146.646 209.883 148.001 208.527C149.356 207.17 151.574 207.17 152.929 208.527Z" fill="#4266B6"/>
</g>
<path d="M222.668 39.9454L210.472 52.2776L209.732 51.5377L221.683 39.5755L221.436 19.1041L243.859 -3.46379V-11.973L263.324 -31.5811H286.363V-30.4712H263.817L244.968 -11.603V-2.9705L222.422 19.474L222.668 39.9454Z" fill="#4266B6"/>
<path d="M305.107 -11.2335L284.532 9.36125H255.58L240.92 24.0365V51.6606L193.364 99.1394H171.188L155.419 114.925L154.68 114.185L170.696 98.1528H192.995L239.811 51.1673V23.6666L255.211 8.25136H284.04L304.244 -11.9734L305.107 -11.2335Z" fill="#4266B6"/>
<path d="M205.932 108.142L173.653 140.329H162.319L139.034 163.761L138.295 162.897L161.949 139.22L173.284 139.343L204.823 107.649V68.8029L234.514 39.2057V12.3216L270.242 -23.565H282.316L288.229 -29.6078L288.969 -28.7445L282.809 -22.5785H270.735L235.5 12.6915V39.699L205.932 69.2962V108.142Z" fill="#4266B6"/>
<path d="M318.897 86.0668L305.715 99.1389H278.734L261.486 116.404H185.348L171.304 130.339L170.564 129.599L184.856 115.294H261.116L278.241 98.1523H305.222L318.158 85.2036L318.897 86.0668Z" fill="#4266B6"/>
<path d="M292.777 27.4899L273.681 46.6048H258.281L216.147 88.7808L214.545 87.3009L257.295 44.5083H272.695L290.683 26.5034V7.01854L307.684 -10.1232L309.163 -8.51999L292.777 7.88179V27.4899Z" fill="#4266B6"/>
<path d="M273.435 75.0927L243.005 105.553L242.266 104.813L272.45 74.7227V55.7312L305.344 22.681V10.4721L318.034 -2.22998L318.773 -1.49005L306.453 10.9654V23.1743L273.435 56.1011V75.0927Z" fill="#4266B6"/>
<path d="M309.031 67.4458L295.602 81.0112H237.945L219.341 99.6327V127.257L174.004 172.639V188.054L163.162 198.907L161.561 197.427L171.909 187.191V171.776L217.124 126.394V98.6462L237.082 78.7914H294.74L306.937 66.5826V54.2504L340.447 20.7069L341.925 22.1868L309.031 55.1136V67.4458Z" fill="#4266B6"/>
<path d="M288.095 81.2588L238.322 131.081H192.615L166.127 157.472L164.648 155.992L191.752 128.861H237.336L285.877 80.3955V59.0609L331.338 13.5552L332.816 15.035L287.972 59.9241L288.095 81.2588Z" fill="#4266B6"/>
<path d="M188.93 191.137L172.052 207.909L171.312 207.169L187.821 190.644V168.199L220.223 135.766L220.962 136.505L188.93 168.569V191.137Z" fill="#4266B6"/>
<path d="M368.909 73.1185L311.005 131.08H278.233L248.665 160.554H225.381L213.677 172.269L212.938 171.529L225.011 159.567H248.173L277.741 129.97H310.635L367.8 72.6252V51.9072L371.496 48.2075L372.235 48.9475L368.909 52.4005V73.1185Z" fill="#4266B6"/>
<path d="M379.529 102.962L330.742 151.674H320.639L294.151 178.312H224.913L178.343 224.927V238.863H177.234V224.557L224.543 177.202H293.658L320.27 150.688H330.249L378.42 102.469V94.9463L397.516 75.8315L398.255 76.5714L379.529 95.3163V102.962Z" fill="#4266B6"/>
<path d="M260.137 158.212L220.097 198.291L219.357 197.551L259.028 157.842V128.491L311.511 75.9563V42.5362L337.137 16.8853L337.999 17.6252L312.62 43.0294V76.3263L260.137 128.985V158.212Z" fill="#4266B6"/>
<path d="M211.588 50.3046C212.451 51.1679 212.451 52.5244 211.588 53.3876C210.726 54.2509 209.371 54.2509 208.508 53.3876C207.646 52.5244 207.646 51.1679 208.508 50.3046C209.371 49.4414 210.726 49.4414 211.588 50.3046Z" fill="#4266B6"/>
<path d="M156.655 113.198C157.517 114.062 157.517 115.418 156.655 116.282C155.792 117.145 154.437 117.145 153.575 116.282C152.712 115.418 152.712 114.062 153.575 113.198C154.437 112.335 155.792 112.335 156.655 113.198Z" fill="#4266B6"/>
<path d="M173.039 128.613C173.902 129.477 173.902 130.833 173.039 131.696C172.177 132.56 170.822 132.56 169.959 131.696C169.097 130.833 169.097 129.477 169.959 128.613C170.822 127.75 172.177 127.75 173.039 128.613Z" fill="#4266B6"/>
<path d="M173.526 205.813C174.388 206.677 174.388 207.91 173.526 208.896C172.663 209.76 171.308 209.76 170.446 208.896C169.583 208.033 169.583 206.677 170.446 205.813C171.308 204.95 172.663 204.95 173.526 205.813Z" fill="#4266B6"/>
<path d="M222.063 134.656C222.925 135.52 222.925 136.876 222.063 137.739C221.2 138.603 219.845 138.603 218.983 137.739C218.12 136.876 218.12 135.52 218.983 134.656C219.845 133.793 221.2 133.793 222.063 134.656Z" fill="#4266B6"/>
<path d="M215.055 170.049C215.917 170.913 215.917 172.269 215.055 173.132C214.193 173.996 212.837 173.996 211.975 173.132C211.113 172.269 211.113 170.913 211.975 170.049C212.837 169.186 214.193 169.186 215.055 170.049Z" fill="#4266B6"/>
<path d="M226.875 176.339C227.738 177.202 227.738 178.558 226.875 179.298C226.013 180.162 224.658 180.162 223.795 179.298C222.933 178.435 222.933 177.079 223.795 176.215C224.658 175.352 226.013 175.352 226.875 176.215V176.339Z" fill="#4266B6"/>
<path d="M279.346 97.289C280.208 98.1523 280.208 99.5088 279.346 100.249C278.483 101.112 277.128 101.112 276.389 100.249C275.527 99.3855 275.527 98.029 276.389 97.289C277.251 96.4258 278.607 96.4258 279.469 97.289H279.346Z" fill="#4266B6"/>
<path d="M274.055 54.1271C274.917 54.9903 274.917 56.3468 274.055 57.2101C273.193 58.0733 271.837 58.0733 270.975 57.2101C270.113 56.3468 270.113 54.9903 270.975 54.1271C271.837 53.2638 273.193 53.2638 274.055 54.1271Z" fill="#4266B6"/>
<path d="M194.717 97.1657C195.579 98.029 195.579 99.3855 194.717 100.249C193.854 101.112 192.499 101.112 191.637 100.249C190.774 99.3855 190.774 98.029 191.637 97.289C192.499 96.4258 193.854 96.4258 194.717 97.289V97.1657Z" fill="#4266B6"/>
<path d="M244.002 103.333C244.864 104.196 244.864 105.553 244.002 106.416C243.14 107.279 241.784 107.279 241.045 106.416C240.183 105.553 240.183 104.196 241.045 103.456C241.908 102.593 243.263 102.593 244.125 103.456L244.002 103.333Z" fill="#4266B6"/>
<path d="M279.584 128.737C280.447 129.601 280.447 130.957 279.584 131.82C278.722 132.684 277.367 132.684 276.504 131.82C275.642 130.957 275.642 129.601 276.504 128.861C277.367 127.997 278.722 127.997 279.584 128.861V128.737Z" fill="#4266B6"/>
<path d="M179.076 237.876C179.939 238.74 179.939 240.096 179.076 240.959C178.214 241.823 176.859 241.823 175.996 240.959C175.134 240.096 175.134 238.74 175.996 237.876C176.859 237.013 178.214 237.013 179.076 237.876Z" fill="#4266B6"/>
<path d="M221.328 196.07C222.191 196.933 222.191 198.29 221.328 199.153C220.466 200.016 219.111 199.893 218.248 199.153C217.386 198.29 217.386 196.933 218.248 196.193C219.111 195.33 220.466 195.33 221.328 196.193V196.07Z" fill="#4266B6"/>
<path d="M307.457 8.99201C308.32 9.85526 308.32 11.2118 307.457 11.9517C306.595 12.815 305.24 12.815 304.5 11.9517C303.638 11.0885 303.638 9.73194 304.5 8.86869C305.363 8.00544 306.718 8.00544 307.58 8.86869L307.457 8.99201Z" fill="#4266B6"/>
<path d="M261.112 127.257C261.974 128.12 261.974 129.477 261.112 130.216C260.249 131.08 258.894 131.08 258.032 130.216C257.169 129.477 257.169 127.997 258.032 127.133C258.894 126.27 260.126 126.27 260.988 127.133L261.112 127.257Z" fill="#4266B6"/>
<path d="M206.922 67.5699C207.785 68.4331 207.785 69.7897 206.922 70.6529C206.06 71.5162 204.705 71.5162 203.842 70.6529C202.98 69.7897 202.98 68.4331 203.842 67.5699C204.705 66.7066 206.06 66.7066 206.922 67.5699Z" fill="#4266B6"/>
<path d="M223.781 17.7474C224.644 18.6106 224.644 19.9671 223.781 20.8304C222.919 21.6936 221.564 21.6936 220.701 20.8304C219.839 19.9671 219.839 18.6106 220.701 17.7474C221.564 16.8841 222.919 16.8841 223.781 17.7474Z" fill="#4266B6"/>
<path d="M256.805 7.51273C257.667 8.37599 257.667 9.73252 256.805 10.5958C255.943 11.459 254.587 11.459 253.725 10.5958C252.863 9.73252 252.863 8.37599 253.725 7.51273C254.587 6.64948 255.943 6.64948 256.805 7.51273Z" fill="#4266B6"/>
<path d="M241.914 49.9344C242.777 50.7976 242.777 52.1542 241.914 52.8941C241.052 53.634 239.697 53.7573 238.834 52.8941C237.972 52.0308 237.972 50.6743 238.834 49.9344C239.697 49.0711 241.052 49.0711 241.914 49.9344Z" fill="#4266B6"/>
<path d="M140.508 161.417C141.37 162.281 141.37 163.637 140.508 164.5C139.646 165.364 138.29 165.364 137.428 164.5C136.566 163.637 136.566 162.281 137.428 161.541C138.29 160.677 139.646 160.677 140.508 161.541V161.417Z" fill="#4266B6"/>
<path d="M167.736 154.511C168.968 155.744 168.968 157.594 167.736 158.827C166.627 160.06 164.656 160.06 163.424 158.827C162.192 157.594 162.192 155.744 163.424 154.511C164.656 153.278 166.504 153.278 167.736 154.511Z" fill="#4266B6"/>
<path d="M217.753 85.8214C218.985 87.0547 218.985 88.9045 217.753 90.1377C216.521 91.2476 214.673 91.3709 213.441 90.1377C212.332 89.0278 212.209 87.0547 213.441 85.8214C214.55 84.7115 216.521 84.7115 217.63 85.8214H217.753Z" fill="#4266B6"/>
<path d="M260.267 43.3981C261.499 44.6313 261.499 46.4811 260.267 47.7143C259.035 48.9475 257.187 48.9475 255.955 47.7143C254.723 46.4811 254.723 44.6313 255.955 43.3981C257.187 42.1649 259.035 42.2882 260.267 43.3981Z" fill="#4266B6"/>
<path d="M164.394 196.44C165.626 197.55 165.626 199.523 164.394 200.756C163.162 201.99 161.314 201.99 160.082 200.756C158.973 199.523 158.973 197.673 160.082 196.44C161.314 195.33 163.162 195.33 164.394 196.44Z" fill="#4266B6"/>
<path d="M218.711 22.3106C216.739 20.3375 216.739 17.1311 218.711 15.158C220.682 13.1848 223.885 13.1848 225.856 15.158C227.827 17.1311 227.827 20.3375 225.856 22.3106C223.885 24.2838 220.682 24.2838 218.711 22.3106ZM219.327 21.694C220.928 23.2972 223.639 23.2972 225.24 21.694C226.842 20.0908 226.842 17.3777 225.24 15.7746C223.639 14.1714 220.928 14.1714 219.327 15.7746C217.725 17.3777 217.725 19.9675 219.327 21.694Z" fill="#4266B6"/>
<path d="M206.389 54.9909C204.417 53.0177 204.417 49.8113 206.389 47.8382C208.36 45.8651 211.563 45.8651 213.534 47.8382C215.505 49.8113 215.505 53.0177 213.534 54.9909C211.563 56.964 208.36 56.964 206.389 54.9909ZM207.005 54.3742C208.606 55.9774 211.317 55.9774 212.918 54.3742C214.52 52.7711 214.52 50.058 212.918 48.4548C211.317 46.8516 208.606 46.8516 207.005 48.4548C205.403 50.058 205.403 52.7711 207.005 54.3742Z" fill="#4266B6"/>
<path d="M251.853 12.6915C249.882 10.7183 249.882 7.51197 251.853 5.53882C253.825 3.56567 257.028 3.56567 258.999 5.53882C260.97 7.51197 260.97 10.7183 258.999 12.6915C257.028 14.6646 253.825 14.6646 251.853 12.6915ZM252.469 12.0749C254.071 13.678 256.781 13.678 258.383 12.0749C259.985 10.4717 260.108 7.75861 258.383 6.15543C256.781 4.55225 254.071 4.55225 252.469 6.15543C250.868 7.75861 250.868 10.4717 252.469 12.0749Z" fill="#4266B6"/>
<path d="M151.336 117.885C149.364 115.912 149.364 112.705 151.336 110.732C153.307 108.759 156.51 108.759 158.481 110.732C160.452 112.705 160.452 115.912 158.481 117.885C156.51 119.858 153.307 119.858 151.336 117.885ZM151.952 117.268C153.553 118.871 156.264 118.871 157.865 117.268C159.467 115.665 159.467 112.952 157.865 111.349C156.264 109.745 153.553 109.745 151.952 111.349C150.35 112.952 150.35 115.665 151.952 117.268Z" fill="#4266B6"/>
<path d="M306.803 134.04C304.831 132.067 304.831 128.861 306.803 126.888C308.774 124.914 311.977 124.914 313.948 126.888C315.919 128.861 315.919 132.067 313.948 134.04C311.977 136.013 308.774 136.013 306.803 134.04ZM307.419 133.424C309.02 135.027 311.731 135.027 313.332 133.424C314.934 131.82 314.934 129.107 313.332 127.504C311.731 125.901 309.02 125.901 307.419 127.504C305.817 129.107 305.817 131.82 307.419 133.424Z" fill="#4266B6"/>
<path d="M209.709 175.476C207.738 173.503 207.738 170.297 209.709 168.323C211.68 166.35 214.883 166.35 216.854 168.323C218.826 170.297 218.826 173.503 216.854 175.476C214.883 177.449 211.68 177.449 209.709 175.476ZM210.325 174.859C211.926 176.463 214.514 176.463 216.238 174.859C217.963 173.256 217.84 170.543 216.238 168.94C214.637 167.337 211.926 167.337 210.325 168.94C208.723 170.543 208.723 173.256 210.325 174.859Z" fill="#4266B6"/>
<path d="M173.498 242.81C171.527 240.837 171.527 237.63 173.498 235.657C175.469 233.684 178.672 233.684 180.644 235.657C182.615 237.63 182.615 240.837 180.644 242.81C178.672 244.783 175.469 244.783 173.498 242.81ZM174.114 242.193C175.716 243.796 178.426 243.796 180.028 242.193C181.629 240.59 181.629 237.877 180.028 236.274C178.426 234.671 175.716 234.671 174.114 236.274C172.512 237.877 172.512 240.467 174.114 242.193Z" fill="#4266B6"/>
<path d="M215.865 201.374C213.894 199.401 213.894 196.194 215.865 194.221C217.836 192.248 221.04 192.248 223.011 194.221C224.982 196.194 224.982 199.401 223.011 201.374C221.04 203.347 217.836 203.347 215.865 201.374ZM216.481 200.757C218.083 202.36 220.793 202.36 222.395 200.757C223.996 199.154 223.996 196.441 222.395 194.838C220.793 193.235 218.083 193.235 216.481 194.838C214.88 196.441 214.88 199.154 216.481 200.757Z" fill="#4266B6"/>
<path d="M169.174 210.376C167.449 208.773 167.572 205.936 169.174 204.333C170.898 202.606 173.609 202.606 175.21 204.333C176.935 206.059 176.935 208.773 175.21 210.376C173.486 212.102 170.775 212.102 169.05 210.376H169.174ZM169.666 209.882C171.022 211.239 173.239 211.362 174.718 209.882C176.073 208.526 176.073 206.306 174.718 204.826C173.362 203.346 171.145 203.47 169.666 204.826C168.311 206.183 168.311 208.526 169.666 209.882Z" fill="#4266B6"/>
<path d="M135.682 165.981C134.08 164.255 134.08 161.542 135.682 159.815C137.406 158.089 140.117 158.212 141.718 159.815C143.443 161.542 143.443 164.255 141.718 165.981C139.994 167.584 137.283 167.584 135.558 165.981H135.682ZM136.174 165.488C137.53 166.844 139.87 166.844 141.226 165.488C142.581 164.131 142.581 161.788 141.226 160.432C139.87 159.075 137.53 159.075 136.174 160.432C134.819 161.788 134.819 164.008 136.174 165.488Z" fill="#4266B6"/>
<path d="M168.182 133.177C166.58 131.45 166.58 128.737 168.182 127.011C169.906 125.408 172.617 125.408 174.218 127.011C175.943 128.737 175.943 131.45 174.218 133.177C172.617 134.78 169.783 134.78 168.182 133.177ZM168.674 132.684C170.03 134.04 172.247 134.04 173.726 132.684C175.081 131.327 175.081 128.984 173.726 127.627C172.37 126.271 170.03 126.271 168.674 127.627C167.319 128.984 167.319 131.327 168.674 132.684Z" fill="#4266B6"/>
<path d="M253.818 50.3043C251.107 47.5912 251.107 43.2749 253.818 40.6852C256.405 38.0954 260.717 38.0954 263.427 40.6852C266.015 43.2749 266.015 47.5912 263.427 50.3043C260.84 52.894 256.528 52.894 253.818 50.3043ZM254.68 49.441C256.898 51.6608 260.471 51.6608 262.565 49.441C264.783 47.2212 264.783 43.6449 262.565 41.4251C260.347 39.2053 256.775 39.2053 254.557 41.4251C252.339 43.6449 252.339 47.2212 254.557 49.441H254.68Z" fill="#4266B6"/>
<path d="M211.203 92.974C208.492 90.2609 208.492 85.9447 211.203 83.3549C213.79 80.7652 218.225 80.7652 220.812 83.3549C223.4 85.9447 223.4 90.3842 220.812 92.974C218.225 95.5638 213.913 95.5638 211.203 92.974ZM212.065 92.1108C214.283 94.3305 217.856 94.3305 220.073 92.1108C222.291 89.891 222.291 86.3146 220.073 84.0948C217.856 81.8751 214.283 81.8751 212.065 84.0948C209.848 86.3146 209.848 89.891 212.065 92.1108Z" fill="#4266B6"/>
<path d="M160.546 161.541C157.959 158.952 157.959 154.512 160.546 151.922C163.133 149.209 167.445 149.209 170.155 151.922C172.743 154.512 172.743 158.828 170.155 161.541C167.568 164.131 163.133 164.131 160.546 161.541ZM161.408 160.802C163.626 163.021 167.199 163.021 169.293 160.802C171.511 158.582 171.511 155.005 169.293 152.786C167.075 150.566 163.503 150.566 161.285 152.786C159.067 155.005 159.067 158.582 161.285 160.802H161.408Z" fill="#4266B6"/>
<path d="M157.733 203.47C155.146 200.88 155.146 196.564 157.733 193.851C160.321 191.261 164.756 191.261 167.343 193.851C169.93 196.564 170.053 200.88 167.343 203.47C164.756 206.059 160.444 206.059 157.733 203.47ZM158.596 202.606C160.813 204.826 164.386 204.826 166.604 202.606C168.821 200.387 168.821 196.81 166.604 194.591C164.386 192.371 160.813 192.371 158.596 194.591C156.378 196.81 156.378 200.387 158.596 202.606Z" fill="#4266B6"/>
</g>
</g>
</svg>
