<svg width="215" height="36" viewBox="0 0 215 36" fill="none" xmlns="http://www.w3.org/2000/svg">
<path d="M27.6802 27.4034L23.4618 31.6218H38.4521V0L6.83657 0.00627366V13.1822L11.4251 8.59366C11.2407 7.76177 11.4653 6.8546 12.1127 6.20716C13.1178 5.20212 14.7477 5.20212 15.759 6.21343C16.7703 7.22475 16.764 8.84837 15.759 9.85467C15.1115 10.5021 14.2044 10.7267 13.3725 10.5423L3.29446 20.6441C2.46257 20.4597 1.5554 20.6843 0.907961 21.3317C-0.0970791 22.3367 -0.0970791 23.9666 0.907961 24.9729C1.82141 25.8864 3.25431 25.978 4.25935 25.2276C4.36349 25.1586 4.46136 25.0721 4.55421 24.9792C5.20165 24.3318 5.42625 23.4246 5.24181 22.5927L14.9622 12.8723L18.0476 9.78691C17.8632 8.95502 18.0878 8.04785 18.7352 7.40041C19.7402 6.39537 21.3764 6.3891 22.3814 7.39414C23.3865 8.39918 23.3815 10.0353 22.3752 11.0404C21.7277 11.6878 20.8206 11.9124 19.9887 11.728L3.13762 28.5652C2.30573 28.3808 1.39856 28.6054 0.75112 29.2528C-0.253921 30.2579 -0.248901 31.894 0.757394 32.8991C1.76243 33.9041 3.39233 33.9041 4.39863 32.8991C5.04607 32.2516 5.27067 31.3445 5.08622 30.5126L18.1932 17.4759C18.0087 16.644 18.2333 15.7369 18.8807 15.0894C19.8858 14.0844 21.522 14.0894 22.527 15.0957C23.532 16.1007 23.532 17.7306 22.527 18.7369C21.8796 19.3844 20.9724 19.609 20.1405 19.4245L19.7189 19.8461L19.7013 19.8285L9.98093 29.5489C9.14904 29.3645 8.24187 29.5891 7.59443 30.2365C7.41124 30.4197 7.26443 30.6368 7.14774 30.8689C7.09003 30.9844 7.03858 31.1048 6.99216 31.2253C6.94197 31.357 6.90307 31.4963 6.88049 31.6368C6.8579 31.7774 6.85665 31.9229 6.8579 32.071C6.8579 32.2153 6.86794 32.3608 6.89052 32.5038C6.90684 32.6067 6.92817 32.7096 6.95577 32.81C7.07748 33.2115 7.29706 33.5804 7.59317 33.8778C8.5932 34.8778 10.2231 34.8891 11.2394 33.884C11.858 33.2655 12.0889 32.411 11.9446 31.6193C11.9446 31.5728 11.9333 31.539 11.927 31.4975L21.6474 21.7771L21.6299 21.7596L25.8257 17.5637C25.6412 16.7319 25.8658 15.8247 26.5133 15.1772C27.5183 14.1722 29.1545 14.1659 30.1658 15.1772C31.1708 16.1823 31.1658 17.8185 30.1595 18.8235C29.5121 19.4709 28.6049 19.6955 27.773 19.5111L17.2157 30.2127C16.3838 30.0283 15.4817 30.2478 14.8342 30.894C13.8229 31.9053 13.8292 33.5402 14.8342 34.5465C15.8393 35.5516 17.4692 35.5516 18.4805 34.5403C19.1279 33.8928 19.3475 32.9919 19.1618 32.1588C19.1618 32.1588 19.5596 31.6167 19.5721 31.6167L25.7328 25.456C25.5484 24.6241 25.768 23.722 26.4142 23.0745C27.4192 22.0695 29.0554 22.0632 30.0604 23.0683C31.0717 24.0796 31.0654 25.7145 30.0604 26.7208C29.413 27.3682 28.5121 27.5878 27.6789 27.4021L27.6802 27.4034Z" fill="white"/>
<path d="M54.5128 10.7254C50.8904 9.7982 49.9882 9.34524 49.9882 7.9688V7.90732C49.9882 6.89224 50.9155 6.08294 52.6834 6.08294C54.4513 6.08294 56.2795 6.86087 58.139 8.14948L60.5355 4.67136C58.4075 2.96493 55.8001 2.00757 52.7449 2.00757C48.4625 2.00757 45.4072 4.52205 45.4072 8.33016V8.38788C45.4072 12.5561 48.1325 13.7205 52.3534 14.8021C55.8616 15.6992 56.5781 16.2965 56.5781 17.4659V17.5274C56.5781 18.7545 55.44 19.5061 53.5529 19.5061C51.1564 19.5061 49.1789 18.5173 47.2918 16.9564L44.5665 20.2225C47.081 22.4685 50.2869 23.5764 53.4651 23.5764C57.9884 23.5764 61.1629 21.2414 61.1629 17.0782V17.0167C61.1629 13.3591 58.7663 11.8334 54.5115 10.7254H54.5128Z" fill="white"/>
<path d="M76.7703 2.30591V14.3212C76.7703 17.645 75.0652 19.3502 72.247 19.3502C69.4289 19.3502 67.7237 17.5823 67.7237 14.1669V2.30591H63.1113V14.2899C63.1113 20.4619 66.5543 23.6062 72.1906 23.6062C77.8268 23.6062 81.3878 20.4895 81.3878 14.1405V2.30591H76.7716H76.7703Z" fill="white"/>
<path d="M92.9201 2.30594H84.3516V23.2763H88.9677V16.9851H92.4722C97.1762 16.9851 100.949 14.4706 100.949 9.61601V9.55453C100.949 5.27213 97.924 2.30469 92.9214 2.30469L92.9201 2.30594ZM96.274 9.7051C96.274 11.5031 94.929 12.8833 92.6203 12.8833H88.9665V6.46914H92.5274C94.8361 6.46914 96.2728 7.57707 96.2728 9.64362V9.7051H96.274Z" fill="white"/>
<path d="M102.627 2.30591V6.41139H118.445V2.30591H102.627ZM107.208 19.1745V14.7692H117.095V10.6624H102.627V23.2762H118.595V19.1745H107.208Z" fill="white"/>
<path d="M133.967 15.7893C136.631 14.8005 138.46 12.6725 138.46 9.28724V9.22576C138.46 4.91324 135.493 2.30591 130.552 2.30591H120.963V23.2762H125.579V16.5672H129.201L133.695 23.2762H139.089L133.967 15.7893ZM133.786 9.52438C133.786 11.2923 132.498 12.4918 130.252 12.4918H125.578V6.46911H130.159C132.405 6.46911 133.786 7.48921 133.786 9.46792V9.52564V9.52438Z" fill="white"/>
<path d="M139.387 2.30591V6.56071H145.766V23.2762H150.382V6.56071H156.761V2.30591H139.387Z" fill="white"/>
<path d="M163.145 19.1745V14.7692H173.028V10.6624H158.56V23.2762H174.528V19.1745H163.145ZM174.377 6.41139V2.30591H158.559V6.41139H174.377Z" fill="white"/>
<path d="M192.382 16.9235C190.739 18.4229 189.269 19.3816 186.874 19.3816C183.278 19.3816 180.79 16.3878 180.79 12.7917V12.7302C180.79 9.13793 183.336 6.20185 186.874 6.20185C188.971 6.20185 190.616 7.09899 192.233 8.56702L195.17 5.18175C193.223 3.26452 190.858 1.9458 186.901 1.9458C180.46 1.9458 175.967 6.83047 175.967 12.7917V12.8532C175.967 18.8721 180.553 23.6376 186.72 23.6376C190.765 23.6376 193.165 22.1997 195.32 19.8922L192.382 16.9248V16.9235Z" fill="white"/>
<path d="M210.388 2.30591V10.606H201.876V2.30591H197.263V23.2762H201.876V14.857H210.388V23.2762H215V2.30591H210.388Z" fill="white"/>
<path d="M87.918 26.3103V33.2352H89.4437V26.3103H87.918Z" fill="white"/>
<path d="M94.6399 26.3103V27.7131H96.7454V33.2352H98.2711V27.7131H100.377V26.3103H94.6387H94.6399Z" fill="white"/>
<path d="M117.545 31.1373C117.004 31.6342 116.516 31.9503 115.724 31.9503C114.537 31.9503 113.715 30.9616 113.715 29.7746V29.7521C113.715 28.5651 114.56 27.5939 115.724 27.5939C116.419 27.5939 116.964 27.8925 117.496 28.3769L118.467 27.2602C117.821 26.6265 117.043 26.1924 115.737 26.1924C113.609 26.1924 112.123 27.806 112.123 29.7759V29.7935C112.123 31.781 113.635 33.3544 115.675 33.3544C117.011 33.3544 117.803 32.8801 118.515 32.1185L117.543 31.1385L117.545 31.1373Z" fill="white"/>
<path d="M126.878 26.1912C124.742 26.1912 123.189 27.8047 123.189 29.7747V29.7922C123.189 31.7622 124.724 33.3532 126.861 33.3532C128.998 33.3532 130.55 31.7396 130.55 29.7747V29.7521C130.55 27.7822 129.015 26.1912 126.878 26.1912ZM128.957 29.7922C128.957 30.9792 128.104 31.9504 126.878 31.9504C125.652 31.9504 124.782 30.9617 124.782 29.7747V29.7521C124.782 28.5651 125.635 27.594 126.861 27.594C128.087 27.594 128.957 28.5877 128.957 29.7747V29.7922Z" fill="white"/>
<path d="M140.517 26.3103V30.5751L137.272 26.3103H135.865V33.2352H137.368V28.8348L140.722 33.2352H142.02V26.3103H140.517Z" fill="white"/>
<path d="M150.453 29.0884C149.258 28.7847 148.959 28.6354 148.959 28.1787V28.1611C148.959 27.8223 149.266 27.5538 149.851 27.5538C150.436 27.5538 151.038 27.8135 151.649 28.2402L152.441 27.0921C151.742 26.5249 150.88 26.2087 149.869 26.2087C148.453 26.2087 147.446 27.0394 147.446 28.2966V28.3192C147.446 29.6956 148.347 30.0783 149.741 30.4334C150.898 30.732 151.135 30.9303 151.135 31.3168V31.3343C151.135 31.7383 150.761 31.9893 150.137 31.9893C149.345 31.9893 148.691 31.6643 148.071 31.1449L147.17 32.2264C148 32.9692 149.061 33.3344 150.107 33.3344C151.602 33.3344 152.653 32.5602 152.653 31.185V31.1674C152.653 29.9579 151.861 29.4572 150.455 29.0884H150.453Z" fill="white"/>
<path d="M162.337 26.3106V30.2755C162.337 31.3747 161.774 31.9368 160.846 31.9368C159.919 31.9368 159.352 31.3559 159.352 30.2266V26.3093H157.826V30.2655C157.826 32.3057 158.964 33.3434 160.825 33.3434C162.686 33.3434 163.863 32.3145 163.863 30.2178V26.3093H162.337V26.3106Z" fill="white"/>
<path d="M170.901 31.8499V26.3103H169.375V33.2352H174.351V31.8499H170.9H170.901Z" fill="white"/>
<path d="M177.975 26.3103V27.7131H180.08V33.2352H181.606V27.7131H183.716V26.3103H177.975Z" fill="white"/>
<path d="M188.906 26.3103V33.2352H190.432V26.3103H188.906Z" fill="white"/>
<path d="M200.774 26.3103V30.5751L197.53 26.3103H196.123V33.2352H197.626V28.8348L200.98 33.2352H202.277V26.3103H200.774Z" fill="white"/>
<path d="M211.185 29.2477V30.5664H212.72V31.5551C212.333 31.8324 211.84 31.9679 211.287 31.9679C210.06 31.9679 209.19 31.0407 209.19 29.7747V29.7521C209.19 28.5739 210.07 27.594 211.178 27.594C211.978 27.594 212.453 27.8537 212.99 28.2979L213.948 27.141C213.227 26.5249 212.475 26.1912 211.227 26.1912C209.13 26.1912 207.596 27.8047 207.596 29.7747V29.7922C207.596 31.8412 209.081 33.3532 211.236 33.3532C212.507 33.3532 213.482 32.8613 214.194 32.254V29.2464H211.187L211.185 29.2477Z" fill="white"/>
<path d="M85.5656 29.0872H44.5685V31.7786H85.5656V29.0872Z" fill="white"/>
</svg>
