<svg width="265" height="281" viewBox="0 0 265 281" fill="none" xmlns="http://www.w3.org/2000/svg">
<g opacity="0.07">
<path d="M276.967 114.089L296.089 133.427L297.343 132.184L278.718 113.348L279.258 81.2423L244.243 45.8301L244.188 32.3367L213.767 1.57074L177.822 1.38575L177.813 3.00988L213.134 3.19166L242.562 32.953L242.493 46.4458L277.507 81.9829L276.967 114.089Z" fill="#4266B6"/>
<path d="M148.191 33.0921L180.351 65.4911L225.657 65.7243L248.628 88.9557L248.405 132.183L322.533 207.151L357.355 207.33L381.94 232.194L383.194 230.951L358.112 205.71L323.291 205.406L250.032 131.441L250.254 88.2145L226.289 64.1034L180.984 63.7453L149.446 31.8492L148.191 33.0921Z" fill="#4266B6"/>
<path d="M302.759 221.043L353.171 271.902L370.894 271.993L407.275 308.787L408.529 307.669L371.652 270.373L353.804 270.281L304.51 220.302L304.823 159.46L258.633 112.746L258.851 70.3939L202.852 13.8843L184.005 13.7874L174.818 4.36985L173.563 5.61276L183.372 15.5332L202.218 15.6302L257.1 71.1345L256.882 113.487L303.072 160.201L302.759 221.043Z" fill="#4266B6"/>
<path d="M125.821 185.526L146.308 206.245L188.619 206.463L215.439 233.587L335.006 234.203L356.86 256.304L358.114 255.061L335.764 232.458L216.197 231.842L189.376 204.843L147.066 204.5L126.95 184.282L125.821 185.526Z" fill="#4266B6"/>
<path d="M167.095 93.7823L197.019 124.046L221.232 124.171L286.916 190.725L289.299 188.363L222.622 120.929L198.534 120.68L170.472 92.4254L170.63 61.6919L144.058 34.8188L141.675 37.1803L167.253 63.0488L167.095 93.7823Z" fill="#4266B6"/>
<path d="M197.182 168.775L244.613 216.745L245.867 215.627L198.808 168.034L198.961 138.3L147.556 86.3117L147.655 67.072L127.789 46.98L126.534 48.2229L145.904 67.8126L145.805 87.0523L197.21 139.04L197.182 168.775Z" fill="#4266B6"/>
<path d="M141.305 156.495L162.289 177.717L252.776 178.183L281.831 207.567L281.607 251.044L352.258 322.496L352.133 346.733L369.144 363.937L371.652 361.576L355.51 345.376L355.635 321.139L284.984 249.687L285.208 206.21L254.166 174.817L163.804 174.351L144.681 155.138L144.781 135.773L92.5076 82.7811L90.124 85.1426L141.404 137.13L141.305 156.495Z" fill="#4266B6"/>
<path d="M174.168 178.277L251.897 256.763L323.538 257.131L364.761 298.947L367.145 296.461L324.928 253.765L253.288 253.396L177.67 176.921L177.842 143.439L106.818 71.7349L104.435 74.0964L174.341 144.795L174.168 178.277Z" fill="#4266B6"/>
<path d="M47.422 164.756L137.691 256.174L189.237 256.44L235.303 303.028L271.747 303.216L289.999 321.8L291.254 320.557L272.38 301.595L236.06 301.408L189.87 254.694L138.448 254.429L49.1726 164.14L49.2149 131.657L43.5039 125.756L42.3742 126.999L47.5892 132.274L47.422 164.756Z" fill="#4266B6"/>
<path d="M30.5747 211.52L106.689 288.498L122.54 288.579L163.887 330.396L272.347 330.954L345.233 404.667L345.12 426.53L346.743 426.538L346.859 403.925L273.104 329.334L164.52 328.775L123.172 286.958L107.321 286.877L32.2011 210.779L32.2622 198.91L2.46217 168.772L1.33247 170.016L30.511 199.651L30.5747 211.52Z" fill="#4266B6"/>
<path d="M217.46 299.312L279.916 362.476L281.045 361.357L219.086 298.57L219.323 252.595L137.373 169.715L137.642 117.368L97.5357 76.9325L96.4066 78.0511L136.016 118.11L135.622 170.456L217.572 253.336L217.46 299.312Z" fill="#4266B6"/>
<path d="M187.765 203.583C186.385 204.95 186.499 207.075 187.741 208.331C189.107 209.587 191.104 209.597 192.484 208.355C193.864 206.988 193.875 204.864 192.508 203.608C191.266 202.352 189.02 202.34 187.765 203.583Z" fill="#4266B6"/>
<path d="M196.472 135.79C195.093 137.032 195.081 139.281 196.448 140.537C197.814 141.794 199.936 141.805 201.191 140.562C202.446 139.194 202.457 137.07 201.215 135.814C199.973 134.558 197.852 134.423 196.472 135.79Z" fill="#4266B6"/>
<path d="M243.127 213.239C241.871 214.607 241.736 216.73 243.102 217.987C244.469 219.243 246.59 219.254 247.845 218.011C249.224 216.769 249.236 214.52 247.869 213.264C246.628 211.883 244.506 211.997 243.127 213.239Z" fill="#4266B6"/>
<path d="M186.997 252.805C185.618 254.047 185.607 256.171 186.973 257.552C188.215 258.808 190.336 258.819 191.716 257.576C192.97 256.333 192.981 254.21 191.74 252.829C190.374 251.448 188.252 251.562 186.997 252.805Z" fill="#4266B6"/>
<path d="M216.097 250.58C214.717 251.947 214.706 254.071 216.072 255.328C217.314 256.583 219.561 256.595 220.815 255.352C222.195 253.985 222.081 251.86 220.84 250.605C219.473 249.348 217.476 249.338 216.097 250.58Z" fill="#4266B6"/>
<path d="M246.912 129.426C245.532 130.794 245.521 132.917 246.887 134.174C248.253 135.555 250.375 135.566 251.63 134.198C252.884 132.955 252.896 130.707 251.654 129.451C250.413 128.07 248.166 128.183 246.912 129.426Z" fill="#4266B6"/>
<path d="M218.161 119.158C216.279 121.022 216.264 124.021 218.126 125.904C219.989 127.788 222.984 127.803 224.866 125.939C226.748 124.075 226.763 121.076 224.901 119.193C223.038 117.309 220.043 117.293 218.161 119.158Z" fill="#4266B6"/>
</g>
<g opacity="0.4">
<path d="M268.713 144.03L282.868 158.345L283.746 157.475L269.964 143.537L270.46 119.801L244.509 93.556L244.561 83.5614L221.962 60.8316L195.377 60.6948L195.371 61.9441L221.456 62.0784L243.185 84.0541L243.134 94.0487L269.21 120.295L268.713 144.03Z" fill="#4266B6"/>
<path d="M173.529 84.0712L197.245 108.056L230.693 108.353L247.705 125.432L247.54 157.415L302.422 212.919L328.257 213.052L346.386 231.386L347.264 230.516L328.763 211.805L302.927 211.672L248.791 156.922L248.955 124.939L231.199 106.982L197.75 106.809L174.407 83.2012L173.529 84.0712Z" fill="#4266B6"/>
<path d="M287.768 223.089L325.018 260.761L338.248 260.829L365.068 288.079L365.946 287.209L338.754 259.583L325.524 259.515L289.019 222.596L289.251 177.62L255.105 143.086L255.266 111.728L213.919 69.9118L199.94 69.8398L193.111 62.9332L192.233 63.8032L199.434 71.0866L213.413 71.1585L254.015 112.222L253.854 143.58L288 178.113L287.768 223.089Z" fill="#4266B6"/>
<path d="M156.851 196.802L172.125 212.122L203.451 212.409L223.194 232.375L311.684 232.83L327.825 249.155L328.704 248.285L312.189 231.584L223.699 231.128L203.957 211.162L172.63 211.001L157.73 195.932L156.851 196.802Z" fill="#4266B6"/>
<path d="M187.398 129.12L209.625 151.473L227.473 151.565L276.022 200.665L277.903 198.925L228.609 149.072L210.636 148.979L189.9 128.008L190.017 105.27L170.399 85.4295L168.643 87.1696L187.516 106.257L187.398 129.12Z" fill="#4266B6"/>
<path d="M209.575 184.456L244.714 219.993L245.592 219.123L210.826 183.962L210.939 161.974L172.944 123.548L173.017 109.306L158.366 94.363L157.488 95.233L171.766 109.799L171.693 124.041L209.688 162.467L209.575 184.456Z" fill="#4266B6"/>
<path d="M167.61 174.667L183.131 190.364L250.029 190.708L271.634 212.433L271.344 244.665L323.743 297.533L323.651 315.399L336.192 328.082L337.948 326.342L326.153 314.287L326.245 296.422L273.846 243.554L274.136 211.447L251.165 188.215L184.267 187.871L170.111 173.68L170.185 159.313L131.57 120.134L129.814 121.874L167.684 160.3L167.61 174.667Z" fill="#4266B6"/>
<path d="M192.704 191.491L250.069 249.631L303.113 249.904L333.658 280.671L335.415 278.931L304.249 247.411L251.205 247.138L195.206 190.504L195.333 165.767L142.935 112.65L141.054 114.389L192.832 166.754L192.704 191.491Z" fill="#4266B6"/>
<path d="M98.8876 181.512L165.689 249.072L203.756 249.268L237.902 283.801L264.861 283.94L278.395 297.627L279.273 296.757L265.367 282.693L238.408 282.554L204.387 248.022L166.195 247.825L100.138 181.019L100.262 157.032L96.04 152.762L95.1619 153.632L99.011 157.525L98.8876 181.512Z" fill="#4266B6"/>
<path d="M86.4845 216.054L142.731 273.065L154.464 273.125L185.009 304.017L265.261 304.43L319.15 358.929L319.067 375.046L320.315 375.052L320.4 358.436L265.892 303.184L185.639 302.771L154.969 271.878L143.237 271.818L87.7352 215.561L87.7802 206.816L65.6786 184.463L64.8004 185.333L86.5296 207.309L86.4845 216.054Z" fill="#4266B6"/>
<path d="M224.691 280.984L270.881 327.698L271.758 326.953L225.941 280.491L226.116 246.509L165.398 185.228L165.597 146.498L136.046 116.486L135.168 117.357L164.471 146.992L164.147 185.721L224.865 247.002L224.691 280.984Z" fill="#4266B6"/>
<path d="M202.719 210.157C201.716 211.152 201.708 212.651 202.701 213.655C203.694 214.66 205.192 214.668 206.196 213.673C207.199 212.679 207.207 211.18 206.214 210.175C205.221 209.171 203.598 209.162 202.719 210.157Z" fill="#4266B6"/>
<path d="M209.091 160.09C208.087 161.085 208.079 162.709 209.072 163.713C210.066 164.718 211.563 164.726 212.567 163.731C213.571 162.737 213.579 161.113 212.585 160.233C211.592 159.229 209.969 159.22 209.09 160.215L209.091 160.09Z" fill="#4266B6"/>
<path d="M243.631 217.364C242.628 218.358 242.62 219.858 243.613 220.862C244.482 221.741 246.105 221.75 247.108 220.88C248.112 219.886 248.12 218.262 247.126 217.382C246.133 216.377 244.635 216.37 243.631 217.364Z" fill="#4266B6"/>
<path d="M202.156 246.634C201.152 247.628 201.144 249.127 202.138 250.132C203.131 251.137 204.754 251.145 205.632 250.15C206.511 249.155 206.644 247.657 205.65 246.652C204.657 245.647 203.159 245.64 202.156 246.634Z" fill="#4266B6"/>
<path d="M223.638 244.997C222.635 245.992 222.627 247.491 223.62 248.496C224.614 249.5 226.236 249.508 227.115 248.514C228.119 247.519 228.001 246.019 227.133 245.015C226.14 244.011 224.517 244.002 223.638 244.997Z" fill="#4266B6"/>
<path d="M246.436 155.41C245.432 156.404 245.425 157.903 246.418 158.908C247.411 159.913 248.909 159.92 249.913 158.926C250.916 157.932 250.924 156.433 249.931 155.428C248.937 154.423 247.44 154.416 246.436 155.41Z" fill="#4266B6"/>
<path d="M225.131 147.804C223.751 149.171 223.739 151.42 225.105 152.801C226.471 154.183 228.717 154.194 230.097 152.827C231.477 151.46 231.489 149.211 230.123 147.83C228.757 146.448 226.511 146.437 225.131 147.804Z" fill="#4266B6"/>
</g>
<path d="M265.772 154.759L278.064 167.316L278.816 166.57L266.772 154.39L267.129 133.652L244.531 110.672L244.575 102.052L224.958 82.0862L201.618 81.9661L201.612 83.0905L224.453 83.2081L243.45 102.421L243.405 111.166L266.128 134.022L265.772 154.759Z" fill="#4266B6"/>
<path d="M182.521 102.483L203.257 123.454L232.587 123.605L247.363 138.548L247.219 166.533L295.148 214.88L317.614 214.996L333.507 231.07L334.26 230.324L318.118 213.999L295.528 213.883L248.345 166.039L248.488 138.179L232.968 122.482L203.762 122.332L183.399 101.738L182.521 102.483Z" fill="#4266B6"/>
<path d="M282.37 223.936L314.903 256.712L326.385 256.771L349.852 280.629L350.605 279.759L326.765 255.648L315.282 255.714L283.496 223.442L283.699 184.088L253.774 153.949L253.914 126.714L217.906 90.1721L205.675 90.1091L199.716 83.9566L198.962 84.8273L205.171 91.106L217.402 91.169L252.914 127.084L252.773 154.444L282.573 184.582L282.37 223.936Z" fill="#4266B6"/>
<path d="M168.045 200.982L181.331 214.294L208.664 214.434L226.048 232.015L303.18 232.412L317.336 246.603L318.089 245.857L303.685 231.29L226.428 230.893L209.169 213.438L181.836 213.297L168.798 200.112L168.045 200.982Z" fill="#4266B6"/>
<path d="M194.811 141.776L214.057 161.24L229.658 161.321L272.123 204.267L273.754 202.776L230.668 159.202L215.066 159.121L196.938 140.788L197.04 121.048L179.905 103.594L178.399 105.21L194.913 121.912L194.811 141.776Z" fill="#4266B6"/>
<path d="M214.158 190.101L244.828 221.119L245.58 220.373L215.159 189.732L215.258 170.492L182.106 136.839L182.17 124.47L169.38 111.536L168.628 112.282L181.044 124.964L180.98 137.333L214.257 170.862L214.158 190.101Z" fill="#4266B6"/>
<path d="M178.136 182.17L191.67 195.982L250.081 196.283L268.83 215.245L268.686 243.23L314.379 289.442L314.299 305.058L325.225 316.109L326.856 314.618L316.425 304.195L316.505 288.578L270.937 242.367L271.082 214.257L250.966 194.039L192.555 193.738L180.262 181.306L180.327 168.813L146.553 134.656L145.048 136.148L178.2 169.677L178.136 182.17Z" fill="#4266B6"/>
<path d="M199.275 196.272L249.438 247.004L295.743 247.243L322.439 274.116L323.945 272.625L296.628 244.998L250.448 244.761L201.526 195.409L201.637 173.795L155.82 127.458L154.314 128.95L199.511 174.659L199.275 196.272Z" fill="#4266B6"/>
<path d="M117.447 187.604L175.805 246.624L209.004 246.795L238.805 276.808L262.394 276.93L274.19 288.859L274.943 288.114L262.774 275.932L239.31 275.811L209.509 245.673L176.185 245.502L118.573 187.11L118.681 166.121L114.956 162.354L114.203 163.1L117.555 166.615L117.447 187.604Z" fill="#4266B6"/>
<path d="M106.532 217.782L155.703 267.385L165.937 267.437L192.632 294.561L262.775 294.922L309.71 342.389L309.638 356.507L310.761 356.513L310.836 342.02L263.156 293.799L193.137 293.439L166.317 266.44L156.207 266.388L107.658 217.288L107.697 209.667L88.4514 190.203L87.6987 190.948L106.572 210.036L106.532 217.782Z" fill="#4266B6"/>
<path d="M227.197 274.376L267.551 315.188L268.304 314.442L228.322 274.007L228.475 244.273L175.58 190.778L175.754 156.921L149.928 130.801L149.05 131.546L174.629 157.415L174.455 191.147L227.349 244.767L227.197 274.376Z" fill="#4266B6"/>
<path d="M265.891 250.711C265.013 251.581 265.006 252.955 265.875 253.834C266.744 254.713 268.117 254.72 268.995 253.85C269.873 252.98 269.88 251.606 269.011 250.727C268.142 249.848 266.769 249.841 265.891 250.711Z" fill="#4266B6"/>
<path d="M208.053 212.558C207.175 213.428 207.167 214.802 208.037 215.556C208.906 216.435 210.279 216.442 211.033 215.572C211.911 214.702 211.918 213.327 211.048 212.573C210.179 211.694 208.806 211.687 207.928 212.557L208.053 212.558Z" fill="#4266B6"/>
<path d="M213.639 168.858C212.761 169.728 212.754 171.103 213.623 171.982C214.492 172.861 215.865 172.868 216.743 171.998C217.621 171.128 217.628 169.753 216.759 168.874C215.89 167.995 214.517 167.988 213.639 168.858Z" fill="#4266B6"/>
<path d="M243.829 218.865C242.951 219.735 242.944 221.109 243.813 221.988C244.682 222.867 246.055 222.874 246.808 222.003C247.686 221.133 247.693 219.759 246.824 219.005C245.954 218.126 244.581 218.119 243.703 218.989L243.829 218.865Z" fill="#4266B6"/>
<path d="M207.649 244.415C206.771 245.285 206.764 246.659 207.633 247.538C208.502 248.417 209.875 248.424 210.753 247.554C211.632 246.684 211.639 245.31 210.769 244.556C209.9 243.677 208.527 243.67 207.649 244.54L207.649 244.415Z" fill="#4266B6"/>
<path d="M180.034 122.961C179.156 123.831 179.149 125.205 180.019 125.959C180.888 126.838 182.261 126.845 183.014 125.974C183.893 125.104 183.9 123.73 183.031 122.851C182.161 121.972 180.788 121.965 179.91 122.835L180.034 122.961Z" fill="#4266B6"/>
<path d="M226.369 243.012C225.491 243.882 225.483 245.257 226.353 246.011C227.222 246.89 228.595 246.897 229.473 246.027C230.351 245.282 230.359 243.782 229.49 242.903C228.62 242.024 227.372 242.018 226.494 242.888L226.369 243.012Z" fill="#4266B6"/>
<path d="M264.76 132.266C263.882 133.136 263.875 134.51 264.744 135.389C265.613 136.268 266.986 136.275 267.864 135.405C268.742 134.535 268.749 133.161 267.88 132.282C267.011 131.403 265.638 131.396 264.76 132.266Z" fill="#4266B6"/>
<path d="M231.358 121.726C230.479 122.596 230.472 123.97 231.342 124.849C232.211 125.728 233.584 125.735 234.462 124.865C235.34 123.995 235.347 122.621 234.478 121.742C233.609 120.863 232.236 120.856 231.358 121.726Z" fill="#4266B6"/>
<path d="M246.221 164.779C245.343 165.649 245.336 167.024 246.205 167.778C247.075 168.532 248.448 168.664 249.326 167.794C250.204 166.924 250.211 165.549 249.341 164.795C248.472 163.916 247.099 163.909 246.221 164.779Z" fill="#4266B6"/>
<path d="M227.661 158.062C226.407 159.305 226.397 161.179 227.639 162.435C228.881 163.691 230.753 163.7 232.007 162.458C233.262 161.215 233.271 159.341 232.03 158.085C230.788 156.829 228.915 156.944 227.661 158.062Z" fill="#4266B6"/>
</svg>
