<svg width="412" height="406" viewBox="0 0 412 406" fill="none" xmlns="http://www.w3.org/2000/svg">
<g opacity="0.07">
<path d="M-6.5769 318.385L-6.36981 291.189L-8.13573 291.178L-8.33747 317.666L-31.4654 339.942L-31.8446 389.74L-41.3656 399.302L-41.6951 442.567L-16.4593 468.165L-15.3027 467.025L-40.1004 441.871L-39.7817 400.019L-30.173 390.546L-29.7048 340.66L-6.5769 318.385Z" fill="#4266B6"/>
<path d="M26.9175 466.784L27.1768 421.134L-4.63076 388.87L-4.38198 356.201L26.4013 325.853L27.2041 220.428L2.75698 195.63L3.02325 160.664L1.25732 160.653L1.07463 196.237L25.4328 221.122L24.7284 325.224L-6.0549 355.572L-6.22547 389.566L25.4931 421.918L25.1516 466.772L26.9175 466.784Z" fill="#4266B6"/>
<path d="M50.9995 224.633L51.4565 153.024L39.0139 140.403L39.4079 88.6616L37.7309 88.5622L37.3315 141.01L49.8618 153.72L49.2389 223.915L5.91102 266.63L5.41076 332.322L-24.7497 362.056L-25.2673 441.611L-12.036 455.032L-12.2245 468.188L-10.4586 468.2L-10.3523 454.249L-23.5836 440.828L-22.9892 362.774L7.1713 333.04L7.67158 267.348L50.9995 224.633Z" fill="#4266B6"/>
<path d="M150.702 375.059L150.924 345.922L121.219 315.791L121.51 277.647L37.5657 192.499L37.8024 161.419L36.0365 161.407L35.7944 193.194L119.738 278.342L119.537 316.398L149.153 346.616L149.024 375.137L150.702 375.059Z" fill="#4266B6"/>
<path d="M56.5744 410.561L56.8985 368.002L39.8994 350.759L40.6998 257.254L37.3445 257.232L36.6224 352.062L53.4449 369.304L53.2299 409.126L31.3435 430.703L31.0558 468.493L34.411 468.516L34.6881 432.138L56.5744 410.561Z" fill="#4266B6"/>
<path d="M88.4753 336.321L88.989 268.863L87.312 268.763L86.8024 335.692L65.6277 356.567L65.071 429.676L51.3698 443.183L51.1546 471.438L52.9205 471.45L53.1303 443.902L66.8315 430.394L67.3883 357.285L88.4753 336.321Z" fill="#4266B6"/>
<path d="M119.207 384.576L119.434 354.732L55.9066 290.293L56.2213 248.971L87.1825 218.447L87.9477 117.966L105.208 100.951L105.392 76.7575L101.949 76.6464L101.863 99.5156L84.6032 116.532L83.838 217.012L52.8768 247.536L52.5406 291.684L115.98 356.034L115.862 383.141L102.072 396.736L101.417 471.169L104.772 471.191L105.417 398.171L119.207 384.576Z" fill="#4266B6"/>
<path d="M111.447 345.92L112.2 235.461L61.9037 184.443L62.4391 125.727L58.9949 125.792L58.5377 185.833L108.834 236.851L108.015 344.396L84.1713 367.902L83.4911 468.825L86.8463 468.847L87.6034 369.426L111.447 345.92Z" fill="#4266B6"/>
<path d="M124.961 114.228L125.334 76.8794L123.568 76.8677L123.289 113.422L98.1112 138.244L97.6528 210.03L99.2421 210.04L99.8717 138.962L124.961 114.228Z" fill="#4266B6"/>
<path d="M191.313 445.262L192.379 316.792L156.19 280.084L156.689 214.568L131.103 188.615L131.39 162.568L129.624 162.557L129.508 189.311L155.007 215.175L154.507 280.867L190.608 317.487L189.641 444.456L166.597 467.35L166.446 475.561L168.124 475.484L168.181 468.067L191.313 445.262Z" fill="#4266B6"/>
<path d="M236.335 424.196L237.16 315.946L226.031 304.658L226.479 245.853L150.334 168.615L151.123 64.9553L166.693 49.606L165.554 48.4505L149.45 64.3261L148.651 169.222L224.884 246.548L224.437 305.354L235.565 316.641L234.662 423.567L226.21 431.9L225.888 474.282L227.566 474.205L227.971 432.618L236.335 424.196Z" fill="#4266B6"/>
<path d="M166.649 229.832L167.325 141.006L165.736 140.996L164.976 229.203L132.236 261.481L131.348 378.031L94.07 414.782L93.7246 471.734L95.3139 471.744L95.7429 415.411L133.109 378.749L133.996 262.199L166.649 229.832Z" fill="#4266B6"/>
<path d="M2.36737 163.918C4.22092 164.019 5.73339 162.528 5.74819 160.585C5.76164 158.819 4.27202 157.308 2.41847 157.208C0.652535 157.196 -0.859938 158.687 -0.962355 160.541C-0.888179 162.395 0.601433 163.906 2.36737 163.918Z" fill="#4266B6"/>
<path d="M37.6815 165.391C39.4474 165.402 41.0488 163.824 41.0623 162.058C41.1647 160.204 39.5874 158.604 37.7325 158.68C35.79 158.667 34.2776 160.158 34.3517 162.013C34.3369 163.956 35.8266 165.467 37.6815 165.391Z" fill="#4266B6"/>
<path d="M124.434 80.7699C126.2 80.7817 127.712 79.2906 127.815 77.4369C127.917 75.5833 126.34 73.9835 124.485 74.0595C122.63 74.1355 121.118 75.6265 121.104 77.3925C121.002 79.2461 122.491 80.7571 124.434 80.7699Z" fill="#4266B6"/>
<path d="M98.4319 213.311C100.285 213.411 101.887 211.832 101.813 209.978C101.827 208.035 100.249 206.612 98.483 206.6C96.6281 206.676 95.028 208.078 95.1021 209.933C95.0887 211.699 96.6659 213.299 98.4319 213.311Z" fill="#4266B6"/>
<path d="M130.209 166.53C132.151 166.543 133.575 165.14 133.59 163.197C133.692 161.344 132.202 159.833 130.26 159.82C128.406 159.719 126.805 161.298 126.879 163.153C126.864 165.095 128.443 166.519 130.209 166.53Z" fill="#4266B6"/>
<path d="M150.294 172.844C152.148 172.945 153.749 171.366 153.675 169.511C153.689 167.745 152.288 166.147 150.346 166.134C148.492 166.033 146.891 167.612 146.965 169.467C146.951 171.233 148.441 172.744 150.294 172.844Z" fill="#4266B6"/>
<path d="M119.781 318.428C121.723 318.441 123.148 316.861 123.162 315.095C123.087 313.24 121.685 311.818 119.832 311.717C117.889 311.704 116.377 313.195 116.451 315.05C116.438 316.816 118.015 318.416 119.781 318.428Z" fill="#4266B6"/>
<path d="M65.6042 360.101C67.4578 360.202 69.0592 358.623 68.9851 356.768C68.9109 354.913 67.4213 353.402 65.6554 353.391C63.8004 353.467 62.288 354.958 62.2745 356.724C62.2611 358.49 63.6617 360.088 65.6042 360.101Z" fill="#4266B6"/>
<path d="M26.2918 224.131C28.2343 224.144 29.6578 222.741 29.6726 220.798C29.6874 218.856 28.1965 217.521 26.3429 217.421C24.577 217.409 22.9769 218.811 22.9621 220.754C22.8597 222.607 24.5259 224.12 26.2918 224.131Z" fill="#4266B6"/>
<path d="M87.5544 272.391C89.4093 272.315 91.0094 270.913 90.9353 269.058C90.8611 267.203 89.3715 265.692 87.6055 265.68C85.752 265.58 84.1505 267.158 84.2247 269.013C84.1223 270.867 85.7009 272.29 87.5544 272.391Z" fill="#4266B6"/>
<path d="M155.196 284.236C157.05 284.337 158.562 282.846 158.577 280.903C158.59 279.137 157.101 277.626 155.247 277.526C153.481 277.514 151.969 279.005 151.866 280.859C151.852 282.801 153.43 284.225 155.196 284.236Z" fill="#4266B6"/>
<path d="M166.404 51.6257C168.346 51.6386 169.771 50.0586 169.785 48.2927C169.799 46.3502 168.397 44.9281 166.455 44.9152C164.601 44.8146 163 46.3934 163.074 48.2482C163.061 50.0141 164.638 51.614 166.404 51.6257Z" fill="#4266B6"/>
<path d="M166.244 144.89C168.01 144.902 169.522 143.41 169.625 141.557C169.727 139.703 168.15 138.103 166.295 138.179C164.529 138.168 163.017 139.659 162.914 141.512C162.901 143.278 164.478 144.878 166.244 144.89Z" fill="#4266B6"/>
<path d="M133.084 265.189C135.027 265.201 136.539 263.71 136.465 261.856C136.478 260.09 134.901 258.49 133.135 258.478C131.193 258.465 129.768 260.045 129.754 261.811C129.829 263.666 131.231 265.088 133.084 265.189Z" fill="#4266B6"/>
<path d="M6.77949 270.359C8.72201 270.372 10.2345 268.88 10.1603 267.026C10.1751 265.083 8.68549 263.572 6.83059 263.648C5.06466 263.636 3.55219 265.128 3.44977 266.981C3.34735 268.835 4.83696 270.346 6.77949 270.359Z" fill="#4266B6"/>
<path d="M25.5007 328.856C27.4433 328.869 28.9557 327.378 28.8816 325.523C28.8964 323.58 27.4067 322.069 25.5518 322.145C23.7859 322.134 22.1845 323.712 22.171 325.478C22.0686 327.332 23.7348 328.844 25.5007 328.856Z" fill="#4266B6"/>
<path d="M38.5923 92.818C40.3582 92.8297 41.9596 91.2509 41.9731 89.485C42.0755 87.6313 40.4093 86.1192 38.6434 86.1075C36.7009 86.0946 35.276 87.6746 35.2626 89.4405C35.2491 91.2064 36.6497 92.8051 38.5923 92.818Z" fill="#4266B6"/>
<path d="M60.7399 130.765C63.3888 130.783 65.524 128.678 65.5442 126.029C65.5644 123.38 63.4614 121.247 60.8125 121.229C58.1636 121.212 56.0283 123.317 56.0082 125.965C55.988 128.614 58.091 130.747 60.7399 130.765Z" fill="#4266B6"/>
<path d="M39.0621 262.352C41.711 262.37 43.8463 260.265 43.8664 257.616C43.8866 254.967 41.7836 252.834 39.1347 252.816C36.4859 252.799 34.3506 254.904 34.3304 257.552C34.3103 260.201 36.4132 262.334 39.0621 262.352Z" fill="#4266B6"/>
<path d="M38.5156 356.472C41.1644 356.49 43.2997 354.385 43.3199 351.736C43.34 349.087 41.2371 346.954 38.5882 346.936C35.9393 346.919 33.804 349.024 33.7839 351.673C33.7637 354.322 35.8667 356.455 38.5156 356.472Z" fill="#4266B6"/>
<path d="M103.941 80.9832C106.59 81.0007 108.726 78.8957 108.746 76.2468C108.766 73.5979 106.663 71.4648 104.014 71.4472C101.365 71.4296 99.2298 73.5347 99.2096 76.1836C99.1895 78.8325 101.292 80.9656 103.941 80.9832Z" fill="#4266B6"/>
</g>
<g opacity="0.2">
<path d="M20.4611 303.104L20.6144 282.973L19.3782 282.965L19.229 302.566L2.06198 318.965L1.78092 355.872L-5.3366 362.889L-5.49237 394.941L13.1716 413.873L14.0613 412.996L-4.25219 394.42L-4.01685 363.516L3.10067 356.499L3.29411 319.503L20.4611 303.104Z" fill="#4266B6"/>
<path d="M45.1526 412.856L45.4095 379.127L22.0151 355.219L22.1104 331.113L44.8865 308.659L45.4809 230.606L27.3427 212.207L27.539 186.425L26.3028 186.417L26.1025 212.729L44.2407 231.127L43.6543 308.121L20.8783 330.575L20.686 355.828L44.1693 379.648L43.9165 412.847L45.1526 412.856Z" fill="#4266B6"/>
<path d="M63.027 233.811L63.4304 180.833L54.1422 171.412L54.5217 133.18L53.2855 133.172L52.902 171.933L62.1902 181.355L61.7948 233.273L29.766 264.849L29.3962 313.412L7.06499 335.427L6.61718 394.232L16.4311 404.187L16.3571 413.899L17.5933 413.907L17.6713 403.665L7.85735 393.71L8.29711 335.965L30.6283 313.95L30.9981 265.387L63.027 233.811Z" fill="#4266B6"/>
<path d="M136.792 345.117L136.869 323.484L114.964 301.087L115.178 273.009L53.0524 209.992L53.2273 187.035L51.9911 187.027L51.8122 210.514L113.938 273.531L113.724 301.609L135.718 323.918L135.556 345.109L136.792 345.117Z" fill="#4266B6"/>
<path d="M67.2819 371.239L67.4337 339.716L54.9034 327.006L55.4292 257.959L52.8693 257.854L52.3354 327.961L64.9533 340.76L64.7287 370.25L48.5364 386.214L48.3239 414.115L50.7962 414.132L51.0006 387.29L67.2819 371.239Z" fill="#4266B6"/>
<path d="M90.8367 316.474L91.2173 266.499L89.9811 266.491L89.6046 315.936L73.946 331.373L73.5345 385.411L63.3921 395.41L63.1444 416.335L64.3806 416.343L64.6242 395.948L74.7666 385.949L75.1781 331.911L90.8367 316.474Z" fill="#4266B6"/>
<path d="M113.516 352.114L113.684 330.04L66.7174 282.399L66.8624 251.76L89.904 229.22L90.3826 154.786L103.105 142.243L103.241 124.407L100.769 124.391L100.552 141.255L87.8294 153.797L87.3508 228.231L64.3982 250.684L64.1494 283.354L111.116 330.994L111.052 351.038L100.82 361.125L100.313 416.132L102.785 416.149L103.284 362.2L113.516 352.114Z" fill="#4266B6"/>
<path d="M107.726 323.462L108.436 241.789L71.1961 204.015L71.438 160.661L68.9657 160.644L68.6281 204.969L105.868 242.744L105.262 322.387L87.6461 339.753L86.9896 414.363L89.5495 414.468L90.1103 340.829L107.726 323.462Z" fill="#4266B6"/>
<path d="M117.852 152.041L117.974 124.403L116.738 124.395L116.444 151.502L97.8491 169.833L97.5333 222.9L98.7694 222.908L99.1702 170.283L117.852 152.041Z" fill="#4266B6"/>
<path d="M166.864 396.973L167.587 301.967L140.862 274.858L141.232 226.295L122.305 207.097L122.451 187.848L121.215 187.84L121.064 207.619L139.991 226.817L139.534 275.291L166.347 302.488L165.631 396.435L148.549 413.276L148.504 419.28L149.74 419.288L149.782 413.814L166.864 396.973Z" fill="#4266B6"/>
<path d="M200.091 381.385L200.789 301.301L192.553 292.947L192.883 249.505L136.541 192.354L137.125 115.713L148.602 104.399L147.725 103.51L135.893 115.176L135.213 192.787L191.556 249.938L191.312 293.468L199.549 301.823L198.859 380.847L192.631 386.987L192.392 418.42L193.628 418.429L193.863 387.525L200.091 381.385Z" fill="#4266B6"/>
<path d="M148.561 237.644L149.061 171.952L147.914 171.856L147.329 237.106L123.129 260.964L122.561 347.23L94.9802 374.42L94.5712 416.536L95.8074 416.545L96.1247 374.869L123.793 347.768L124.361 261.502L148.561 237.644Z" fill="#4266B6"/>
<path d="M19.888 285.436C21.3007 285.445 22.3683 284.393 22.3791 282.98C22.3899 281.567 21.2508 280.412 19.9256 280.491C18.5129 280.482 17.3563 281.622 17.4345 282.947C17.4237 284.36 18.4752 285.427 19.888 285.436Z" fill="#4266B6"/>
<path d="M27.1653 188.893C28.5781 188.902 29.6457 187.849 29.6564 186.437C29.6672 185.024 28.6157 183.957 27.203 183.948C25.7902 183.939 24.7226 184.991 24.7118 186.404C24.7011 187.817 25.7526 188.883 27.1653 188.893Z" fill="#4266B6"/>
<path d="M53.1985 189.851C54.6113 189.86 55.6789 188.808 55.6897 187.395C55.7004 185.982 54.5613 184.827 53.2362 184.906C51.8234 184.897 50.7558 185.949 50.745 187.362C50.7343 188.775 51.8734 189.93 53.1985 189.851Z" fill="#4266B6"/>
<path d="M117.345 127.325C118.758 127.335 119.915 126.195 119.837 124.87C119.847 123.457 118.796 122.39 117.383 122.381C115.97 122.372 114.814 123.512 114.892 124.837C114.97 126.162 115.933 127.316 117.345 127.325Z" fill="#4266B6"/>
<path d="M98.1438 225.477C99.5566 225.487 100.624 224.434 100.635 223.021C100.646 221.609 99.5066 220.453 98.1815 220.533C96.7687 220.523 95.7011 221.576 95.6904 222.989C95.6796 224.401 96.7311 225.468 98.1438 225.477Z" fill="#4266B6"/>
<path d="M121.634 190.754C123.047 190.763 124.114 189.711 124.125 188.298C124.136 186.885 123.084 185.819 121.672 185.809C120.259 185.8 119.191 186.853 119.181 188.265C119.17 189.678 120.221 190.745 121.634 190.754Z" fill="#4266B6"/>
<path d="M136.425 195.439C137.837 195.448 138.905 194.395 138.916 192.983C138.927 191.57 137.875 190.503 136.462 190.494C135.05 190.485 133.982 191.537 133.971 192.95C134.049 194.275 135.101 195.342 136.425 195.439Z" fill="#4266B6"/>
<path d="M113.884 303.193C115.297 303.203 116.364 302.15 116.375 300.737C116.386 299.325 115.334 298.258 113.922 298.249C112.509 298.239 111.441 299.292 111.431 300.705C111.42 302.117 112.559 303.273 113.884 303.193Z" fill="#4266B6"/>
<path d="M73.9142 334.012C75.327 334.021 76.4836 332.881 76.4943 331.468C76.5051 330.055 75.4536 328.989 74.0409 328.979C72.6281 328.97 71.4715 330.11 71.5497 331.435C71.539 332.848 72.6781 334.003 74.0032 333.924L73.9142 334.012Z" fill="#4266B6"/>
<path d="M44.8303 233.327C46.243 233.336 47.3106 232.284 47.3214 230.871C47.3322 229.458 46.2807 228.392 44.8679 228.382C43.5428 228.462 42.3876 229.426 42.3768 230.838C42.366 232.251 43.4175 233.318 44.8303 233.327Z" fill="#4266B6"/>
<path d="M90.1184 269.121C91.5312 269.131 92.5988 268.078 92.6096 266.665C92.619 265.429 91.4799 264.274 90.1561 264.177C88.7434 264.167 87.5868 265.308 87.665 266.633C87.6542 268.045 88.7057 269.112 90.1184 269.121Z" fill="#4266B6"/>
<path d="M140.127 277.852C141.54 277.861 142.608 276.808 142.618 275.396C142.629 273.983 141.49 272.828 140.165 272.907C138.84 272.987 137.684 273.95 137.674 275.363C137.663 276.776 138.714 277.842 140.127 277.852Z" fill="#4266B6"/>
<path d="M148.413 105.809C149.826 105.818 150.894 104.766 150.905 103.353C150.915 101.94 149.864 100.874 148.451 100.864C147.038 100.855 145.971 101.908 145.96 103.32C145.949 104.733 147.001 105.8 148.413 105.809Z" fill="#4266B6"/>
<path d="M148.24 174.858C149.652 174.868 150.72 173.815 150.731 172.403C150.741 170.99 149.69 169.923 148.277 169.914C146.864 169.904 145.797 170.957 145.786 172.37C145.775 173.782 146.827 174.849 148.24 174.858Z" fill="#4266B6"/>
<path d="M123.807 263.786C125.22 263.795 126.287 262.743 126.298 261.33C126.309 259.917 125.17 258.762 123.844 258.841C122.432 258.832 121.452 259.973 121.353 261.297C121.343 262.71 122.482 263.865 123.807 263.786Z" fill="#4266B6"/>
<path d="M30.3528 267.58C31.7656 267.589 32.8332 266.537 32.844 265.124C32.8547 263.711 31.8032 262.645 30.3905 262.635C28.9777 262.626 27.9101 263.679 27.8993 265.091C27.8886 266.504 29.0277 267.659 30.3528 267.58Z" fill="#4266B6"/>
<path d="M2.92314 322.15C4.33588 322.159 5.40351 321.106 5.41427 319.694C5.42503 318.281 4.37353 317.214 2.96079 317.205C1.54804 317.196 0.391444 318.336 0.469654 319.661C0.458896 321.074 1.59802 322.229 2.92314 322.15Z" fill="#4266B6"/>
<path d="M44.2454 310.856C45.6581 310.865 46.7258 309.813 46.7365 308.4C46.7473 306.987 45.6958 305.921 44.2831 305.911C42.8703 305.902 41.8027 306.955 41.7919 308.367C41.7812 309.78 42.8327 310.847 44.2454 310.856Z" fill="#4266B6"/>
<path d="M53.8743 136.262C55.287 136.271 56.4436 135.131 56.3654 133.806C56.3762 132.393 55.3247 131.326 53.912 131.317C52.4992 131.308 51.4316 132.36 51.4208 133.773C51.4101 135.186 52.5492 136.341 53.8743 136.262Z" fill="#4266B6"/>
<path d="M70.1649 164.354C72.1075 164.367 73.7089 162.788 73.7237 160.845C73.7385 158.903 72.1612 157.303 70.2187 157.29C68.2762 157.277 66.6748 158.856 66.66 160.798C66.6452 162.741 68.2224 164.341 70.1649 164.354Z" fill="#4266B6"/>
<path d="M54.2372 261.732C56.1797 261.745 57.7812 260.166 57.7959 258.224C57.8107 256.281 56.2335 254.681 54.291 254.669C52.3485 254.656 50.747 256.234 50.7322 258.177C50.7174 260.119 52.2947 261.719 54.2372 261.732Z" fill="#4266B6"/>
<path d="M53.8915 331.319C55.834 331.331 57.4355 329.753 57.4502 327.81C57.465 325.868 55.8878 324.268 53.9453 324.255C52.0028 324.242 50.4013 325.821 50.3865 327.763C50.3717 329.706 51.949 331.306 53.8915 331.319Z" fill="#4266B6"/>
<path d="M102.159 127.401C104.102 127.414 105.703 125.835 105.718 123.893C105.733 121.95 104.155 120.35 102.213 120.337C100.27 120.325 98.6689 121.903 98.6541 123.846C98.6393 125.788 100.217 127.388 102.159 127.401Z" fill="#4266B6"/>
</g>
<path d="M30.1387 297.615L30.3608 280.045L29.3013 280.038L29.1708 297.167L14.2267 311.549L13.893 343.777L7.75416 349.829L7.45271 377.818L23.8384 394.439L24.6391 393.65L8.60392 377.384L8.80967 350.366L15.0375 344.226L15.1946 311.997L30.1387 297.615Z" fill="#4266B6"/>
<path d="M51.8494 393.49L52.074 363.999L31.4823 343.112L31.6423 322.097L51.5714 302.45L52.0015 234.373L36.2292 218.375L36.4013 195.771L35.3418 195.764L35.1669 218.721L51.0269 234.808L50.4269 302.001L30.5868 321.56L30.4187 343.634L50.9228 364.433L50.7022 393.394L51.8494 393.49Z" fill="#4266B6"/>
<path d="M67.4375 237.036L67.7008 190.857L59.6394 182.68L59.9825 149.216L58.834 149.297L58.5758 183.203L66.7262 191.292L66.293 236.587L38.2678 264.216L38.0326 306.687L18.6374 325.808L18.1584 377.108L26.7456 385.818L26.5921 394.382L27.7406 394.301L27.8079 385.472L19.2207 376.761L19.6053 326.256L39.0895 307.047L39.4122 264.665L67.4375 237.036Z" fill="#4266B6"/>
<path d="M131.855 334.235L131.91 315.428L112.72 295.963L112.909 271.24L58.7568 216.311L58.8211 196.267L57.7616 196.26L57.6056 216.745L111.845 271.762L111.658 296.309L130.848 315.774L130.707 334.316L131.855 334.235Z" fill="#4266B6"/>
<path d="M71.0173 357.053L71.2258 329.681L60.2727 318.571L60.7327 258.177L58.5259 258.074L58.0593 319.351L69.0123 330.461L68.816 356.244L54.7589 370.102L54.4843 394.559L56.6924 394.486L56.8713 370.999L71.0173 357.053Z" fill="#4266B6"/>
<path d="M91.603 309.242L91.9351 265.624L90.8756 265.617L90.6351 308.794L76.9339 322.302L76.4858 369.54L67.6779 378.223L67.5394 396.412L68.599 396.419L68.8224 378.672L77.6303 369.989L77.9018 322.75L91.603 309.242Z" fill="#4266B6"/>
<path d="M111.404 340.361L111.64 321.025L70.6317 279.429L70.8348 252.763L90.7638 233.116L91.2587 168.13L102.38 157.166L102.498 141.626L100.291 141.523L100.267 156.269L89.1463 167.233L88.5638 232.13L68.5458 251.865L68.4169 280.385L109.425 321.982L109.292 339.464L100.395 348.235L100.029 396.268L102.148 396.282L102.507 349.132L111.404 340.361Z" fill="#4266B6"/>
<path d="M106.48 315.433L107.023 244.09L74.5144 211.115L74.7145 173.235L72.5954 173.221L72.2996 212.071L104.721 244.957L104.28 314.447L88.888 329.621L88.3918 394.783L90.5109 394.797L91.0004 330.518L106.48 315.433Z" fill="#4266B6"/>
<path d="M115.218 165.742L115.313 141.637L114.254 141.63L114.073 165.293L97.881 181.256L97.5274 227.7L98.5869 227.707L98.9366 181.793L115.218 165.742Z" fill="#4266B6"/>
<path d="M158.084 379.525L158.716 296.526L135.408 272.884L135.642 230.59L119.081 213.791L119.209 197.015L118.149 197.008L118.106 214.226L134.579 230.936L134.257 273.318L157.652 297.049L156.939 379.076L141.993 393.811L141.952 399.109L143.012 399.116L143.137 394.26L158.084 379.525Z" fill="#4266B6"/>
<path d="M187.165 365.96L187.609 296.118L180.424 288.83L180.802 250.775L131.557 200.823L132.065 134.072L142.119 124.16L141.33 123.36L131.01 133.535L130.493 201.346L179.651 251.208L179.449 289.265L186.547 296.464L186.021 365.511L180.594 370.862L180.385 398.233L181.445 398.24L181.649 371.399L187.165 365.96Z" fill="#4266B6"/>
<path d="M142.109 240.531L142.546 183.139L141.486 183.132L141.053 239.994L119.879 260.869L119.306 336.097L95.1952 359.867L94.9155 396.598L96.0627 396.694L96.3397 360.316L120.361 336.634L121.023 261.318L142.109 240.531Z" fill="#4266B6"/>
<path d="M29.7333 282.254C30.9694 282.262 31.9481 281.297 31.9575 280.061C31.9669 278.825 31.003 277.847 29.7669 277.839C28.5307 277.831 27.5521 278.795 27.5427 280.032C27.5332 281.268 28.4971 282.245 29.7333 282.254Z" fill="#4266B6"/>
<path d="M36.0379 197.89C37.2741 197.898 38.2528 196.933 38.2622 195.697C38.2716 194.461 37.3077 193.483 36.0716 193.475C34.8354 193.467 33.8568 194.432 33.8473 195.668C33.8379 196.904 34.8018 197.882 36.0379 197.89Z" fill="#4266B6"/>
<path d="M58.8114 198.747C60.0475 198.755 61.0262 197.79 61.0356 196.554C61.045 195.318 60.0812 194.34 58.845 194.332C57.6089 194.324 56.6302 195.289 56.6208 196.525C56.6114 197.761 57.5752 198.739 58.8114 198.747Z" fill="#4266B6"/>
<path d="M114.85 144.191C116.087 144.199 116.976 143.322 117.075 141.998C117.084 140.762 116.12 139.784 114.884 139.776C113.648 139.768 112.669 140.732 112.66 141.969C112.65 143.205 113.614 144.182 114.85 144.191Z" fill="#4266B6"/>
<path d="M98.0361 229.816C99.2723 229.825 100.251 228.86 100.26 227.624C100.27 226.388 99.3059 225.41 98.0697 225.402C96.8336 225.393 95.8549 226.358 95.8455 227.594C95.8361 228.831 96.8 229.808 98.0361 229.816Z" fill="#4266B6"/>
<path d="M118.587 199.588C119.823 199.596 120.802 198.631 120.811 197.395C120.82 196.159 119.856 195.181 118.62 195.173C117.384 195.165 116.406 196.13 116.396 197.366C116.387 198.602 117.351 199.58 118.587 199.588Z" fill="#4266B6"/>
<path d="M131.531 203.642C132.767 203.651 133.746 202.686 133.666 201.537C133.676 200.301 132.712 199.324 131.476 199.315C130.24 199.307 129.261 200.272 129.251 201.508C129.242 202.744 130.206 203.722 131.442 203.73L131.531 203.642Z" fill="#4266B6"/>
<path d="M111.821 297.719C113.058 297.728 114.036 296.763 113.957 295.614C113.966 294.378 113.002 293.401 111.854 293.481C110.618 293.473 109.639 294.438 109.718 295.586C109.709 296.822 110.673 297.8 111.909 297.808L111.821 297.719Z" fill="#4266B6"/>
<path d="M76.9188 324.601C78.155 324.609 79.1336 323.644 79.143 322.408C79.1524 321.172 78.1886 320.194 76.9524 320.186C75.7163 320.178 74.7376 321.143 74.7282 322.379C74.7188 323.615 75.6827 324.593 76.9188 324.601Z" fill="#4266B6"/>
<path d="M51.5408 236.753C52.7769 236.761 53.7556 235.796 53.765 234.56C53.7744 233.324 52.8105 232.346 51.5744 232.338C50.3382 232.33 49.3596 233.295 49.4391 234.443C49.4297 235.679 50.3936 236.657 51.6297 236.665L51.5408 236.753Z" fill="#4266B6"/>
<path d="M91.0431 267.923C92.2793 267.931 93.2579 266.966 93.2673 265.73C93.2768 264.494 92.3129 263.516 91.1644 263.597C89.9282 263.589 88.9495 264.553 89.0291 265.702C89.0197 266.938 89.9836 267.916 91.2197 267.924L91.0431 267.923Z" fill="#4266B6"/>
<path d="M134.677 275.524C135.913 275.533 136.892 274.568 136.901 273.332C136.911 272.096 135.947 271.118 134.711 271.11C133.475 271.101 132.496 272.066 132.576 273.215C132.566 274.451 133.53 275.429 134.766 275.437L134.677 275.524Z" fill="#4266B6"/>
<path d="M141.931 125.39C143.167 125.399 144.145 124.434 144.155 123.198C144.164 121.962 143.2 120.984 141.964 120.976C140.728 120.967 139.749 121.932 139.74 123.168C139.731 124.405 140.694 125.382 141.931 125.39Z" fill="#4266B6"/>
<path d="M141.82 185.607C143.056 185.615 144.035 184.651 144.044 183.414C144.054 182.178 143.001 181.288 141.854 181.192C140.618 181.184 139.639 182.149 139.719 183.297C139.709 184.534 140.673 185.511 141.909 185.519L141.82 185.607Z" fill="#4266B6"/>
<path d="M68.1155 380.8C69.3516 380.808 70.3303 379.844 70.2507 378.695C70.2601 377.459 69.2963 376.481 68.1477 376.562C66.9116 376.554 65.9329 377.519 65.9235 378.755C65.9141 379.991 66.878 380.969 68.1141 380.977L68.1155 380.8Z" fill="#4266B6"/>
<path d="M120.473 263.251C121.709 263.259 122.687 262.294 122.608 261.145C122.617 259.909 121.653 258.932 120.417 258.923C119.27 258.828 118.202 259.88 118.193 261.116C118.184 262.352 119.06 263.241 120.296 263.249L120.473 263.251Z" fill="#4266B6"/>
<path d="M38.87 266.608C40.1061 266.616 41.0848 265.651 41.0942 264.415C41.1036 263.179 40.1397 262.201 38.9036 262.193C37.6674 262.185 36.6888 263.149 36.6794 264.386C36.67 265.622 37.6338 266.599 38.87 266.608Z" fill="#4266B6"/>
<path d="M14.9169 314.206C16.153 314.214 17.1317 313.25 17.1411 312.013C17.1505 310.777 16.1866 309.8 14.9505 309.791C13.7143 309.783 12.7357 310.748 12.7262 311.984C12.7168 313.22 13.6807 314.198 14.9169 314.206Z" fill="#4266B6"/>
<path d="M31.0206 345.31C32.2568 345.318 33.2354 344.353 33.2448 343.117C33.2543 341.881 32.2904 340.903 31.0542 340.895C29.8181 340.887 28.8394 341.852 28.83 343.088C28.8206 344.324 29.7845 345.302 31.0206 345.31Z" fill="#4266B6"/>
<path d="M51.034 304.395C52.2702 304.404 53.2488 303.439 53.1693 302.29C53.0897 301.142 52.2148 300.077 50.9787 300.068C49.7425 300.06 48.7639 301.025 48.8434 302.173C48.834 303.41 49.7979 304.387 51.034 304.395Z" fill="#4266B6"/>
<path d="M59.3394 151.946C60.5756 151.955 61.5542 150.99 61.5636 149.754C61.5731 148.517 60.6092 147.54 59.373 147.532C58.1369 147.523 57.1582 148.488 57.2378 149.637C57.2284 150.873 58.1922 151.85 59.4284 151.859L59.3394 151.946Z" fill="#4266B6"/>
<path d="M73.7216 176.502C75.4875 176.514 76.8221 175.198 76.8355 173.432C76.9366 171.755 75.5346 170.333 73.7687 170.321C72.0028 170.309 70.6682 171.625 70.6548 173.391C70.6413 175.157 71.9557 176.49 73.7216 176.502Z" fill="#4266B6"/>
<path d="M59.7397 261.44C61.5056 261.452 62.8402 260.136 62.8536 258.37C62.7781 256.692 61.5527 255.271 59.7868 255.26C58.1974 255.249 56.6863 256.563 56.6729 258.329C56.6608 259.919 58.0628 261.341 59.6521 261.351L59.7397 261.44Z" fill="#4266B6"/>
<path d="M59.3724 322.285C61.1383 322.296 62.4728 320.981 62.4863 319.215C62.4997 317.449 61.1853 316.116 59.4194 316.104C57.6535 316.092 56.3189 317.408 56.3055 319.174C56.2921 320.94 57.6954 322.185 59.3724 322.285Z" fill="#4266B6"/>
<path d="M101.593 144.269C103.27 144.368 104.694 142.965 104.707 141.199C104.721 139.433 103.406 138.1 101.64 138.088C99.962 138.165 98.6275 139.481 98.5264 141.158C98.6019 142.836 99.9163 144.169 101.593 144.269Z" fill="#4266B6"/>
</svg>
