<svg id="esrWKDHfNyU1" xmlns="http://www.w3.org/2000/svg" xmlns:xlink="http://www.w3.org/1999/xlink" viewBox="0 0 554 585" shape-rendering="geometricPrecision" text-rendering="geometricPrecision"><defs><linearGradient id="esrWKDHfNyU6-fill" x1="52.317" y1="251.324" x2="110.471" y2="286.219" spreadMethod="pad" gradientUnits="userSpaceOnUse" gradientTransform="translate(0 0)"><stop id="esrWKDHfNyU6-fill-0" offset="0%" stop-color="#437ab8"/><stop id="esrWKDHfNyU6-fill-1" offset="29%" stop-color="rgba(67,122,184,0.66)"/><stop id="esrWKDHfNyU6-fill-2" offset="63%" stop-color="rgba(67,122,184,0.31)"/><stop id="esrWKDHfNyU6-fill-3" offset="87%" stop-color="rgba(67,122,184,0.08)"/><stop id="esrWKDHfNyU6-fill-4" offset="100%" stop-color="rgba(67,122,184,0)"/></linearGradient><linearGradient id="esrWKDHfNyU34-fill" x1="100.447" y1="244.78" x2="100.447" y2="116.775" spreadMethod="pad" gradientUnits="userSpaceOnUse" gradientTransform="translate(0 0)"><stop id="esrWKDHfNyU34-fill-0" offset="0%" stop-color="#52e0f8"/><stop id="esrWKDHfNyU34-fill-1" offset="12%" stop-color="rgba(82,224,248,0.85)"/><stop id="esrWKDHfNyU34-fill-2" offset="45%" stop-color="rgba(82,224,248,0.49)"/><stop id="esrWKDHfNyU34-fill-3" offset="63.0208%" stop-color="rgba(82,183,240,0.309792)"/><stop id="esrWKDHfNyU34-fill-4" offset="71%" stop-color="rgba(82,224,248,0.23)"/><stop id="esrWKDHfNyU34-fill-5" offset="90%" stop-color="rgba(82,224,248,0.06)"/><stop id="esrWKDHfNyU34-fill-6" offset="100%" stop-color="rgba(82,224,248,0)"/></linearGradient><linearGradient id="esrWKDHfNyU35-fill" x1="97.717" y1="301.237" x2="99.4394" y2="115.018" spreadMethod="pad" gradientUnits="userSpaceOnUse" gradientTransform="translate(0 0)"><stop id="esrWKDHfNyU35-fill-0" offset="0%" stop-color="#52a1f8"/><stop id="esrWKDHfNyU35-fill-1" offset="23.8717%" stop-color="rgba(82,161,248,0.85)"/><stop id="esrWKDHfNyU35-fill-2" offset="67.8559%" stop-color="rgba(85,177,255,0.32)"/></linearGradient><linearGradient id="esrWKDHfNyU36-fill" x1="100.435" y1="228.427" x2="100.435" y2="137.401" spreadMethod="pad" gradientUnits="userSpaceOnUse" gradientTransform="translate(0 0)"><stop id="esrWKDHfNyU36-fill-0" offset="0%" stop-color="#52e0f8"/><stop id="esrWKDHfNyU36-fill-1" offset="0.01%" stop-color="#52e0f8"/><stop id="esrWKDHfNyU36-fill-2" offset="12%" stop-color="rgba(82,224,248,0.85)"/><stop id="esrWKDHfNyU36-fill-3" offset="45%" stop-color="rgba(82,224,248,0.49)"/><stop id="esrWKDHfNyU36-fill-4" offset="71%" stop-color="rgba(82,224,248,0.23)"/><stop id="esrWKDHfNyU36-fill-5" offset="90%" stop-color="rgba(82,224,248,0.06)"/><stop id="esrWKDHfNyU36-fill-6" offset="100%" stop-color="rgba(82,224,248,0)"/></linearGradient><linearGradient id="esrWKDHfNyU64-fill" x1="447.066" y1="331.035" x2="450.713" y2="62.1233" spreadMethod="pad" gradientUnits="userSpaceOnUse" gradientTransform="translate(0 0)"><stop id="esrWKDHfNyU64-fill-0" offset="0%" stop-color="#ffd562"/><stop id="esrWKDHfNyU64-fill-1" offset="14%" stop-color="rgba(255,213,98,0.83)"/><stop id="esrWKDHfNyU64-fill-2" offset="46%" stop-color="rgba(255,213,98,0.48)"/><stop id="esrWKDHfNyU64-fill-3" offset="72%" stop-color="rgba(255,213,98,0.22)"/><stop id="esrWKDHfNyU64-fill-4" offset="90%" stop-color="rgba(255,213,98,0.06)"/><stop id="esrWKDHfNyU64-fill-5" offset="100%" stop-color="rgba(255,213,98,0)"/></linearGradient><linearGradient id="esrWKDHfNyU66-fill" x1="449.81" y1="227.589" x2="449.81" y2="136.563" spreadMethod="pad" gradientUnits="userSpaceOnUse" gradientTransform="translate(0 0)"><stop id="esrWKDHfNyU66-fill-0" offset="0%" stop-color="#ffd562"/><stop id="esrWKDHfNyU66-fill-1" offset="14%" stop-color="rgba(255,213,98,0.83)"/><stop id="esrWKDHfNyU66-fill-2" offset="46%" stop-color="rgba(255,213,98,0.48)"/><stop id="esrWKDHfNyU66-fill-3" offset="72%" stop-color="rgba(255,213,98,0.22)"/><stop id="esrWKDHfNyU66-fill-4" offset="90%" stop-color="rgba(255,213,98,0.06)"/><stop id="esrWKDHfNyU66-fill-5" offset="100%" stop-color="rgba(255,213,98,0)"/></linearGradient><linearGradient id="esrWKDHfNyU82-fill" x1="236.49" y1="392.014" x2="169.974" y2="431.923" spreadMethod="pad" gradientUnits="userSpaceOnUse" gradientTransform="translate(0 0)"><stop id="esrWKDHfNyU82-fill-0" offset="0%" stop-color="#437ab8"/><stop id="esrWKDHfNyU82-fill-1" offset="29%" stop-color="rgba(67,122,184,0.66)"/><stop id="esrWKDHfNyU82-fill-2" offset="63%" stop-color="rgba(67,122,184,0.31)"/><stop id="esrWKDHfNyU82-fill-3" offset="87%" stop-color="rgba(67,122,184,0.08)"/><stop id="esrWKDHfNyU82-fill-4" offset="100%" stop-color="rgba(67,122,184,0)"/></linearGradient><linearGradient id="esrWKDHfNyU122-fill" x1="86.6036" y1="510.736" x2="88.0076" y2="343.079" spreadMethod="pad" gradientUnits="userSpaceOnUse" gradientTransform="translate(0 0)"><stop id="esrWKDHfNyU122-fill-0" offset="0%" stop-color="#478dc8"/><stop id="esrWKDHfNyU122-fill-1" offset="100%" stop-color="rgba(143,193,255,0)"/></linearGradient><linearGradient id="esrWKDHfNyU124-fill" x1="89.2551" y1="445.149" x2="89.2551" y2="354.123" spreadMethod="pad" gradientUnits="userSpaceOnUse" gradientTransform="translate(0 0)"><stop id="esrWKDHfNyU124-fill-0" offset="0%" stop-color="#b18fff"/><stop id="esrWKDHfNyU124-fill-1" offset="4%" stop-color="rgba(177,143,255,0.95)"/><stop id="esrWKDHfNyU124-fill-2" offset="40%" stop-color="rgba(177,143,255,0.56)"/><stop id="esrWKDHfNyU124-fill-3" offset="69%" stop-color="rgba(177,143,255,0.27)"/><stop id="esrWKDHfNyU124-fill-4" offset="90%" stop-color="rgba(177,143,255,0.09)"/><stop id="esrWKDHfNyU124-fill-5" offset="100%" stop-color="rgba(177,143,255,0.02)"/></linearGradient><linearGradient id="esrWKDHfNyU130-fill" x1="428.902" y1="503.604" x2="511.959" y2="511.918" spreadMethod="pad" gradientUnits="userSpaceOnUse" gradientTransform="translate(0 0)"><stop id="esrWKDHfNyU130-fill-0" offset="0%" stop-color="rgba(67,122,184,0.08)"/><stop id="esrWKDHfNyU130-fill-1" offset="100%" stop-color="#437ab8"/></linearGradient><linearGradient id="esrWKDHfNyU137-fill" x1="457.853" y1="450.01" x2="457.853" y2="280.251" spreadMethod="pad" gradientUnits="userSpaceOnUse" gradientTransform="translate(0 0)"><stop id="esrWKDHfNyU137-fill-0" offset="0%" stop-color="#52e0f8"/><stop id="esrWKDHfNyU137-fill-1" offset="12%" stop-color="rgba(82,224,248,0.85)"/><stop id="esrWKDHfNyU137-fill-2" offset="45%" stop-color="rgba(82,224,248,0.49)"/><stop id="esrWKDHfNyU137-fill-3" offset="63.0208%" stop-color="rgba(82,183,240,0.309792)"/><stop id="esrWKDHfNyU137-fill-4" offset="71%" stop-color="rgba(82,224,248,0.23)"/><stop id="esrWKDHfNyU137-fill-5" offset="90%" stop-color="rgba(82,224,248,0.06)"/><stop id="esrWKDHfNyU137-fill-6" offset="100%" stop-color="rgba(82,224,248,0)"/></linearGradient><linearGradient id="esrWKDHfNyU138-fill" x1="455.1" y1="495.032" x2="456.582" y2="324.435" spreadMethod="pad" gradientUnits="userSpaceOnUse" gradientTransform="translate(0 0)"><stop id="esrWKDHfNyU138-fill-0" offset="0%" stop-color="#52a1f8"/><stop id="esrWKDHfNyU138-fill-1" offset="23.8717%" stop-color="rgba(82,161,248,0.85)"/><stop id="esrWKDHfNyU138-fill-2" offset="67.8559%" stop-color="rgba(85,177,255,0.32)"/></linearGradient><linearGradient id="esrWKDHfNyU139-fill" x1="457.853" y1="427.995" x2="457.853" y2="336.969" spreadMethod="pad" gradientUnits="userSpaceOnUse" gradientTransform="translate(0 0)"><stop id="esrWKDHfNyU139-fill-0" offset="0%" stop-color="#52e0f8"/><stop id="esrWKDHfNyU139-fill-1" offset="0.01%" stop-color="#52e0f8"/><stop id="esrWKDHfNyU139-fill-2" offset="12%" stop-color="rgba(82,224,248,0.85)"/><stop id="esrWKDHfNyU139-fill-3" offset="45%" stop-color="rgba(82,224,248,0.49)"/><stop id="esrWKDHfNyU139-fill-4" offset="71%" stop-color="rgba(82,224,248,0.23)"/><stop id="esrWKDHfNyU139-fill-5" offset="90%" stop-color="rgba(82,224,248,0.06)"/><stop id="esrWKDHfNyU139-fill-6" offset="100%" stop-color="rgba(82,224,248,0)"/></linearGradient></defs><g clip-path="url(#esrWKDHfNyU239)"><g><path d="M179.976,269.994l-73.388-42.72c-2.601-1.505-5.552-2.297-8.5565-2.297-3.0043,0-5.9555.792-8.5565,2.297L11.4182,272.361l-6.49817-1.247v8.38c-.00624,1.005.25487,1.994.75654,2.864.50168.871,1.22585,1.593,2.09823,2.091l84.003,48.922c2.6009,1.504,5.5521,2.296,8.5562,2.296c3.004,0,5.956-.792,8.557-2.296l81.7-47.202c.872-.498,1.596-1.22,2.098-2.09.502-.871.763-1.86.757-2.865v-8.522l-13.47-2.698Z" fill="#5b6bf5"/><path d="M7.77664,276.006L91.7796,324.928c2.601,1.504,5.5522,2.296,8.5564,2.296c3.004,0,5.956-.792,8.556-2.296l81.701-47.186c.871-.5,1.596-1.222,2.099-2.092.504-.87.769-1.858.769-2.863c0-1.006-.265-1.993-.769-2.863-.503-.87-1.228-1.592-2.099-2.092L106.59,218.91c-2.604-1.497-5.554-2.285-8.5567-2.285s-5.9529.788-8.5564,2.285L7.77664,266.096c-.87166.5-1.5959,1.222-2.09956,2.092s-.76888,1.857-.76888,2.863c0,1.005.26522,1.993.76888,2.863s1.2279,1.592,2.09956,2.092Z" fill="#a5adf4"/><path d="M48.3108,279.352L16.4824,261.061l52.3639-30.252l31.8287,18.29-52.3642,30.253Z" opacity="0.1" fill="url(#esrWKDHfNyU6-fill)"/><path d="M54.9659,247.442c0,0-.8201,3.014,1.2618,3.867c2.0819.852,7.9965,5.902,12.1288,6.312c4.1324.41,3.8169-2.272,2.634-4.498-1.1829-2.225-5.6465-8.237-5.6465-8.237l-10.3781,2.556Z" fill="#4266b6"/><path d="M43.6111,254.607c0,0-.8202,2.998,1.2775,3.85c2.0977.853,7.9965,5.918,12.1131,6.313s3.8169-2.273,2.6497-4.498-5.6622-8.237-5.6622-8.237l-10.3781,2.572Z" fill="#4266b6"/><path d="M42.5527,224.054l.3786,30.19c2.0356,1.181,4.4476,1.531,6.7347.978c2.0721-.347,3.9879-1.322,5.4888-2.793v-4.734c2.0223.417,4.0957.529,6.1511.331c1.8766-.086,3.6935-.687,5.2522-1.736l.4889-28.643-24.4943,6.407Z" fill="#212121"/><path d="M57.3801,222.76l-2.2239.616v24.382c.7333.159,1.4762.269,2.2239.331v-25.329Z" fill="#cedfed"/><path d="M66.1484,159.383l2.6655,14.392l11.0406-2.098l1.3564,9.61c0,0-13.3276,3.804-15.094,2.336-1.7665-1.468.0315-24.24.0315-24.24Z" transform="translate(0-.3)" fill="#4266b6"/><path d="M58.4362,151.65c0,0,5.7411.095,7.2237,4.845s1.3091,32.004,1.3091,36.107c0,4.104.8201,24.951.8201,24.951s-.3312,2.635-7.7126,5.918c-7.3814,3.282-20.3304,0-20.3304,0s.1577-18.938.8201-32.825c.6625-13.888.0001-27.097,2.4605-31.563c2.4605-4.466,9.3372-7.023,15.4095-7.433Z" fill="#fff"/><path d="M48.1367,143.081v11.599l7.8546,8.206l2.2396-.505-.6939-9.658-9.4003-9.642Z" fill="#cd8b74"/><g transform="translate(0-2)"><path d="M38.2478,203.933l8.8482-.978c-.8794-6.325-1.1278-12.721-.7413-19.095.7413-9.469,3.8484-16.176,2.4447-22.489-1.4037-6.312-6.3089-4.734-7.9807,1.815-1.6719,6.549-3.5646,36.565-2.5709,40.747Z" fill="#4266b6"/><path d="M47.0968,202.955c0,0,1.5772,4.182,1.2933,5.287-.2839,1.104-2.3343-1.168-2.3343-1.168s1.7507,4.86,1.1829,6.517c-.5678,1.658-5.4414,3.157-7.3656.742-1.9242-2.414-1.5772-10.4-1.5772-10.4l8.8009-.978Z" fill="#e69c83"/></g><path d="M79.8867,171.692c1.8398-.604,3.715-1.094,5.6149-1.467c1.0615-.267,2.1845-.123,3.1439.404s1.6844,1.397,2.0294,2.436c.3312,1.673-3.2806,0-3.2806,0c.4667,1.544.4667,3.191,0,4.735-.7413,2.461-6.3089,3.535-6.3089,3.535l-1.1987-9.643Z" fill="#e69c83"/><path d="M58.4356,224.054c.5362-.157,1.0567-.347,1.5772-.552l-2.2554-61.01-.7886.189l1.4668,61.373Z" fill="#4266b6"/><path d="M57.7579,162.492l2.4447,1.988-2.6655-11.678.2208,9.69Z" fill="#4266b6"/><path d="M48.1367,154.491l6.577,10.81l2.2555-2.636-8.8325-8.174Z" fill="#4266b6"/><path d="M49.0036,145.59c.7054,2.389,2.1256,4.504,4.0693,6.06c2.9494,2.052,5.2837,2.793,7.4445,1.815s3.6276-2.714,3.2491-7.023c-.3786-4.308.9936-11.204-2.2081-15.781c0,0-2.9495-4.182-9.4634-1.973-6.5139,2.21-5.4256,11.237-3.0914,16.902Z" fill="#e69c83"/><path d="M63.6402,137.384c0,0,1.1199-.111.6782-2.872-.1694-1.169-.5989-2.285-1.2568-3.265-.6579-.981-1.5273-1.801-2.5443-2.401-1.4457-.771-3.045-1.211-4.6819-1.288-1.6368-.076-3.2701.213-4.7814.846-1.5239.6-2.8415,1.628-3.7933,2.962-.9517,1.333-1.4968,2.914-1.5693,4.55-.2366,3.63,0,4.561,1.4037,6.029.9046.936,2.0695,1.58,3.3438,1.846c0,0-.6782-2.209.552-3.156s2.6182,0,2.7286-3.156c.1104-3.157-1.8927-6.423-1.2302-8.128.6624-1.704,5.7568-1.42,6.9871,0c2.3322,2.071,3.8155,4.933,4.1638,8.033Z" fill="#fff"/><path d="M63.8316,144.864c0,0-.489-.205-2.0347.537s-5.5833,2.209-5.9619,2.825c-.3785.615-.7886,1.42-.7886,1.42-1.3103-.649-2.4339-1.621-3.2648-2.825-1.4195-2.036-1.2934-3.03-1.2934-3.03l-3.3437-2.399c0,0,1.4353,7.512,4.3847,9.911s5.1102,3.756,7.8861,3.519c1.1217-.068,2.198-.468,3.0934-1.147.8953-.68,1.5696-1.61,1.938-2.672.1068-2.066-.1006-4.135-.6151-6.139Z" fill="#fff"/><g opacity="0.5"><path d="M59.6502,142.308c-.0122.779-.2068,1.545-.5684,2.236-.3616.69-.88,1.287-1.5135,1.741-1.1514.662-2.082,0-2.082-1.579.0134-.779.2086-1.544.5701-2.235.3615-.69.8792-1.287,1.5119-1.741c1.1513-.6,2.0819.047,2.0819,1.578Z" fill="#fdfbf5"/><path d="M64.9178,139.262c-.0122.779-.2069,1.545-.5684,2.236-.3616.691-.88,1.287-1.5136,1.741-1.1513.663-2.0819,0-2.0819-1.578.0134-.78.2086-1.545.5701-2.236.3614-.69.8792-1.286,1.5118-1.741c1.1514-.71,2.082.047,2.082,1.578Z" fill="#fdfbf5"/></g><path d="M49.1621,202.292l5.8515-3.377v7.322c-.0031.847-.2275,1.679-.6508,2.412-.4233.734-1.0308,1.344-1.7623,1.77-.3484.204-.7442.311-1.1474.312-.4032,0-.7994-.106-1.1484-.307-.3491-.202-.6386-.493-.8393-.843s-.3053-.747-.3033-1.15v-6.139Z" fill="#4266b6"/><path d="M60.9609,195.506l5.8515-3.393v7.323c.0114.848-.205,1.683-.6268,2.419-.4217.736-1.0332,1.344-1.7705,1.763-.3496.202-.7461.308-1.1497.308-.4036.001-.8002-.105-1.1501-.307-.3498-.201-.6407-.491-.8433-.84s-.3098-.746-.3111-1.15v-6.123Z" fill="#4266b6"/><path d="M48.2617,218.626l50.9286,29.416l52.3637-30.253-50.928-29.416-52.3643,30.253Z" fill="#dbecfd"/><path d="M48.2617,218.626v60.678l50.9286,29.417v-60.679L48.2617,218.626Z" fill="#4266b6"/><path d="M99.1914,308.721l52.3636-30.253v-60.679L99.1914,248.042v60.679Z" fill="#003159"/><path d="M118.162,225.728c-11.309,6.534-28.3899,7.244-38.2002,1.578-9.8104-5.665-8.5643-15.544,2.7444-22.093s28.3898-7.244,38.2008-1.578c9.81,5.665,8.611,15.56-2.745,22.093Z" opacity="0.2" fill="#33c2d9"/><path d="M112.563,222.477c-7.745,4.466-19.4319,4.956-26.1351,1.089-6.7032-3.866-5.8515-10.621,1.8769-15.087s19.4312-4.955,26.1342-1.089c6.704,3.867,5.852,10.621-1.876,15.087Z" opacity="0.5" fill="#33d9b2"/><path d="M118.937,105.268c0-1.809-1.575-3.57-4.505-4.819-6.693-2.9159-18.3791-2.547-26.0963.821-4.4885,1.951-6.6462,4.498-6.2997,6.854v111.024c-.2362,2,1.2285,3.939,4.4886,5.367c6.6934,2.916,18.3634,2.547,26.0964-.821c4.253-1.856,6.41-4.236,6.379-6.497v-111.929h-.063Z" opacity="0.2" fill="url(#esrWKDHfNyU34-fill)"/><path d="M127.987,218.769v-120.2872L73.0202,102.328v119.446c-.2562,2.633,1.9219,5.179,6.6947,7.059c9.946,3.923,27.3071,3.431,38.7911-1.093c6.518-2.568,9.722-5.868,9.481-8.971Z" opacity="0.05" fill="url(#esrWKDHfNyU35-fill)"/><path d="M110.371,129.21c-.071-.733-.333-1.434-.759-2.035s-1.002-1.08-1.67-1.389c-3.596-2.068-9.8572-1.815-14.0053.584-2.4132,1.388-3.5803,3.156-3.4226,4.876v78.906c-.0196.804.1991,1.596.6286,2.275.4294.68,1.0504,1.217,1.7846,1.544c3.596,2.068,9.8577,1.815,14.0057-.584c2.287-1.325,3.454-3.014,3.438-4.624v-79.553Z" opacity="0.3" fill="url(#esrWKDHfNyU36-fill)"/><path id="esrWKDHfNyU37" d="M112.563,142.088c-7.745,4.466-19.4319,4.955-26.1351,1.089-6.7032-3.867-5.8515-10.621,1.8769-15.087s19.4312-4.955,26.1342-1.089c6.704,3.866,5.852,10.621-1.876,15.087Z" transform="translate(-.525889 75.642004)" opacity="0.5" fill="none" stroke="#4266b6" stroke-width="0.48" stroke-miterlimit="10"/><path id="esrWKDHfNyU38" d="M112.563,170.384c-7.745,4.466-19.4319,4.939-26.1351,1.073-6.7032-3.867-5.8515-10.621,1.8769-15.087s19.4312-4.956,26.1342-1.089c6.704,3.866,5.852,10.636-1.876,15.103Z" transform="translate(-.525889 47.358763)" opacity="0.5" fill="none" stroke="#4266b6" stroke-width="0.48" stroke-miterlimit="10"/><path id="esrWKDHfNyU39" d="M112.563,198.237c-7.745,4.466-19.4319,4.956-26.1351,1.073-6.7032-3.882-5.8515-10.62,1.8769-15.086s19.4312-4.956,26.1342-1.089c6.704,3.866,5.852,10.636-1.876,15.102Z" transform="translate(-.525889 19.501814)" opacity="0.5" fill="none" stroke="#4266b6" stroke-width="0.48" stroke-miterlimit="10"/><path d="M532.959,266.9L459.57,224.181c-2.601-1.505-5.552-2.297-8.556-2.297s-5.956.792-8.557,2.297l-78.056,45.087-6.499-1.31v8.38c-.006,1.005.255,1.993.757,2.864s1.226,1.593,2.098,2.091l84.003,48.843c2.601,1.504,5.552,2.296,8.557,2.296c3.004,0,5.955-.792,8.556-2.296l81.7-47.202c.874-.497,1.599-1.218,2.101-2.089s.762-1.861.754-2.866v-8.364L532.959,266.9Z" fill="#4266b6"/><path d="M360.759,272.913l84.003,48.922c2.603,1.497,5.554,2.284,8.556,2.284c3.003,0,5.953-.787,8.557-2.284l81.7-47.202c.872-.5,1.596-1.222,2.1-2.092.503-.87.768-1.858.768-2.863c0-1.006-.265-1.993-.768-2.863-.504-.87-1.228-1.592-2.1-2.092L459.572,215.88c-2.601-1.505-5.552-2.297-8.556-2.297-3.005,0-5.956.792-8.557,2.297l-81.7,47.122c-.868.504-1.588,1.227-2.089,2.097-.5.869-.764,1.855-.764,2.859c0,1.003.264,1.989.764,2.859.501.87,1.221,1.593,2.089,2.096Z" fill="#b0b0b0"/><path d="M500.563,277.458l33.091-18.669-50.945-29.448-33.09,18.669l50.944,29.448Z" opacity="0.1" fill="#fff"/><path d="M482.709,154.238c0,0-14.069,15.876-13.785,20.611.041,1.261.567,2.459,1.47,3.341.902.882,2.111,1.381,3.372,1.393l6.861-2.351l2.082-22.994Z" fill="#4266b6"/><path d="M481.778,141.897c-.607-.307-1.12-.773-1.484-1.348-.363-.575-.565-1.238-.583-1.918-.052-.638.066-1.279.343-1.856.278-.577.704-1.07,1.235-1.427-.056-.836.136-1.671.552-2.399.625-.723,1.485-1.204,2.429-1.357-.013-.476.113-.946.362-1.352s.611-.732,1.041-.936c.981-.372,2.064-.372,3.044,0c.423-.55.965-.998,1.585-1.31.62-.311,1.302-.478,1.996-.489.606.078,1.18.323,1.656.708.476.384.836.893,1.041,1.47c1.444-.098,2.872.347,4.006,1.246.801.95,1.291,2.124,1.404,3.362.532.129,1.014.417,1.38.826.366.408.599.918.67,1.462.133,1.074-.025,2.164-.457,3.156.331.411.567.89.693,1.403.125.513.136,1.047.032,1.564-.062.636-.249,1.252-.549,1.816-.3.563-.709,1.061-1.202,1.467.114.152.176.338.176.528c0,.191-.062.376-.176.529-.183.348-.448.646-.772.868.481-.046.966.028,1.412.216.446.187.838.481,1.143.857.701.982,1.051,2.172.993,3.377.901.743,1.56,1.737,1.893,2.857.136.852.136,1.72,0,2.572.554.988.775,2.128.631,3.251-.156.637-.46,1.227-.887,1.724-.428.496-.967.884-1.574,1.132L489.995,150.64l-8.217-8.743Z"/><path d="M489.191,242.708c0,0-5.331,5.381-4.874,7.78s4.732,1.925,7.996-1.389c3.265-3.314,3.076-3.456,3.076-5.097s-1.845-2.699-1.845-2.699l-4.353,1.405Z" fill="#4266b6"/><path d="M497.299,218.326c0,0,.568,4.734.678,8.111.095,2.825-2.429,12.452-3.344,15.782-.089.371-.275.712-.538.989s-.594.48-.96.589c-.641.23-1.324.322-2.003.268-.732-.272-1.395-.703-1.94-1.262l-.678-25.503l8.785,1.026Z" fill="#805749"/><path d="M479.712,238.778c0,0-5.331,5.382-4.874,7.78.458,2.399,4.732,1.926,7.981-1.388s3.155-3.456,3.155-5.098c0-1.641-1.846-2.698-1.846-2.698l-4.416,1.404Z" fill="#4266b6"/><path d="M487.82,214.302c0,0,.568,4.734.678,8.111.095,2.825-2.444,12.452-3.343,15.781-.093.37-.279.71-.542.987-.262.276-.592.48-.957.591-.639.238-1.323.329-2.003.269-.732-.272-1.394-.704-1.94-1.263l-.662-25.471l8.769.995Z" fill="#805749"/><path d="M478.121,197.431l.552,15.861c1.754,2.43,4.305,4.167,7.208,4.908c5.252,1.578,14.037.583,14.037.583s2.981-15.323,2.981-18.748c0-3.424-24.068-7.59-24.778-2.604Z" fill="#252525"/><path d="M485.644,151.477c-1.648.597-3.022,1.776-3.864,3.314-1.152,2.398-2.067,9.942-2.761,12.625-.694,2.682,1.578,6.864,1.578,9.942c0,3.077-3.659,17.706-3.659,18.748c0,1.041,4.053,3.361,5.693,4.308c1.641.947,3.786-2.478,3.786-2.478s.914,7.07,5.252,7.986c4.337.915,13.595-5.255,13.595-5.255-.329-4.114-.94-8.201-1.829-12.231-1.152-3.992-2.051-7.307-2.051-7.307l3.88-20.689c-2.844-3.199-6.588-5.465-10.74-6.502-3.01-.63-5.976-1.452-8.88-2.461Z" fill="#fff"/><path d="M487.945,152.376l.505,4.214.174,2.493l6.845-4.292-.379-8.143-7.145,5.728Z" fill="#67463a"/><path d="M481.842,140.272c0,0-.457,7.354,1.057,9.469c1.514,2.114,2.445,4.119,4.416,4.119c1.972,0,5.946-2.746,7.161-4.735c1.214-1.988.394-3.535-.221-5.018-.615-1.484-3.501-5.713-7.176-6.313-3.297-.521-5.237.458-5.237,2.478Z" fill="#805749"/><path d="M488.12,191.671l-13.091-4.45c-.275-.12-.517-.302-.709-.532s-.327-.502-.395-.794l-4.968-21.904c-.142-.584.141-.915.63-.757l13.076,4.45c.274.12.517.302.708.532.192.23.327.502.396.794l4.968,21.904c.142.584-.142.915-.615.757Z" fill="#b37c2e"/><path d="M480.092,168.489l-7.097-2.415-.694-3.077l7.097,2.414.694,3.078Z" fill="#dbecfd"/><path d="M505.295,160.377c0,0,1.908,2.178.946,7.544-.962,5.365-5.678,20.515-8.864,21.604s-13.611-2.904-13.611-2.904l.82-6.091l8.659,1.925c0,0,5.252-17.785,7.886-20.657c2.634-2.873,4.164-1.421,4.164-1.421Z" fill="#4266b6"/><path d="M484.585,180.53c0,0-1.23-2.557-2.192-2.383-.962.173,0,2.004,0,2.004s-2.634-1.578-3.88-.805-1.577,3.725,1.577,5.603c1.133.688,2.339,1.249,3.596,1.672l.899-6.091Z" fill="#805749"/><path d="M483.892,145.543l-2.255-1.294c-.131-.078-.24-.189-.315-.322-.074-.133-.113-.283-.111-.436v-1.31c-.002-.152.036-.302.111-.434.076-.133.185-.242.317-.318s.282-.115.434-.113.301.045.431.124l2.256,1.294c.131.077.24.188.314.321.075.133.113.284.112.436v1.373c-.013.145-.062.285-.143.406-.08.121-.19.22-.319.287-.128.068-.272.102-.417.099-.146-.002-.288-.041-.415-.113Z" opacity="0.5" fill="#f7f1e3"/><path d="M489.066,148.525l-2.255-1.294c-.131-.075-.24-.183-.318-.313-.077-.13-.12-.277-.124-.428v-1.326c.001-.153.042-.302.12-.434.077-.132.187-.241.32-.316s.283-.114.436-.113c.152.002.302.044.433.121l2.24,1.294c.133.077.244.188.321.32.078.133.119.284.121.438v1.31c.002.152-.037.302-.112.434-.075.133-.185.242-.317.318s-.281.115-.434.113c-.152-.002-.301-.045-.431-.124Z" opacity="0.5" fill="#f7f1e3"/><path d="M397.256,217.616l50.928,29.416l52.364-30.253-50.928-29.416-52.364,30.253Z" fill="#dbecfd"/><path d="M397.256,217.616v60.678l50.928,29.432v-60.694l-50.928-29.416Z" fill="#215e91"/><path d="M448.184,307.726l52.363-30.268v-60.679l-52.363,30.253v60.694Z" fill="#4266b6"/><path d="M467.536,224.891c-11.309,6.533-28.39,7.243-38.216,1.578s-8.565-15.529,2.744-22.094s28.39-7.243,38.216-1.578c9.826,5.666,8.565,15.56-2.744,22.094Z" opacity="0.2" fill="#ffd562"/><path d="M461.921,221.656c-7.728,4.466-19.431,4.939-26.119,1.073-6.687-3.867-5.851-10.621,1.877-15.087c7.729-4.466,19.432-4.955,26.119-1.089c6.688,3.866,5.867,10.637-1.877,15.103Z" opacity="0.5" fill="#ffd562"/><path d="M476.875,211.934v-173.7193l-54.13,5.555v172.5043c-.268,3.819,1.893,7.496,6.577,10.195c9.794,5.665,26.907,4.955,38.216-1.578c6.404-3.709,9.574-8.475,9.337-12.957Z" opacity="0.05" fill="url(#esrWKDHfNyU64-fill)"/><path d="M468.324,64.5851c-.078-2.3987-1.577-4.7343-4.526-6.3125-6.688-3.8664-18.391-3.3771-26.119,1.0889-4.495,2.6039-6.656,5.9653-6.309,9.1058v147.2227c-.237,2.667,1.23,5.24,4.495,7.118c6.688,3.866,18.391,3.393,26.119-1.073c4.274-2.462,6.435-5.634,6.404-8.617v-148.5329h-.064Z" opacity="0.05" fill="#ec6a15"/><path d="M459.731,128.373c-.071-.732-.33-1.432-.753-2.032-.424-.601-.996-1.081-1.661-1.393-3.596-2.067-9.873-1.815-14.021.584-2.398,1.405-3.565,3.156-3.407,4.877v78.906c-.02.804.199,1.595.629,2.275.429.68,1.05,1.217,1.784,1.544c3.581,2.067,9.858,1.815,14.006-.584c2.287-1.326,3.438-3.014,3.423-4.624v-79.553Z" opacity="0.3" fill="url(#esrWKDHfNyU66-fill)"/><path id="esrWKDHfNyU67" d="M461.921,141.266c-7.728,4.466-19.431,4.94-26.119,1.073-6.687-3.866-5.851-10.62,1.877-15.087c7.729-4.466,19.432-4.955,26.119-1.088c6.688,3.866,5.867,10.636-1.877,15.102Z" transform="translate(.05922 72.620682)" opacity="0.5" fill="none" stroke="#ffd562" stroke-width="0.48" stroke-miterlimit="10"/><path id="esrWKDHfNyU68" d="M461.921,169.546c-7.728,4.466-19.431,4.955-26.119,1.089-6.687-3.866-5.851-10.637,1.877-15.103c7.729-4.466,19.432-4.955,26.119-1.073c6.688,3.882,5.867,10.621-1.877,15.087Z" transform="translate(.05922 44.335095)" opacity="0.5" fill="none" stroke="#ffd562" stroke-width="0.48" stroke-miterlimit="10"/><path id="esrWKDHfNyU69" d="M461.921,197.4c-7.728,4.466-19.431,4.955-26.119,1.089-6.687-3.867-5.851-10.637,1.877-15.103c7.729-4.466,19.432-4.955,26.119-1.073c6.688,3.882,5.867,10.621-1.877,15.087Z" transform="translate(.05922 16.481099)" opacity="0.5" fill="none" stroke="#ffd562" stroke-width="0.48" stroke-miterlimit="10"/><path d="M398.392,253.755c-1.08-.008-2.129-.371-2.984-1.033-.854-.661-1.469-1.585-1.748-2.63-.279-1.044-.208-2.152.202-3.152.41-1.001,1.138-1.839,2.07-2.386l7.728-4.45c1.126-.602,2.442-.742,3.67-.392c1.228.351,2.271,1.166,2.91,2.272.638,1.106.822,2.417.513,3.656-.309,1.24-1.088,2.31-2.172,2.986l-7.728,4.466c-.749.431-1.597.66-2.461.663Z" fill="#fff"/><path d="M423.216,269.062c-1.087.005-2.145-.35-3.009-1.011-.864-.66-1.485-1.589-1.766-2.64-.281-1.05-.207-2.165.212-3.169s1.159-1.841,2.103-2.38l7.713-4.466c1.131-.653,2.476-.829,3.737-.491c1.262.339,2.337,1.166,2.989,2.298.653,1.132.829,2.477.491,3.739-.339,1.263-1.165,2.339-2.296,2.992l-7.729,4.466c-.743.431-1.586.659-2.445.662Z" fill="#fff"/><path d="M397.067,249.715v37.449L291.582,348.537" fill="none" stroke="#ec6a15" stroke-width="2.5" stroke-linecap="round" stroke-linejoin="round"/><path d="M421.892,265.022v37.434L294.547,376.469" fill="none" stroke="#ec6a15" stroke-width="2.5" stroke-linecap="round" stroke-linejoin="round"/><path id="esrWKDHfNyU74" d="M421.893,275.022v1" transform="translate(-.001005-10.500003)" fill="none" stroke="#fff" stroke-width="2.5" stroke-linecap="round" stroke-linejoin="round"/><path id="esrWKDHfNyU75" d="M397,267v1" transform="translate(.067-17.785)" fill="none" stroke="#fff" stroke-width="2.5" stroke-linecap="round" stroke-linejoin="round"/><path d="M149.158,260.588c-.865.008-1.717-.221-2.461-.663l-7.728-4.466c-1.084-.675-1.862-1.746-2.172-2.985-.309-1.24-.125-2.551.513-3.657.639-1.106,1.683-1.921,2.91-2.271c1.228-.351,2.544-.211,3.67.391l7.728,4.466c.937.543,1.669,1.379,2.082,2.38s.486,2.11.206,3.156c-.281,1.046-.898,1.97-1.756,2.63s-1.91,1.018-2.992,1.019Z" fill="#fff"/><path d="M124.332,275.848c-.86.006-1.705-.223-2.445-.662l-7.728-4.466c-.582-.312-1.096-.737-1.51-1.251-.415-.514-.722-1.106-.903-1.741s-.233-1.3-.152-1.955.293-1.288.623-1.86.772-1.071,1.299-1.469c.527-.397,1.128-.684,1.769-.844.64-.16,1.306-.19,1.958-.087.652.102,1.277.335,1.837.685l7.728,4.466c.938.543,1.67,1.381,2.084,2.383.413,1.002.484,2.113.202,3.16-.283,1.047-.902,1.971-1.763,2.63-.861.658-1.915,1.014-2.999,1.011Z" fill="#fff"/><path d="M150.5,256.564v37.433l105.485,61.389" fill="none" stroke="#ec6a15" stroke-width="2.5" stroke-linecap="round" stroke-linejoin="round"/><path d="M126,271.872v37.433l60,39.232002" fill="none" stroke="#ec6a15" stroke-width="2.5" stroke-linecap="round" stroke-linejoin="round"/><path d="M390.725,363.529l-98.261-57.191c-3.483-2.016-7.435-3.077-11.458-3.077-4.024,0-7.976,1.061-11.459,3.077L165.04,366.717l-8.706-1.768v11.221c-.006,1.345.346,2.668,1.02,3.833.673,1.164,1.644,2.129,2.813,2.795l112.472,65.397c3.479,2.016,7.429,3.077,11.45,3.077s7.971-1.061,11.451-3.077L404.936,385.07c1.166-.668,2.133-1.633,2.804-2.798.671-1.164,1.02-2.486,1.013-3.83v-11.22l-18.028-3.693Z" fill="#035295"/><path d="M160.215,371.593L272.687,436.99c3.48,2.016,7.429,3.078,11.45,3.078s7.971-1.062,11.451-3.078l109.396-63.124c1.163-.674,2.128-1.642,2.798-2.807.671-1.165,1.024-2.485,1.024-3.829c0-1.345-.353-2.665-1.024-3.83-.67-1.165-1.635-2.132-2.798-2.806L292.512,295.196c-3.482-2.015-7.435-3.077-11.458-3.077-4.024,0-7.976,1.062-11.459,3.077l-109.38,63.125c-1.167.671-2.136,1.638-2.809,2.803-.674,1.165-1.029,2.487-1.029,3.833s.355,2.668,1.029,3.834c.673,1.165,1.642,2.131,2.809,2.802Z" fill="#4266b6"/><path d="M255.243,426.843l27.365-15.15-79.193-45.907-27.349,15.15l79.177,45.907Z" opacity="0.1" fill="url(#esrWKDHfNyU82-fill)"/><path d="M203.414,271.509l79.192,45.749l81.417-47.043-79.177-45.734-81.432,47.028Z" fill="#4266b6"/><path d="M203.414,271.509v94.356l79.192,45.734v-94.341l-79.192-45.749Z" fill="#62a9f5"/><path d="M282.607,411.599l81.417-47.029v-94.355l-81.417,47.043v94.341Z" fill="#a4d0fa"/><path d="M273.38,328.873v26.308l-63.909-36.913v-26.323l63.909,36.928Z" fill="#4266b6"/><path d="M266.788,335.707l-4.038-2.336v-2.446l4.038,2.32v2.462Z" fill="#fff"/><path d="M245.811,321.14v2.447l-4.038-2.32v-2.462l4.038,2.335Z" fill="#fff"/><path d="M256.802,329.946l-1.845-1.073v-5.381l1.845,1.073v5.381Z" fill="#fff"/><path d="M250.825,318.868l1.294,2.493-1.546,1.168l1.546,2.967-1.294.994-2.854-5.46l2.854-2.162Z" fill="#fff"/><path d="M260.89,332.298l-2.019-1.152v-2.462l2.019,1.168v2.446Z" fill="#fff"/><path d="M256.094,341.64l-4.037-2.335v-2.446l4.037,2.319v2.462Z" fill="#fff"/><path d="M267.088,347.984l-1.846-1.057v-5.381l1.846,1.057v5.381Z" fill="#fff"/><path d="M247.544,331.319l1.845,1.058v2.935v2.446l-1.845-1.057-2.192-1.263v-2.462l2.192,1.263v-2.92Z" fill="#fff"/><path d="M261.093,336.906l1.309,2.493-1.561,1.168l1.561,2.983-1.309.978-2.855-5.46h.016-.016l2.855-2.162Z" fill="#fff"/><path d="M243.492,331.903v2.462l-2.019-1.168v-2.461l2.019,1.167Z" fill="#fff"/><path d="M237.625,319.042l-4.021-2.336v-2.462l4.021,2.336v2.462Z" fill="#fff"/><path d="M216.663,304.476v2.446l-4.038-2.32v-2.462l4.038,2.336Z" fill="#fff"/><path d="M227.658,313.281l-1.846-1.073v-5.381l1.846,1.057v5.397Z" fill="#fff"/><path d="M221.663,302.203l1.309,2.478-1.561,1.183l1.561,2.967-1.309.979-2.839-5.445l2.839-2.162Z" fill="#fff"/><path d="M231.742,315.633l-2.019-1.168v-2.446l2.019,1.168v2.446Z" fill="#fff"/><path d="M226.946,324.975l-4.038-2.335v-2.462l4.038,2.335v2.462Z" fill="#fff"/><path d="M237.939,331.319l-1.845-1.057v-5.381l1.845,1.057v5.381Z" fill="#fff"/><path d="M218.397,314.654l1.846,1.058v2.935v2.446l-1.846-1.057-2.192-1.263v-2.462l2.192,1.263v-2.92Z" fill="#fff"/><path d="M231.947,320.241l1.309,2.493-1.562,1.168l1.562,2.967-1.309.994-2.855-5.46l2.855-2.162Z" fill="#fff"/><path d="M214.345,315.238v2.446l-2.019-1.152v-2.461l2.019,1.167Z" fill="#fff"/><path d="M218.634,357.532c-1.087.005-2.145-.351-3.009-1.011-.864-.661-1.485-1.589-1.766-2.64s-.207-2.165.212-3.169s1.158-1.841,2.103-2.38l7.728-4.451c.561-.349,1.185-.582,1.837-.685.652-.102,1.318-.073,1.958.087.641.16,1.242.448,1.77.845.527.398.968.897,1.299,1.469.33.572.542,1.204.623,1.86.08.655.029,1.32-.152,1.955-.182.635-.489,1.227-.903,1.741-.415.514-.929.939-1.511,1.25l-7.728,4.466c-.75.429-1.597.658-2.461.663Z" fill="#fff"/><path d="M243.461,372.824c-1.084.002-2.138-.353-2.999-1.012-.861-.658-1.481-1.583-1.763-2.629-.282-1.047-.211-2.158.202-3.16.413-1.003,1.146-1.84,2.083-2.384l7.729-4.466c1.131-.653,2.476-.829,3.737-.49c1.262.339,2.337,1.165,2.99,2.297.652,1.132.828,2.478.49,3.74-.339,1.262-1.165,2.338-2.296,2.991l-7.729,4.466c-.745.424-1.587.647-2.444.647Z" fill="#fff"/><path d="M217,353.35v37.433l-79.689999,45.261" fill="none" stroke="#ec6a15" stroke-width="2.5" stroke-linecap="round" stroke-linejoin="round"/><path d="M242,368.658v37.433l-96.443999,53.356" fill="none" stroke="#ec6a15" stroke-width="2.5" stroke-linecap="round" stroke-linejoin="round"/><path d="M349.528,357.374c-.862.003-1.71-.22-2.46-.647l-7.728-4.466c-1.132-.653-1.958-1.729-2.297-2.991-.338-1.262-.162-2.607.491-3.74.652-1.132,1.728-1.958,2.989-2.297c1.262-.339,2.606-.162,3.738.491l7.728,4.466c.936.542,1.668,1.379,2.082,2.379.413,1.001.485,2.11.205,3.156s-.897,1.971-1.755,2.63c-.859.66-1.91,1.018-2.993,1.019Z" fill="#fff"/><path d="M351,353.35v37.433l54.316,31.799002" fill="none" stroke="#ec6a15" stroke-width="2.5" stroke-linecap="round" stroke-linejoin="round"/><path d="M323.702,372.682c-.865.008-1.716-.221-2.46-.663l-7.729-4.45c-1.131-.653-1.957-1.729-2.296-2.991-.338-1.262-.162-2.608.491-3.74.652-1.132,1.727-1.958,2.989-2.297c1.261-.339,2.606-.163,3.737.49l7.729,4.466c.936.543,1.668,1.379,2.081,2.38.414,1.001.486,2.11.206,3.156s-.897,1.97-1.756,2.63c-.858.66-1.909,1.018-2.992,1.019Z" fill="#fff"/><path d="M326,368.658v37.433l79.316,47.131" fill="none" stroke="#ec6a15" stroke-width="2.5" stroke-linecap="round" stroke-linejoin="round"/><path d="M224.849,518.958L101.668,447.643c-2.6036-1.497-5.5538-2.284-8.5565-2.284s-5.9528.787-8.5564,2.284L6.49828,492.746l-6.498171-1.31v8.364c-.006244,1.005.254869,1.994.756544,2.864.501677.871,1.225857,1.593,2.098237,2.091L136.651,582.194c2.598,1.504,5.547,2.296,8.548,2.296c3.002,0,5.951-.792,8.549-2.296l81.7-47.202c.874-.498,1.601-1.219,2.105-2.089.505-.871.769-1.86.766-2.866v-8.364l-13.47-2.715Z" fill="#035295"/><path d="M2.85478,496.391L136.651,573.814c2.598,1.504,5.546,2.296,8.548,2.296s5.951-.792,8.549-2.296l81.7-47.186c.872-.501,1.596-1.222,2.1-2.092.503-.87.768-1.858.768-2.864c0-1.005-.265-1.993-.768-2.863-.504-.87-1.228-1.591-2.1-2.092l-133.78-77.438c-2.6011-1.505-5.5523-2.297-8.5566-2.297-3.0042,0-5.9554.792-8.5564,2.297L2.85478,486.48c-.87166.501-1.59591,1.222-2.099562,2.092-.503657.871-.76889,1.858-.76889,2.864c0,1.005.265233,1.993.76889,2.863s1.227902,1.592,2.099562,2.092Z" fill="#4266b6"/><path d="M36.7012,435.176l50.9285,29.416l52.3643-30.253-50.9132-29.416-52.3796,30.253Z" fill="#4266b6"/><path d="M36.793,435.117v60.679l50.9285,29.416v-60.679L36.793,435.117Z" fill="#005dab"/><path d="M87.7227,525.212l52.3633-30.253v-60.679L87.7227,464.533v60.679Z" fill="#005dab"/><path d="M106.983,442.451c-11.3085,6.533-28.3899,7.243-38.216,1.578-9.8261-5.666-8.5643-15.545,2.7444-22.094s28.39-7.243,38.2166-1.578c9.826,5.666,8.564,15.56-2.745,22.094Z" opacity="0.2" fill="#b18fff"/><path d="M101.385,439.2c-7.7443,4.466-19.4316,4.955-26.1348,1.089-6.7032-3.867-5.8515-10.621,1.8769-15.087s19.4314-4.955,26.1189-1.089c6.687,3.866,5.867,10.621-1.861,15.087Z" opacity="0.5" fill="#b18fff"/><path d="M116.672,436.489v-108.295l-54.6262,3.463v107.538c-.2707,2.371,1.9112,4.663,6.6412,6.355c9.8899,3.532,27.1696,3.089,38.588-.984c6.466-2.312,9.667-5.283,9.397-8.077Z" opacity="0.3" fill="url(#esrWKDHfNyU122-fill)"/><path d="M108.278,340.232c0-1.529-1.614-3.017-4.631-4.074-6.842-2.464-18.8151-2.152-26.722.694-4.5988,1.65-6.8095,3.802-6.4545,5.794v93.839c-.2421,1.69,1.2586,3.329,4.5989,4.536c6.8579,2.464,18.8149,2.152,26.7376-.694c4.357-1.569,6.568-3.581,6.455-5.492v-94.603h.016Z" opacity="0.1" fill="#4266b6"/><path d="M99.1759,345.933c-.0657-.733-.3233-1.435-.747-2.037-.4237-.601-.9984-1.08-1.6662-1.388-3.596-2.067-9.8734-1.815-14.0057.584-2.4132,1.389-3.5803,3.156-3.4226,4.877v78.906c-.0196.804.1991,1.595.6286,2.275s1.0504,1.217,1.7846,1.544c3.5803,2.067,9.8576,1.815,14.0057-.584c2.287-1.326,3.4541-3.014,3.4226-4.624v-79.553Z" opacity="0.4" fill="url(#esrWKDHfNyU124-fill)"/><path id="esrWKDHfNyU125" d="M101.385,358.81c-7.7443,4.466-19.4316,4.956-26.1348,1.089-6.7032-3.866-5.8515-10.621,1.8769-15.087s19.4314-4.955,26.1189-1.089c6.687,3.867,5.867,10.621-1.861,15.087Z" transform="translate(-.000605 80.389787)" opacity="0.5" fill="none" stroke="#b18fff" stroke-width="0.48" stroke-miterlimit="10"/><path id="esrWKDHfNyU126" d="M101.385,387.106c-7.7443,4.466-19.4316,4.94-26.1348,1.073-6.7032-3.866-5.8515-10.621,1.8769-15.087s19.4314-4.955,26.1189-1.089c6.687,3.867,5.867,10.637-1.861,15.103Z" transform="translate(-.000605 52.106355)" opacity="0.5" fill="none" stroke="#b18fff" stroke-width="0.48" stroke-miterlimit="10"/><path id="esrWKDHfNyU127" d="M101.385,414.96c-7.7443,4.466-19.4316,4.939-26.1348,1.073s-5.8515-10.621,1.8769-15.087s19.4314-4.955,26.1189-1.089c6.687,3.867,5.867,10.637-1.861,15.103Z" transform="translate(-.000605 24.252549)" opacity="0.5" fill="none" stroke="#b18fff" stroke-width="0.48" stroke-miterlimit="10"/><path d="M540.562,477.99l-73.419-42.751c-2.601-1.505-5.553-2.297-8.557-2.297s-5.955.792-8.556,2.297l-78.057,45.087-6.498-1.31v8.38c-.007,1.005.255,1.993.756,2.864.502.871,1.226,1.593,2.098,2.091l84.003,48.922c2.601,1.504,5.553,2.296,8.557,2.296s5.955-.792,8.556-2.296l81.701-47.202c.872-.498,1.596-1.22,2.098-2.091.501-.87.763-1.859.756-2.864v-8.364l-13.438-2.762Z" fill="#035295"/><path d="M368.328,484.003l84.003,48.922c2.601,1.504,5.552,2.296,8.557,2.296c3.004,0,5.955-.792,8.556-2.296l81.7-47.186c.868-.504,1.588-1.227,2.089-2.096.5-.87.764-1.856.764-2.86c0-1.003-.264-1.989-.764-2.859-.501-.87-1.221-1.592-2.089-2.096l-84.003-48.843c-2.601-1.504-5.552-2.296-8.556-2.296s-5.956.792-8.557,2.296l-81.7,47.186c-.853.506-1.56,1.225-2.051,2.087s-.75,1.837-.75,2.829.259,1.967.75,2.829s1.198,1.581,2.051,2.087Z" fill="#4266b6"/><path d="M484.238,524.308l-28.011-16.192l52.363-30.252l28.012,16.176-52.364,30.268Z" opacity="0.1" fill="url(#esrWKDHfNyU130-fill)"/><path d="M484.729,504.581l17.16,9.564l15.598-9.011-8.138-4.498-24.62,3.945Z" opacity="0.1" fill="#fff"/><path d="M405.316,418.021l50.913,29.417l52.364-30.253-50.913-29.416-52.364,30.252Z" fill="#035295"/><path d="M405.316,418.021v60.679l50.913,29.416v-60.678l-50.913-29.417Z" fill="#215e91"/><path d="M456.227,508.117l52.363-30.253v-60.679l-52.363,30.253v60.679Z" fill="#215e91"/><path d="M475.58,425.297c-11.309,6.533-28.39,7.243-38.2,1.578-9.811-5.666-8.565-15.545,2.744-22.094s28.39-7.244,38.201-1.578c9.81,5.665,8.611,15.56-2.745,22.094Z" opacity="0.2" fill="#33c2d9"/><path d="M469.981,422.046c-7.745,4.466-19.432,4.955-26.135,1.089-6.703-3.867-5.852-10.621,1.877-15.087c7.728-4.466,19.431-4.956,26.134-1.089c6.704,3.866,5.852,10.621-1.876,15.087Z" opacity="0.5" fill="#33d9b2"/><path d="M476.369,264.991c0-2.399-1.577-4.734-4.511-6.391-6.703-3.867-18.406-3.378-26.134,1.088-4.495,2.589-6.656,5.966-6.309,9.09v147.239c-.237,2.651,1.23,5.224,4.495,7.118c6.703,3.866,18.391,3.377,26.135-1.089c4.258-2.462,6.419-5.618,6.387-8.617v-148.438h-.063Z" opacity="0.3" fill="url(#esrWKDHfNyU137-fill)"/><path d="M484.607,419.483v-110.195l-53.581,3.523v109.425c-.25,2.412,1.873,4.745,6.525,6.467c9.696,3.593,26.619,3.143,37.813-1.001c6.354-2.353,9.477-5.376,9.243-8.219Z" opacity="0.1" fill="url(#esrWKDHfNyU138-fill)"/><path d="M467.789,328.779c-.071-.733-.333-1.435-.759-2.036-.426-.6-1.002-1.079-1.67-1.389-3.596-2.067-9.857-1.815-14.005.584-2.413,1.389-3.581,3.156-3.423,4.876v78.906c-.02.804.199,1.596.629,2.276.429.679,1.05,1.217,1.784,1.544c3.596,2.067,9.858,1.814,14.006-.584c2.287-1.326,3.454-3.015,3.438-4.624v-79.553Z" opacity="0.3" fill="url(#esrWKDHfNyU139-fill)"/><path id="esrWKDHfNyU140" d="M469.981,341.656c-7.745,4.466-19.432,4.955-26.135,1.089s-5.852-10.621,1.877-15.087c7.728-4.466,19.431-4.955,26.134-1.089c6.704,3.867,5.852,10.621-1.876,15.087Z" transform="translate(-.897246 76.942002)" opacity="0.5" fill="none" stroke="#4266b6" stroke-width="0.48" stroke-miterlimit="10"/><path id="esrWKDHfNyU141" d="M469.981,369.952c-7.745,4.466-19.432,4.939-26.135,1.073s-5.852-10.621,1.877-15.087c7.728-4.466,19.431-4.955,26.134-1.089c6.704,3.867,5.852,10.637-1.876,15.103Z" transform="translate(-.897246 48.658555)" opacity="0.5" fill="none" stroke="#4266b6" stroke-width="0.48" stroke-miterlimit="10"/><path id="esrWKDHfNyU142" d="M469.981,397.806c-7.745,4.466-19.432,4.955-26.135,1.073s-5.852-10.621,1.877-15.087c7.728-4.466,19.431-4.955,26.134-1.089c6.704,3.866,5.852,10.637-1.876,15.103Z" transform="translate(-.897246 20.801301)" opacity="0.5" fill="none" stroke="#4266b6" stroke-width="0.48" stroke-miterlimit="10"/><path d="M291.582,328.873v26.308l63.909-36.913v-26.323l-63.909,36.928Z" fill="#4266b6"/><path d="M298.191,335.707l4.022-2.336v-2.446l-4.022,2.32v2.462Z" fill="#fff"/><path d="M319.15,321.14v2.447l4.038-2.32v-2.462l-4.038,2.335Z" fill="#fff"/><path d="M308.158,329.946l1.846-1.073v-5.381l-1.846,1.073v5.381Z" fill="#fff"/><path d="M314.153,318.868l-1.309,2.493l1.561,1.168-1.561,2.967l1.309.994l2.839-5.46-2.839-2.162Z" fill="#fff"/><path d="M304.072,332.298l2.019-1.152v-2.462l-2.019,1.168v2.446Z" fill="#fff"/><path d="M308.867,341.64l4.038-2.335v-2.446l-4.038,2.319v2.462Z" fill="#fff"/><path d="M297.875,347.984l1.845-1.057v-5.381l-1.845,1.057v5.381Z" fill="#fff"/><path d="M317.416,331.319l-1.846,1.058v2.935v2.446l1.846-1.057l2.192-1.263v-2.462l-2.192,1.263v-2.92Z" fill="#fff"/><path d="M303.868,336.906l-1.309,2.493l1.561,1.168-1.561,2.983l1.309.978l2.854-5.46-2.854-2.162Z" fill="#fff"/><path d="M321.471,331.903v2.462l2.019-1.168v-2.461l-2.019,1.167Z" fill="#fff"/><path d="M327.322,319.042l4.038-2.336v-2.462l-4.038,2.336v2.462Z" fill="#fff"/><path d="M348.299,304.476v2.446l4.038-2.32v-2.462l-4.038,2.336Z" fill="#fff"/><path d="M337.305,313.281l1.845-1.073v-5.381l-1.845,1.057v5.397Z" fill="#fff"/><path d="M343.297,302.203l-1.309,2.478l1.562,1.183-1.562,2.967l1.309.979l2.855-5.445-2.855-2.162Z" fill="#fff"/><path d="M333.219,315.633l2.019-1.168v-2.446l-2.019,1.168v2.446Z" fill="#fff"/><path d="M338.016,324.975l4.037-2.335v-2.462l-4.037,2.335v2.462Z" fill="#fff"/><path d="M327.021,331.319l1.846-1.057v-5.381l-1.846,1.057v5.381Z" fill="#fff"/><path d="M346.564,314.654l-1.845,1.058v2.935v2.446l1.845-1.057l2.192-1.263v-2.462l-2.192,1.263v-2.92Z" fill="#fff"/><path d="M333.014,320.241l-1.309,2.493l1.562,1.168-1.562,2.967l1.309.994l2.855-5.46-2.855-2.162Z" fill="#fff"/><path d="M350.617,315.238v2.446l2.019-1.152v-2.461l-2.019,1.167Z" fill="#fff"/><path d="M462.047,448.89v11.599l8.091,4.671-8.091-16.27Z" fill="#62a9f5"/><path d="M462.047,448.89l39.21-22.015l8.091,16.27-39.21,22.015-8.091-16.27Z" fill="#dbecfd"/><path d="M509.316,403.676c0,0,3.864,1.578,4.81,4.735.947,3.156,1.436,16.27.821,17.627-.615,1.358-7.256,4.309-7.256,4.309l1.625-26.671Z" fill="#4266b6"/><path d="M490.423,386.854c0,0-.583,8.79,0,10.431.584,1.641,3.36,2.383,3.36,2.383s1.151-10.431,1.072-10.763c-1.42-.801-2.902-1.487-4.432-2.051Z" fill="#ffad91"/><path d="M510.673,495.476c0,0,1.104,6.565,0,7.89-1.033,1.011-2.388,1.628-3.829,1.743-1.44.115-2.876-.278-4.057-1.111-2.227-1.731-4.78-2.992-7.507-3.709-1.071-.268-2.019-.891-2.69-1.769-.67-.877-1.023-1.956-1.001-3.06.126-2.052,11.04-1.436,11.04-1.436l8.044,1.452Z" fill="#131313"/><path d="M501.651,500.526c0,0,1.12,6.565,0,7.89-1.034,1.012-2.39,1.627-3.831,1.74-1.442.112-2.877-.286-4.055-1.124-2.231-1.72-4.784-2.975-7.507-3.693-1.068-.273-2.013-.898-2.683-1.774-.669-.876-1.025-1.952-1.008-3.055.126-2.067,10.946-1.436,10.946-1.436l8.138,1.452Z" fill="#131313"/><path d="M489.729,474.692l1.104,27.791c1.872,1.022,4.018,1.43,6.135,1.167c4.038-.82,4.732-3.156,4.732-3.156v-2.446c0,0,.914.821,4.274.331.96-.122,1.886-.44,2.718-.934.833-.494,1.556-1.153,2.124-1.938l.41-26.749-21.497,5.934Z"/><path d="M503.151,498.506l.52-26.244-1.719,2.051-.3,23.672.142.095c.416.24.879.385,1.357.426Z" fill="#4266b6"/><path d="M509.317,403.676c0,0,3.407,1.578,3.296,7.118-.11,5.539-2.965,16.617-2.712,19.205.252,2.588,2.018,7.891,2.712,14.598s1.578,22.646,1.578,22.646-3.533,4.892-12.177,7.038c-8.643,2.147-13.296,0-13.296,0s-.126-28.863.694-33.14c.821-4.277-3.564-10.337-2.129-17.359c1.435-7.023,2.05-14.03,2.05-14.03s17.681-8.49,19.984-6.076Z" fill="#fff"/><path d="M492.505,389.647c-.864-.211-1.664-.627-2.334-1.212s-1.189-1.322-1.515-2.15c-.867-2.714-.615-6.643,1.924-8.379c2.49-1.792,5.574-2.555,8.612-2.131c2.792.584,11.813,4.592,12.618,11.047.804,6.454-1.577,11.741-.978,17.738s.725,8.112-.663,12.136c-.279,1.074-.801,2.069-1.526,2.909-.724.84-1.632,1.502-2.653,1.936-1.772-.183-3.484-.739-5.025-1.631-1.542-.892-2.877-2.1-3.918-3.546-1.958-2.35-3.5-5.019-4.558-7.89l-3.155,1.294c.578-1.891,1.317-3.728,2.208-5.492c1.262-2.478.963-13.809.963-14.629Z"/><path d="M489.271,409.752c0,0,4.022-.536,4.731,4.261.71,4.797.726,21.305,0,22.899-.725,1.593-12.807,9.121-12.807,9.121l-5.031-6.77l9.716-7.023c0,0,0-16.254.489-18.59.121-.84.45-1.637.956-2.317.507-.681,1.176-1.224,1.946-1.581Z" fill="#4266b6"/><path d="M476.195,439.263c-1.206.929-2.223,2.081-2.997,3.393-1.072,1.973-.583,5.429.331,5.586.915.158,2.776.158,3.155-.568.23-.373.37-.794.41-1.231.631.134,1.288.045,1.861-.252c1.577-.631,1.23-1.578,1.23-1.578l-3.99-5.35Z" fill="#ffad91"/><path d="M123.291,531.22c.052,1.381-.241,2.753-.852,3.993-1.041,2.272-3.154,2.462-5.41,1.325-2.255-1.136-3.896-3.456-5.788-4.087-1.893-.631-9.905-5.16-9.464-8.017.442-2.856,12.949-.521,16.262,1.468c2.113,1.373,3.904,3.188,5.252,5.318Z" fill="#252525"/><path d="M141.887,486.338l5.883-3.424l3.438,1.973-5.899,3.424-3.422-1.973Z" fill="#d1ccc0"/><path d="M127.172,467.638l-2.934,5.649v10.463l6.262-3.629l10.804-20.674-14.132,8.191Z" opacity="0.1" fill="#f7f1e3"/><path d="M146.003,468.143v-10.021c.001-.197-.071-.386-.203-.532-.131-.146-.312-.238-.507-.258l-10.678,20.406l9.132-5.303l2.256-4.292Z" opacity="0.1" fill="#f7f1e3"/><path d="M157.549,444.849v-5.602c0,0,3.312.237,3.596,2.509.284,2.273-.726,5.24-2.571,5.666-1.009.237-1.025-2.573-1.025-2.573Z" fill="#e69c83"/><path id="esrWKDHfNyU181" d="M351,363.482v1" transform="translate(54.316 58.600007)" fill="none" stroke="#fff" stroke-width="2.5" stroke-linecap="round" stroke-linejoin="round"/><path id="esrWKDHfNyU182" d="M326,386v1" transform="translate(79.316 66.722)" fill="none" stroke="#fff" stroke-width="2.5" stroke-linecap="round" stroke-linejoin="round"/><path id="esrWKDHfNyU183" d="M242,386v1" transform="translate(-96.443999 72.947)" fill="none" stroke="#fff" stroke-width="2.5" stroke-linecap="round" stroke-linejoin="round"/><path id="esrWKDHfNyU184" d="M217,386v1" transform="translate(-79.689999 49.544)" fill="none" stroke="#fff" stroke-width="2.5" stroke-linecap="round" stroke-linejoin="round"/><path id="esrWKDHfNyU185" style="isolation:isolate" d="M126,294v1" transform="translate(0-22.628)" opacity="0.9" fill="none" stroke="#fff" stroke-width="2.5" stroke-linecap="round" stroke-linejoin="round"/><path d="M158.481,344.607v-194.109c-.001-2.628.689-5.211,2.001-7.488s3.201-4.168,5.475-5.484L394.102,5.73696c.677-.39222,1.44-.61048,2.222-.63527s1.557.14468,2.258.49325l-7.54-4.33984c-.732-.471415-1.581-.731189-2.452-.750681s-1.731.202054-2.484.640211L157.976,132.918c-2.274,1.315-4.162,3.207-5.475,5.484-1.312,2.277-2.002,4.86-2.001,7.488v194.109c-.003.924.264,1.829.768,2.603.505.774,1.225,1.383,2.071,1.753l7.224,4.182c-.642-.435-1.168-1.02-1.531-1.705s-.552-1.449-.551-2.225Z" fill="#343434"/><g transform="translate(.000001 0)"><path d="M158.481,150.498v194.109c-.011.841.202,1.67.617,2.401.415.732,1.018,1.339,1.745,1.76.728.421,1.554.641,2.395.636s1.665-.233,2.388-.662L393.771,216.953c2.272-1.318,4.159-3.21,5.471-5.487c1.312-2.276,2.003-4.857,2.005-7.485v-194.10934c.009-.83965-.207-1.66638-.623-2.39544s-1.019-1.33422-1.746-1.75341-1.553-.63734-2.392-.63208-1.662.23375-2.384.66203L165.957,137.526c-2.274,1.316-4.162,3.207-5.475,5.484-1.312,2.277-2.002,4.86-2.001,7.488Z" fill="#252525"/><path d="M347.368,221.924c-10.457,0-17.223-9.374-17.223-23.893c0-18.732,11.497-40.605,25.629-48.764c3.29-2.04,7.062-3.167,10.931-3.267c10.472,0,17.239,9.375,17.239,23.893c0,18.733-11.498,40.605-25.63,48.764-3.299,2.031-7.074,3.158-10.946,3.267Zm19.337-70.747c-2.976.11-5.87,1.002-8.391,2.588-12.728,7.338-23.075,27.238-23.075,44.345c0,11.426,4.732,18.796,12.129,18.796c2.981-.108,5.881-1,8.406-2.589c12.729-7.338,23.075-27.238,23.075-44.345c0-11.504-4.763-18.795-12.144-18.795Z" opacity="0.4" fill="#59a3f5"/><path d="M367.524,177.91c0,7.717-4.732,16.681-10.489,20.027-5.757,3.345-10.473-.206-10.473-7.891c0-7.686,4.732-16.681,10.473-20.026c5.741-3.346,10.489.173,10.489,7.89Z" opacity="0.7" fill="#4266b6"/><path d="M347.351,224.481c-3.084.016-6.116-.79-8.785-2.336-6.971-4.024-11.041-12.814-11.041-24.114c0-1.352.537-2.648,1.493-3.604.955-.956,2.251-1.493,3.602-1.493s2.647.537,3.602,1.493c.956.956,1.492,2.252,1.492,3.604c0,7.449,2.208,13.162,5.883,15.292c3.675,2.131,7.886.442,10.836-1.278c11.813-6.833,21.813-26.134,21.813-42.152c0-7.448-2.208-13.177-5.883-15.292-3.675-2.114-7.886-.442-10.836,1.279-1.165.62-2.526.764-3.796.4-1.269-.363-2.348-1.206-3.008-2.35-.661-1.144-.852-2.5-.533-3.782s1.123-2.39,2.243-3.09c7.492-4.34,14.968-4.735,21.024-1.294c6.972,4.04,11.041,12.83,11.041,24.129c0,19.869-11.829,42.262-26.908,50.974-3.69,2.262-7.912,3.509-12.239,3.614Z" transform="translate(0-.621022)" opacity="0.7" fill="#4266b6"/><path d="M300.036,106.768c0,0-14.921,41.915-34.699,50.043-9.574,3.929-24.983-7.307-37.854,1.72-14.195,9.958-18.926,24.003-28.658,32.414-13.075,11.237-18.311,3.725-18.311,3.725v36.423L300.036,162.05v-55.282Z" opacity="0.1" fill="#fff"/><path d="M300.036,135.048c-16.466,7.26-23.784-36.7384-34.383-19.363-10.599,17.375-18.312,65.871-35.425,76.397s-24.573-18.259-30.835-22.094c-6.261-3.835-18.926,8.332-18.926,8.332v52.725l119.522-69.042.047-26.955Z" transform="translate(0-.621022)" fill="#4266b6"/><path d="M180.514,178.368c0,0,12.617-12.104,18.926-8.333c6.309,3.772,13.738,32.573,30.835,22.094s24.826-59.022,35.425-76.397c10.598-17.3751,17.917,26.623,34.383,19.364" opacity="0.4" fill="none" stroke="#252525" stroke-width="1.41" stroke-linecap="round" stroke-linejoin="round"/><path d="M300.035,172.008v-85.8183" opacity="0.4" fill="none" stroke="#59a3f5" stroke-width="0.5" stroke-linecap="round" stroke-linejoin="round"/><path d="M180.514,154.93v85.834" opacity="0.4" fill="none" stroke="#4266b6" stroke-width="0.5" stroke-linecap="round" stroke-linejoin="round"/><path d="M180.514,194.383c0,0,5.236,7.512,18.311-3.724c9.795-8.412,14.463-22.457,28.658-32.415c12.871-9.027,28.28,2.21,37.854-1.72c19.778-8.127,34.699-50.042,34.699-50.042" opacity="0.4" fill="none" stroke="#4266b6" stroke-width="0.5" stroke-linecap="round" stroke-linejoin="round"/><path d="M214.014,135.582v85.834" opacity="0.4" fill="none" stroke="#4266b6" stroke-width="0.5" stroke-linecap="round" stroke-linejoin="round"/><path d="M266.535,105.537v85.819" opacity="0.4" fill="none" stroke="#59a3f5" stroke-width="0.5" stroke-linecap="round" stroke-linejoin="round"/><path d="M201.08,153.134l-7.555,4.371v-6.439l7.555-4.355v6.423Z" opacity="0.7" fill="#4266b6"/><path d="M207.5,155.927l-13.975,8.064v-2.572l13.975-8.064v2.572Z" opacity="0.7" fill="#4266b6"/><path d="M243.809,139.199l-7.539,4.371v-6.439l7.539-4.355v6.423Z" opacity="0.7" fill="#4266b6"/><path d="M250.244,141.976l-13.974,8.08v-2.572l13.974-8.08v2.572Z" opacity="0.7" fill="#4266b6"/><path d="M285.903,94.317l-7.555,4.3556v-6.423l7.555-4.3556v6.423Z" opacity="0.7" fill="#4266b6"/><path d="M292.322,97.0945l-13.974,8.0795v-2.572l13.974-8.0799v2.5724Z" opacity="0.7" fill="#4266b6"/><path d="M217.515,244.933l-37.001,21.92v-6.423l37.001-21.936v6.439Z" opacity="0.7" fill="#ec6a15"/><path d="M241.426,244.933L180.514,281.04v-6.438l60.912-36.108v6.439Z" opacity="0.4" fill="#4266b6"/><path d="M241.426,259.105l-60.912,36.107v-6.423l60.912-36.107v6.423Z" opacity="0.4" fill="#4266b6"/><path d="M241.426,273.292l-60.912,36.092v-6.423l60.912-36.108v6.439Z" opacity="0.4" fill="#4266b6"/><path d="M241.426,287.463l-60.912,36.108v-6.439l60.912-36.092v6.423Z" opacity="0.4" fill="#4266b6"/><path d="M293.064,199.909l-36.986,21.936v-6.439l36.986-21.92v6.423Z" opacity="0.7" fill="#ec6a15"/><path d="M316.991,199.909l-60.913,36.108v-6.423l60.913-36.108v6.423Z" opacity="0.4" fill="#4266b6"/><path d="M316.991,214.096l-60.913,36.092v-6.423l60.913-36.107v6.438Z" opacity="0.4" fill="#4266b6"/><path d="M316.991,228.268l-60.913,36.107v-6.438l60.913-36.092v6.423Z" opacity="0.4" fill="#4266b6"/><path d="M316.991,242.44l-60.913,36.107v-6.423l60.913-36.107v6.423Z" opacity="0.4" fill="#4266b6"/><path d="M360.033,63.7487L323.047,85.6689v-6.423L360.033,57.31v6.4387Z" opacity="0.8" fill="#ec6a15"/><path d="M383.959,63.7487L323.047,99.8562v-6.4388L383.959,57.31v6.4387Z" opacity="0.7" fill="#4266b6"/><path d="M383.959,77.9203L323.047,114.028v-6.439l60.912-36.0917v6.423Z" opacity="0.7" fill="#4266b6"/><path d="M383.959,92.0918L323.047,128.199v-6.423l60.912-36.1071v6.4229Z" opacity="0.7" fill="#4266b6"/><path d="M383.959,106.279l-60.912,36.108v-6.439l60.912-36.0918v6.4228Z" opacity="0.7" fill="#4266b6"/></g><g><path d="M160.009,481.004l-13.044-7.527-20.835,12.025l20.362-29.984-.788-.442c-.336-.202-.721-.308-1.112-.308-.392,0-.776.106-1.112.308l-20.504,11.867c-.356.208-.651.505-.856.862s-.312.762-.311,1.174v16.523c.001.342.092.679.263.975.172.296.418.542.714.714l14.369,8.253c.283.164.604.25.931.25.326,0,.647-.086.93-.25l22.081-12.735c.106-.063.191-.153.247-.262s.08-.232.069-.354v-1.247l-1.404.158Z" fill="#62a9f5"/><path d="M123.008,485.881l14.069,8.127c.285.163.609.249.938.249s.653-.086.939-.249l22.081-12.735c.098-.055.18-.135.238-.232.057-.097.087-.208.087-.321c0-.112-.03-.223-.087-.32-.058-.097-.14-.178-.238-.232l-14.038-8.112-23.989,13.825Z" fill="#dbecfd"/><path d="M123.008,485.881v-16.318c.005-.336.096-.664.264-.954.169-.291.409-.533.698-.703l21.545-12.436c.146-.086.313-.132.484-.133.17-.001.337.043.485.128s.27.208.355.356c.084.148.128.315.127.486v15.781l-23.958,13.793Z" fill="#4266b6"/><path d="M124.176,483.766v-13.493c-.001-.278.071-.551.21-.792.138-.242.338-.442.578-.581l19.795-11.473c.121-.068.259-.104.399-.103s.277.038.398.108.222.171.292.292.108.258.109.398v13.019l-21.781,12.625Z" fill="#5ba5f5"/><path d="M126.541,485.47l20.283-11.709l7.082,4.087-20.299,11.71-7.066-4.088Z" fill="#a4d0fa"/></g><g><path d="M154.269,475.181c-1.174-1.237-2.681-2.108-4.338-2.509-1.971-.111-5.599,4.087-5.599,6.312s.568,2.273,1.278,2.352c.709.079,1.135-.995,1.135-.995.463.221.856.565,1.136.995.214.757.713,1.402,1.393,1.799.679.397,1.485.516,2.25.331c2.839-.284,2.745-8.285,2.745-8.285Z" fill="#e69c83"/><g><path d="M141.179,484.382c0,0-2.35-2.399-4.338-2.494-1.987-.095-5.599,4.087-5.599,6.313c0,2.225.568,2.288,1.278,2.351.709.063,1.135-.994,1.135-.994.463.221.856.565,1.136.994.208.762.705,1.414,1.385,1.815.681.401,1.491.52,2.258.331c2.839-.315,2.745-8.316,2.745-8.316Z" fill="#e69c83"/><g><path d="M190.419,506.491l-55.708,5.129v23.04c0,3.662,2.271,7.134,6.782,9.738c10.078,5.823,27.665,5.081,39.304-1.579c6.451-3.724,9.7-8.506,9.606-13.035l.016-23.293Z" fill="#62a9f5"/><path d="M144.252,498.364c-11.625,6.707-12.902,16.87-2.824,22.693c10.079,5.823,27.665,5.097,39.305-1.578c11.64-6.676,12.901-16.886,2.823-22.709-10.079-5.824-27.665-5.145-39.304,1.594Z" fill="#fff"/><path d="M179.472,496.375c0,0,0,8.585-2.24,11.142-2.239,2.556-10.63,8.238-19.589,5.807-8.959-2.43-22.633-6.407-22.633-6.407L123.291,531.22h-.489c-1.725.228-3.472-.227-4.868-1.267s-2.331-2.584-2.608-4.304c0,0,9.464-29.795,14.984-31.704c5.52-1.91,27.238,0,27.238,0l21.924,2.43Z" fill="#252525"/><path d="M156.791,457.001c0,0-5.221,3.346-6.751,6.313-1.529,2.966,2.272,16.854,1.909,23.308-.363,6.455-1.719,9.69-.379,12.341c1.341,2.652,10.426,5.224,17.161,3.709c6.734-1.515,11.387-5.934,11.387-8.017s-.489-8.269-.489-11.883.678-19.616-.836-25.25-8.438-6.423-10.157-6.044c-1.719.378-11.845,5.523-11.845,5.523Z" fill="#fff"/><path d="M152.896,435.065c0,0-1.577,14.045,0,15.955c1.031,1.164,2.389,1.989,3.896,2.367v3.614c2.176.79,4.559.79,6.735,0c4.258-1.247,5.205-3.046,5.205-3.046v-22.977l-15.836,4.087Z" fill="#e69c83"/><path d="M152.896,435.065c-.674-.897-1.128-1.941-1.325-3.046-.473-2.083-.158-7.433,1.325-8.285.409-.213.863-.324,1.325-.324.461,0,.915.111,1.324.324c0,0,.805-1.578,2.019-1.578.366-.011.729.062,1.062.212.334.151.628.375.863.656.07-.365.267-.693.555-.927.289-.233.651-.358,1.022-.351.334-.006.665.067.966.212.302.145.565.359.769.624c0,0,9.463.442,12.192,6.912c2.728,6.471,1.577,17.36-1.325,20.595-1.314,1.452-2.987,2.532-4.85,3.133s-3.851.702-5.765.291c-2.855-.946-5.504-8.632-5.504-8.632l-2.098-.584v-8.253l-2.555-.979Z"/><path d="M141.178,484.381c-.644.178-1.234.516-1.714.982-.479.466-.834,1.046-1.03,1.685-.532,1.862-.532,3.836,0,5.698c0,0,12.76,2.414,15.409.789c2.65-1.626,6.735-14.424,5.978-22.583s-3.154-10.053-6.309-9.469c-3.154.584-4.179,1.909-4.463,6.549s-.284,13.951-1.136,15.387-6.735.962-6.735.962Z" fill="#4266b6"/></g></g></g></g><clipPath id="esrWKDHfNyU239"><rect width="554" height="584" rx="0" ry="0" transform="translate(0 0.481812)" fill="#fff"/></clipPath></g><line x1="0" y1="-79.028128" x2="0" y2="79.028129" transform="matrix(1 0 0 0.641154 449.862107 156.2062)" fill="none" stroke="rgba(64,89,141,0)" stroke-width="3"/><line x1="0.36375" y1="37.37" x2="-0.36375" y2="-37.37" transform="translate(456.59075 374.229)" fill="none" stroke="rgba(63,87,135,0)" stroke-width="3"/>
<script><![CDATA[
!function(t,n){"object"==typeof exports&&"undefined"!=typeof module?module.exports=n():"function"==typeof __SVGATOR_DEFINE__&&__SVGATOR_DEFINE__.amd?__SVGATOR_DEFINE__(n):((t="undefined"!=typeof globalThis?globalThis:t||self).__SVGATOR_PLAYER__=t.__SVGATOR_PLAYER__||{},t.__SVGATOR_PLAYER__["5c7f360c"]=n())}(this,(function(){"use strict";function t(t,n){var e=Object.keys(t);if(Object.getOwnPropertySymbols){var r=Object.getOwnPropertySymbols(t);n&&(r=r.filter((function(n){return Object.getOwnPropertyDescriptor(t,n).enumerable}))),e.push.apply(e,r)}return e}function n(n){for(var e=1;e<arguments.length;e++){var r=null!=arguments[e]?arguments[e]:{};e%2?t(Object(r),!0).forEach((function(t){o(n,t,r[t])})):Object.getOwnPropertyDescriptors?Object.defineProperties(n,Object.getOwnPropertyDescriptors(r)):t(Object(r)).forEach((function(t){Object.defineProperty(n,t,Object.getOwnPropertyDescriptor(r,t))}))}return n}function e(t){return(e="function"==typeof Symbol&&"symbol"==typeof Symbol.iterator?function(t){return typeof t}:function(t){return t&&"function"==typeof Symbol&&t.constructor===Symbol&&t!==Symbol.prototype?"symbol":typeof t})(t)}function r(t,n){if(!(t instanceof n))throw new TypeError("Cannot call a class as a function")}function i(t,n){for(var e=0;e<n.length;e++){var r=n[e];r.enumerable=r.enumerable||!1,r.configurable=!0,"value"in r&&(r.writable=!0),Object.defineProperty(t,r.key,r)}}function u(t,n,e){return n&&i(t.prototype,n),e&&i(t,e),t}function o(t,n,e){return n in t?Object.defineProperty(t,n,{value:e,enumerable:!0,configurable:!0,writable:!0}):t[n]=e,t}function a(t){return(a=Object.setPrototypeOf?Object.getPrototypeOf:function(t){return t.__proto__||Object.getPrototypeOf(t)})(t)}function l(t,n){return(l=Object.setPrototypeOf||function(t,n){return t.__proto__=n,t})(t,n)}function s(){if("undefined"==typeof Reflect||!Reflect.construct)return!1;if(Reflect.construct.sham)return!1;if("function"==typeof Proxy)return!0;try{return Boolean.prototype.valueOf.call(Reflect.construct(Boolean,[],(function(){}))),!0}catch(t){return!1}}function f(t,n,e){return(f=s()?Reflect.construct:function(t,n,e){var r=[null];r.push.apply(r,n);var i=new(Function.bind.apply(t,r));return e&&l(i,e.prototype),i}).apply(null,arguments)}function c(t,n){if(n&&("object"==typeof n||"function"==typeof n))return n;if(void 0!==n)throw new TypeError("Derived constructors may only return object or undefined");return function(t){if(void 0===t)throw new ReferenceError("this hasn't been initialised - super() hasn't been called");return t}(t)}function h(t,n,e){return(h="undefined"!=typeof Reflect&&Reflect.get?Reflect.get:function(t,n,e){var r=function(t,n){for(;!Object.prototype.hasOwnProperty.call(t,n)&&null!==(t=a(t)););return t}(t,n);if(r){var i=Object.getOwnPropertyDescriptor(r,n);return i.get?i.get.call(e):i.value}})(t,n,e||t)}function v(t){return function(t){if(Array.isArray(t))return y(t)}(t)||function(t){if("undefined"!=typeof Symbol&&null!=t[Symbol.iterator]||null!=t["@@iterator"])return Array.from(t)}(t)||function(t,n){if(!t)return;if("string"==typeof t)return y(t,n);var e=Object.prototype.toString.call(t).slice(8,-1);"Object"===e&&t.constructor&&(e=t.constructor.name);if("Map"===e||"Set"===e)return Array.from(t);if("Arguments"===e||/^(?:Ui|I)nt(?:8|16|32)(?:Clamped)?Array$/.test(e))return y(t,n)}(t)||function(){throw new TypeError("Invalid attempt to spread non-iterable instance.\nIn order to be iterable, non-array objects must have a [Symbol.iterator]() method.")}()}function y(t,n){(null==n||n>t.length)&&(n=t.length);for(var e=0,r=new Array(n);e<n;e++)r[e]=t[e];return r}Number.isInteger||(Number.isInteger=function(t){return"number"==typeof t&&isFinite(t)&&Math.floor(t)===t}),Number.EPSILON||(Number.EPSILON=2220446049250313e-31);var g=d(Math.pow(10,-6));function d(t){var n=arguments.length>1&&void 0!==arguments[1]?arguments[1]:6;if(Number.isInteger(t))return t;var e=Math.pow(10,n);return Math.round((+t+Number.EPSILON)*e)/e}function p(t,n){var e=arguments.length>2&&void 0!==arguments[2]?arguments[2]:g;return Math.abs(t-n)<e}var m=Math.PI/180;function b(t){return t}function w(t,n,e){var r=1-e;return 3*e*r*(t*r+n*e)+e*e*e}function A(){var t=arguments.length>0&&void 0!==arguments[0]?arguments[0]:0,n=arguments.length>1&&void 0!==arguments[1]?arguments[1]:0,e=arguments.length>2&&void 0!==arguments[2]?arguments[2]:1,r=arguments.length>3&&void 0!==arguments[3]?arguments[3]:1;return t<0||t>1||e<0||e>1?null:p(t,n)&&p(e,r)?b:function(i){if(i<=0)return t>0?i*n/t:0===n&&e>0?i*r/e:0;if(i>=1)return e<1?1+(i-1)*(r-1)/(e-1):1===e&&t<1?1+(i-1)*(n-1)/(t-1):1;for(var u,o=0,a=1;o<a;){var l=w(t,e,u=(o+a)/2);if(p(i,l))break;l<i?o=u:a=u}return w(n,r,u)}}function _(){return 1}function x(t){return 1===t?1:0}function k(){var t=arguments.length>0&&void 0!==arguments[0]?arguments[0]:1,n=arguments.length>1&&void 0!==arguments[1]?arguments[1]:0;if(1===t){if(0===n)return x;if(1===n)return _}var e=1/t;return function(t){return t>=1?1:(t+=n*e)-t%e}}var S=Math.sin,O=Math.cos,j=Math.acos,E=Math.asin,M=Math.tan,P=Math.atan2,I=Math.PI/180,R=180/Math.PI,F=Math.sqrt,N=function(){function t(){var n=arguments.length>0&&void 0!==arguments[0]?arguments[0]:1,e=arguments.length>1&&void 0!==arguments[1]?arguments[1]:0,i=arguments.length>2&&void 0!==arguments[2]?arguments[2]:0,u=arguments.length>3&&void 0!==arguments[3]?arguments[3]:1,o=arguments.length>4&&void 0!==arguments[4]?arguments[4]:0,a=arguments.length>5&&void 0!==arguments[5]?arguments[5]:0;r(this,t),this.m=[n,e,i,u,o,a],this.i=null,this.w=null,this.s=null}return u(t,[{key:"determinant",get:function(){var t=this.m;return t[0]*t[3]-t[1]*t[2]}},{key:"isIdentity",get:function(){if(null===this.i){var t=this.m;this.i=1===t[0]&&0===t[1]&&0===t[2]&&1===t[3]&&0===t[4]&&0===t[5]}return this.i}},{key:"point",value:function(t,n){var e=this.m;return{x:e[0]*t+e[2]*n+e[4],y:e[1]*t+e[3]*n+e[5]}}},{key:"translateSelf",value:function(){var t=arguments.length>0&&void 0!==arguments[0]?arguments[0]:0,n=arguments.length>1&&void 0!==arguments[1]?arguments[1]:0;if(!t&&!n)return this;var e=this.m;return e[4]+=e[0]*t+e[2]*n,e[5]+=e[1]*t+e[3]*n,this.w=this.s=this.i=null,this}},{key:"rotateSelf",value:function(){var t=arguments.length>0&&void 0!==arguments[0]?arguments[0]:0;if(t%=360){var n=S(t*=I),e=O(t),r=this.m,i=r[0],u=r[1];r[0]=i*e+r[2]*n,r[1]=u*e+r[3]*n,r[2]=r[2]*e-i*n,r[3]=r[3]*e-u*n,this.w=this.s=this.i=null}return this}},{key:"scaleSelf",value:function(){var t=arguments.length>0&&void 0!==arguments[0]?arguments[0]:1,n=arguments.length>1&&void 0!==arguments[1]?arguments[1]:1;if(1!==t||1!==n){var e=this.m;e[0]*=t,e[1]*=t,e[2]*=n,e[3]*=n,this.w=this.s=this.i=null}return this}},{key:"skewSelf",value:function(t,n){if(n%=360,(t%=360)||n){var e=this.m,r=e[0],i=e[1],u=e[2],o=e[3];t&&(t=M(t*I),e[2]+=r*t,e[3]+=i*t),n&&(n=M(n*I),e[0]+=u*n,e[1]+=o*n),this.w=this.s=this.i=null}return this}},{key:"resetSelf",value:function(){var t=arguments.length>0&&void 0!==arguments[0]?arguments[0]:1,n=arguments.length>1&&void 0!==arguments[1]?arguments[1]:0,e=arguments.length>2&&void 0!==arguments[2]?arguments[2]:0,r=arguments.length>3&&void 0!==arguments[3]?arguments[3]:1,i=arguments.length>4&&void 0!==arguments[4]?arguments[4]:0,u=arguments.length>5&&void 0!==arguments[5]?arguments[5]:0,o=this.m;return o[0]=t,o[1]=n,o[2]=e,o[3]=r,o[4]=i,o[5]=u,this.w=this.s=this.i=null,this}},{key:"recomposeSelf",value:function(){var t=arguments.length>0&&void 0!==arguments[0]?arguments[0]:null,n=arguments.length>1&&void 0!==arguments[1]?arguments[1]:null,e=arguments.length>2&&void 0!==arguments[2]?arguments[2]:null,r=arguments.length>3&&void 0!==arguments[3]?arguments[3]:null,i=arguments.length>4&&void 0!==arguments[4]?arguments[4]:null;return this.isIdentity||this.resetSelf(),t&&(t.x||t.y)&&this.translateSelf(t.x,t.y),n&&this.rotateSelf(n),e&&(e.x&&this.skewSelf(e.x,0),e.y&&this.skewSelf(0,e.y)),!r||1===r.x&&1===r.y||this.scaleSelf(r.x,r.y),i&&(i.x||i.y)&&this.translateSelf(i.x,i.y),this}},{key:"decompose",value:function(){var t=arguments.length>0&&void 0!==arguments[0]?arguments[0]:0,n=arguments.length>1&&void 0!==arguments[1]?arguments[1]:0,e=this.m,r=e[0]*e[0]+e[1]*e[1],i=[[e[0],e[1]],[e[2],e[3]]],u=F(r);if(0===u)return{origin:{x:d(e[4]),y:d(e[5])},translate:{x:d(t),y:d(n)},scale:{x:0,y:0},skew:{x:0,y:0},rotate:0};i[0][0]/=u,i[0][1]/=u;var o=e[0]*e[3]-e[1]*e[2]<0;o&&(u=-u);var a=i[0][0]*i[1][0]+i[0][1]*i[1][1];i[1][0]-=i[0][0]*a,i[1][1]-=i[0][1]*a;var l=F(i[1][0]*i[1][0]+i[1][1]*i[1][1]);if(0===l)return{origin:{x:d(e[4]),y:d(e[5])},translate:{x:d(t),y:d(n)},scale:{x:d(u),y:0},skew:{x:0,y:0},rotate:0};i[1][0]/=l,i[1][1]/=l,a/=l;var s=0;return i[1][1]<0?(s=j(i[1][1])*R,i[0][1]<0&&(s=360-s)):s=E(i[0][1])*R,o&&(s=-s),a=P(a,F(i[0][0]*i[0][0]+i[0][1]*i[0][1]))*R,o&&(a=-a),{origin:{x:d(e[4]),y:d(e[5])},translate:{x:d(t),y:d(n)},scale:{x:d(u),y:d(l)},skew:{x:d(a),y:0},rotate:d(s)}}},{key:"clone",value:function(){var t=this.m;return new this.constructor(t[0],t[1],t[2],t[3],t[4],t[5])}},{key:"toString",value:function(){var t=arguments.length>0&&void 0!==arguments[0]?arguments[0]:" ";if(null===this.s){var n=this.m.map((function(t){return d(t)}));1===n[0]&&0===n[1]&&0===n[2]&&1===n[3]?this.s="translate("+n[4]+t+n[5]+")":this.s="matrix("+n.join(t)+")"}return this.s}}],[{key:"create",value:function(t){return t?Array.isArray(t)?f(this,v(t)):t instanceof this?t.clone():(new this).recomposeSelf(t.origin,t.rotate,t.skew,t.scale,t.translate):new this}}]),t}();function T(t,n,e){return t>=.5?e:n}function B(t,n,e){return 0===t||n===e?n:t*(e-n)+n}function q(t,n,e){var r=B(t,n,e);return r<=0?0:r}function D(t,n,e){var r=B(t,n,e);return r<=0?0:r>=1?1:r}function L(t,n,e){return 0===t?n:1===t?e:{x:B(t,n.x,e.x),y:B(t,n.y,e.y)}}function C(t,n,e){var r=function(t,n,e){return Math.round(B(t,n,e))}(t,n,e);return r<=0?0:r>=255?255:r}function V(t,n,e){return 0===t?n:1===t?e:{r:C(t,n.r,e.r),g:C(t,n.g,e.g),b:C(t,n.b,e.b),a:B(t,null==n.a?1:n.a,null==e.a?1:e.a)}}function G(t,n){for(var e=[],r=0;r<t;r++)e.push(n);return e}function z(t,n){if(--n<=0)return t;var e=(t=Object.assign([],t)).length;do{for(var r=0;r<e;r++)t.push(t[r])}while(--n>0);return t}var Y,$=function(){function t(n){r(this,t),this.list=n,this.length=n.length}return u(t,[{key:"setAttribute",value:function(t,n){for(var e=this.list,r=0;r<this.length;r++)e[r].setAttribute(t,n)}},{key:"removeAttribute",value:function(t){for(var n=this.list,e=0;e<this.length;e++)n[e].removeAttribute(t)}},{key:"style",value:function(t,n){for(var e=this.list,r=0;r<this.length;r++)e[r].style[t]=n}}]),t}(),U=/-./g,Q=function(t,n){return n.toUpperCase()};function H(t){return"function"==typeof t?t:T}function J(t){return t?"function"==typeof t?t:Array.isArray(t)?function(t){var n=arguments.length>1&&void 0!==arguments[1]?arguments[1]:b;if(!Array.isArray(t))return n;switch(t.length){case 1:return k(t[0])||n;case 2:return k(t[0],t[1])||n;case 4:return A(t[0],t[1],t[2],t[3])||n}return n}(t,null):function(t,n){var e=arguments.length>2&&void 0!==arguments[2]?arguments[2]:b;switch(t){case"linear":return b;case"steps":return k(n.steps||1,n.jump||0)||e;case"bezier":case"cubic-bezier":return A(n.x1||0,n.y1||0,n.x2||0,n.y2||0)||e}return e}(t.type,t.value,null):null}function Z(t,n,e){var r=arguments.length>3&&void 0!==arguments[3]&&arguments[3],i=n.length-1;if(t<=n[0].t)return r?[0,0,n[0].v]:n[0].v;if(t>=n[i].t)return r?[i,1,n[i].v]:n[i].v;var u,o=n[0],a=null;for(u=1;u<=i;u++){if(!(t>n[u].t)){a=n[u];break}o=n[u]}return null==a?r?[i,1,n[i].v]:n[i].v:o.t===a.t?r?[u,1,a.v]:a.v:(t=(t-o.t)/(a.t-o.t),o.e&&(t=o.e(t)),r?[u,t,e(t,o.v,a.v)]:e(t,o.v,a.v))}function K(t,n){var e=arguments.length>2&&void 0!==arguments[2]?arguments[2]:null;return t&&t.length?"function"!=typeof n?null:("function"!=typeof e&&(e=null),function(r){var i=Z(r,t,n);return null!=i&&e&&(i=e(i)),i}):null}function W(t,n){return t.t-n.t}function X(t,n,r,i,u){var o,a="@"===r[0],l="#"===r[0],s=Y[r],f=T;switch(a?(o=r.substr(1),r=o.replace(U,Q)):l&&(r=r.substr(1)),e(s)){case"function":if(f=s(i,u,Z,J,r,a,n,t),l)return f;break;case"string":f=K(i,H(s));break;case"object":if((f=K(i,H(s.i),s.f))&&"function"==typeof s.u)return s.u(n,f,r,a,t)}return f?function(t,n,e){if(arguments.length>3&&void 0!==arguments[3]&&arguments[3])return t instanceof $?function(r){return t.style(n,e(r))}:function(r){return t.style[n]=e(r)};if(Array.isArray(n)){var r=n.length;return function(i){var u=e(i);if(null==u)for(var o=0;o<r;o++)t[o].removeAttribute(n);else for(var a=0;a<r;a++)t[a].setAttribute(n,u)}}return function(r){var i=e(r);null==i?t.removeAttribute(n):t.setAttribute(n,i)}}(n,r,f,a):null}function tt(t,n,r,i){if(!i||"object"!==e(i))return null;var u=null,o=null;return Array.isArray(i)?o=function(t){if(!t||!t.length)return null;for(var n=0;n<t.length;n++)t[n].e&&(t[n].e=J(t[n].e));return t.sort(W)}(i):(o=i.keys,u=i.data||null),o?X(t,n,r,o,u):null}function nt(t,n,e){if(!e)return null;var r=[];for(var i in e)if(e.hasOwnProperty(i)){var u=tt(t,n,i,e[i]);u&&r.push(u)}return r.length?r:null}function et(t,n){if(!n.settings.duration||n.settings.duration<0)return null;var e,r,i,u,o,a=function(t,n){if(!n)return null;var e=[];if(Array.isArray(n))for(var r=n.length,i=0;i<r;i++){var u=n[i];if(2===u.length){var o=null;if("string"==typeof u[0])o=t.getElementById(u[0]);else if(Array.isArray(u[0])){o=[];for(var a=0;a<u[0].length;a++)if("string"==typeof u[0][a]){var l=t.getElementById(u[0][a]);l&&o.push(l)}o=o.length?1===o.length?o[0]:new $(o):null}if(o){var s=nt(t,o,u[1]);s&&(e=e.concat(s))}}}else for(var f in n)if(n.hasOwnProperty(f)){var c=t.getElementById(f);if(c){var h=nt(t,c,n[f]);h&&(e=e.concat(h))}}return e.length?e:null}(t,n.elements);return a?(e=a,r=n.settings,i=r.duration,u=e.length,o=null,function(t,n){var a=r.iterations||1/0,l=(r.alternate&&a%2==0)^r.direction>0?i:0,s=t%i,f=1+(t-s)/i;n*=r.direction,r.alternate&&f%2==0&&(n=-n);var c=!1;if(f>a)s=l,c=!0,-1===r.fill&&(s=r.direction>0?0:i);else if(n<0&&(s=i-s),s===o)return!1;o=s;for(var h=0;h<u;h++)e[h](s);return c}):null}function rt(t,n){if(Y=n,!t||!t.root||!Array.isArray(t.animations))return null;var e=function(t){for(var n=document.getElementsByTagName("svg"),e=0;e<n.length;e++)if(n[e].id===t.root&&!n[e].svgatorAnimation)return n[e].svgatorAnimation=!0,n[e];return null}(t);if(!e)return null;var r=t.animations.map((function(t){return et(e,t)})).filter((function(t){return!!t}));return r.length?{svg:e,animations:r,animationSettings:t.animationSettings,options:t.options||void 0}:null}function it(t){var n=arguments.length>1&&void 0!==arguments[1]?arguments[1]:null,e=arguments.length>2&&void 0!==arguments[2]?arguments[2]:Number,r=arguments.length>3&&void 0!==arguments[3]?arguments[3]:"undefined"!=typeof BigInt&&BigInt,i="0x"+(t.replace(/[^0-9a-fA-F]+/g,"")||27);return n&&r&&e.isSafeInteger&&!e.isSafeInteger(+i)?e(r(i))%n+n:+i}function ut(t,n,e){return!t||!e||n>t.length?t:t.substring(0,n)+ut(t.substring(n+1),e,e)}function ot(t){var n=arguments.length>1&&void 0!==arguments[1]?arguments[1]:27;return!t||t%n?t%n:[0,1].includes(n)?n:ot(t/n,n)}function at(t,n,e){if(t&&t.length){var r=it(e),i=ot(r)+5,u=ut(t,ot(r,5),i);return u=u.replace(/\x7c$/g,"==").replace(/\x2f$/g,"="),u=function(t,n,e){var r=+("0x"+t.substring(0,4));t=t.substring(4);for(var i=it(n,r)%r+e%27,u=[],o=0;o<t.length;o+=2)if("|"!==t[o]){var a=+("0x"+t[o]+t[o+1])-i;u.push(a)}else{var l=+("0x"+t.substring(o+1,o+1+4))-i;o+=3,u.push(l)}return String.fromCharCode.apply(String,u)}(u=(u=atob(u)).replace(/[\x41-\x5A]/g,""),n,r),u=JSON.parse(u)}}var lt=[{key:"alternate",def:!1},{key:"fill",def:1},{key:"iterations",def:0},{key:"direction",def:1},{key:"speed",def:1},{key:"fps",def:100}],st=function(){function t(n,e){var i=this,u=arguments.length>2&&void 0!==arguments[2]?arguments[2]:null;r(this,t),this._id=0,this._running=!1,this._rollingBack=!1,this._animations=n,this._settings=e,(!u||u<"2022-05-02")&&delete this._settings.speed,lt.forEach((function(t){i._settings[t.key]=i._settings[t.key]||t.def})),this.duration=e.duration,this.offset=e.offset||0,this.rollbackStartOffset=0}return u(t,[{key:"alternate",get:function(){return this._settings.alternate}},{key:"fill",get:function(){return this._settings.fill}},{key:"iterations",get:function(){return this._settings.iterations}},{key:"direction",get:function(){return this._settings.direction}},{key:"speed",get:function(){return this._settings.speed}},{key:"fps",get:function(){return this._settings.fps}},{key:"maxFiniteDuration",get:function(){return this.iterations>0?this.iterations*this.duration:this.duration}},{key:"_apply",value:function(t){for(var n=arguments.length>1&&void 0!==arguments[1]?arguments[1]:{},e=this._animations,r=e.length,i=0,u=0;u<r;u++)n[u]?i++:(n[u]=e[u](t,1),n[u]&&i++);return i}},{key:"_rollback",value:function(t){var n=this,e=1/0,r=null;this.rollbackStartOffset=t,this._rollingBack=!0,this._running=!0;this._id=window.requestAnimationFrame((function i(u){if(n._rollingBack){null==r&&(r=u);var o=Math.round(t-(u-r)*n.speed);if(o>n.duration&&e!==1/0){var a=!!n.alternate&&o/n.duration%2>1,l=o%n.duration;o=(l+=a?n.duration:0)||n.duration}var s=(n.fps?1e3/n.fps:0)*n.speed,f=Math.max(0,o);f<=e-s&&(n.offset=f,e=f,n._apply(f));var c=n.iterations>0&&-1===n.fill&&o>=n.maxFiniteDuration;(o<=0||n.offset<o||c)&&n.stop(),n._id=window.requestAnimationFrame(i)}}))}},{key:"_start",value:function(){var t=this,n=arguments.length>0&&void 0!==arguments[0]?arguments[0]:0,e=-1/0,r=null,i={};this._running=!0;var u=function u(o){null==r&&(r=o);var a=Math.round((o-r)*t.speed+n),l=(t.fps?1e3/t.fps:0)*t.speed;if(a>=e+l&&!t._rollingBack&&(t.offset=a,e=a,t._apply(a,i)===t._animations.length))return void t.pause(!0);t._id=window.requestAnimationFrame(u)};this._id=window.requestAnimationFrame(u)}},{key:"_pause",value:function(){this._id&&window.cancelAnimationFrame(this._id),this._running=!1}},{key:"play",value:function(){if(!this._running)return this._rollingBack?this._rollback(this.offset):this._start(this.offset)}},{key:"stop",value:function(){this._pause(),this.offset=0,this.rollbackStartOffset=0,this._rollingBack=!1,this._apply(0)}},{key:"reachedToEnd",value:function(){return this.iterations>0&&this.offset>=this.iterations*this.duration}},{key:"restart",value:function(){var t=arguments.length>0&&void 0!==arguments[0]&&arguments[0];this.stop(t),this.play(t)}},{key:"pause",value:function(){this._pause()}},{key:"reverse",value:function(){this.direction=-this.direction}}],[{key:"build",value:function(t,n){delete t.animationSettings,t.options=at(t.options,t.root,"5c7f360c"),t.animations.map((function(n){n.settings=at(n.s,t.root,"5c7f360c"),delete n.s,t.animationSettings||(t.animationSettings=n.settings)}));var e=t.version;if(!(t=rt(t,n)))return null;var r=t.options||{},i=new this(t.animations,t.animationSettings,e);return{el:t.svg,options:r,player:i}}},{key:"push",value:function(t){return this.build(t)}},{key:"init",value:function(){var t=this,n=window.__SVGATOR_PLAYER__&&window.__SVGATOR_PLAYER__["5c7f360c"];Array.isArray(n)&&n.splice(0).forEach((function(n){return t.build(n)}))}}]),t}();function ft(t){return d(t)+""}function ct(t){var n=arguments.length>1&&void 0!==arguments[1]?arguments[1]:" ";return t&&t.length?t.map(ft).join(n):""}function ht(t){if(!t)return"transparent";if(null==t.a||t.a>=1){var n=function(t){return 1===(t=parseInt(t).toString(16)).length?"0"+t:t},e=function(t){return t.charAt(0)===t.charAt(1)},r=n(t.r),i=n(t.g),u=n(t.b);return e(r)&&e(i)&&e(u)&&(r=r.charAt(0),i=i.charAt(0),u=u.charAt(0)),"#"+r+i+u}return"rgba("+t.r+","+t.g+","+t.b+","+t.a+")"}function vt(t){return t?"url(#"+t+")":"none"}!function(){for(var t=0,n=["ms","moz","webkit","o"],e=0;e<n.length&&!window.requestAnimationFrame;++e)window.requestAnimationFrame=window[n[e]+"RequestAnimationFrame"],window.cancelAnimationFrame=window[n[e]+"CancelAnimationFrame"]||window[n[e]+"CancelRequestAnimationFrame"];window.requestAnimationFrame||(window.requestAnimationFrame=function(n){var e=Date.now(),r=Math.max(0,16-(e-t)),i=window.setTimeout((function(){n(e+r)}),r);return t=e+r,i},window.cancelAnimationFrame=window.clearTimeout)}();var yt={f:null,i:function(t,n,e){return 0===t?n:1===t?e:{x:q(t,n.x,e.x),y:q(t,n.y,e.y)}},u:function(t,n){return function(e){var r=n(e);t.setAttribute("rx",ft(r.x)),t.setAttribute("ry",ft(r.y))}}},gt={f:null,i:function(t,n,e){return 0===t?n:1===t?e:{width:q(t,n.width,e.width),height:q(t,n.height,e.height)}},u:function(t,n){return function(e){var r=n(e);t.setAttribute("width",ft(r.width)),t.setAttribute("height",ft(r.height))}}};Object.freeze({M:2,L:2,Z:0,H:1,V:1,C:6,Q:4,T:2,S:4,A:7});var dt={},pt=null;function mt(t){var n=function(){if(pt)return pt;if("object"!==("undefined"==typeof document?"undefined":e(document))||!document.createElementNS)return{};var t=document.createElementNS("http://www.w3.org/2000/svg","svg");return t&&t.style?(t.style.position="absolute",t.style.opacity="0.01",t.style.zIndex="-9999",t.style.left="-9999px",t.style.width="1px",t.style.height="1px",pt={svg:t}):{}}().svg;if(!n)return function(t){return null};var r=document.createElementNS(n.namespaceURI,"path");r.setAttributeNS(null,"d",t),r.setAttributeNS(null,"fill","none"),r.setAttributeNS(null,"stroke","none"),n.appendChild(r);var i=r.getTotalLength();return function(t){var n=r.getPointAtLength(i*t);return{x:n.x,y:n.y}}}function bt(t){return dt[t]?dt[t]:dt[t]=mt(t)}function wt(t,n,e,r){if(!t||!r)return!1;var i=["M",t.x,t.y];if(n&&e&&(i.push("C"),i.push(n.x),i.push(n.y),i.push(e.x),i.push(e.y)),n?!e:e){var u=n||e;i.push("Q"),i.push(u.x),i.push(u.y)}return n||e||i.push("L"),i.push(r.x),i.push(r.y),i.join(" ")}function At(t,n,e,r){var i=arguments.length>4&&void 0!==arguments[4]?arguments[4]:1,u=wt(t,n,e,r),o=bt(u);try{return o(i)}catch(t){return null}}function _t(t,n,e){return t+(n-t)*e}function xt(t,n,e){var r=arguments.length>3&&void 0!==arguments[3]&&arguments[3],i={x:_t(t.x,n.x,e),y:_t(t.y,n.y,e)};return r&&(i.a=kt(t,n)),i}function kt(t,n){return Math.atan2(n.y-t.y,n.x-t.x)}function St(t,n,e,r){var i=1-r;return i*i*t+2*i*r*n+r*r*e}function Ot(t,n,e,r){return 2*(1-r)*(n-t)+2*r*(e-n)}function jt(t,n,e,r){var i=arguments.length>4&&void 0!==arguments[4]&&arguments[4],u=At(t,n,null,e,r);return u||(u={x:St(t.x,n.x,e.x,r),y:St(t.y,n.y,e.y,r)}),i&&(u.a=Et(t,n,e,r)),u}function Et(t,n,e,r){return Math.atan2(Ot(t.y,n.y,e.y,r),Ot(t.x,n.x,e.x,r))}function Mt(t,n,e,r,i){var u=i*i;return i*u*(r-t+3*(n-e))+3*u*(t+e-2*n)+3*i*(n-t)+t}function Pt(t,n,e,r,i){var u=1-i;return 3*(u*u*(n-t)+2*u*i*(e-n)+i*i*(r-e))}function It(t,n,e,r,i){var u=arguments.length>5&&void 0!==arguments[5]&&arguments[5],o=At(t,n,e,r,i);return o||(o={x:Mt(t.x,n.x,e.x,r.x,i),y:Mt(t.y,n.y,e.y,r.y,i)}),u&&(o.a=Rt(t,n,e,r,i)),o}function Rt(t,n,e,r,i){return Math.atan2(Pt(t.y,n.y,e.y,r.y,i),Pt(t.x,n.x,e.x,r.x,i))}function Ft(t,n,e){var r=arguments.length>3&&void 0!==arguments[3]&&arguments[3];if(Tt(n)){if(Bt(e))return jt(n,e.start,e,t,r)}else if(Tt(e)){if(qt(n))return jt(n,n.end,e,t,r)}else{if(qt(n))return Bt(e)?It(n,n.end,e.start,e,t,r):jt(n,n.end,e,t,r);if(Bt(e))return jt(n,e.start,e,t,r)}return xt(n,e,t,r)}function Nt(t,n,e){var r=Ft(t,n,e,!0);return r.a=function(t){return arguments.length>1&&void 0!==arguments[1]&&arguments[1]?t+Math.PI:t}(r.a)/m,r}function Tt(t){return!t.type||"corner"===t.type}function Bt(t){return null!=t.start&&!Tt(t)}function qt(t){return null!=t.end&&!Tt(t)}var Dt=new N;var Lt={f:ft,i:B},Ct={f:ft,i:D};function Vt(t,n,e){return t.map((function(t){return function(t,n,e){var r=t.v;if(!r||"g"!==r.t||r.s||!r.v||!r.r)return t;var i=e.getElementById(r.r),u=i&&i.querySelectorAll("stop")||[];return r.s=r.v.map((function(t,n){var e=u[n]&&u[n].getAttribute("offset");return{c:t,o:e=d(parseInt(e)/100)}})),delete r.v,t}(t,0,e)}))}var Gt={gt:"gradientTransform",c:{x:"cx",y:"cy"},rd:"r",f:{x:"x1",y:"y1"},to:{x:"x2",y:"y2"}};function zt(t,n,r,i,u,o,a,l){return Vt(t,0,l),n=function(t,n,e){for(var r,i,u,o=t.length-1,a={},l=0;l<=o;l++)(r=t[l]).e&&(r.e=n(r.e)),r.v&&"g"===(i=r.v).t&&i.r&&(u=e.getElementById(i.r))&&(a[i.r]={e:u,s:u.querySelectorAll("stop")});return a}(t,i,l),function(i){var u=r(i,t,Yt);if(!u)return"none";if("c"===u.t)return ht(u.v);if("g"===u.t){if(!n[u.r])return vt(u.r);var o=n[u.r];return function(t,n){for(var e=t.s,r=e.length;r<n.length;r++){var i=e[e.length-1].cloneNode();i.id=Qt(i.id),t.e.appendChild(i),e=t.s=t.e.querySelectorAll("stop")}for(var u=0,o=e.length,a=n.length-1;u<o;u++)e[u].setAttribute("stop-color",ht(n[Math.min(u,a)].c)),e[u].setAttribute("offset",n[Math.min(u,a)].o)}(o,u.s),Object.keys(Gt).forEach((function(t){if(void 0!==u[t])if("object"!==e(Gt[t])){var n,r="gt"===t?(n=u[t],Array.isArray(n)?"matrix("+n.join(" ")+")":""):u[t],i=Gt[t];o.e.setAttribute(i,r)}else Object.keys(Gt[t]).forEach((function(n){if(void 0!==u[t][n]){var e=u[t][n],r=Gt[t][n];o.e.setAttribute(r,e)}}))})),vt(u.r)}return"none"}}function Yt(t,e,r){if(0===t)return e;if(1===t)return r;if(e&&r){var i=e.t;if(i===r.t)switch(e.t){case"c":return{t:i,v:V(t,e.v,r.v)};case"g":if(e.r===r.r){var u={t:i,s:$t(t,e.s,r.s),r:e.r};return e.gt&&r.gt&&(u.gt=function(t,n,e){var r=n.length;if(r!==e.length)return T(t,n,e);for(var i=new Array(r),u=0;u<r;u++)i[u]=B(t,n[u],e[u]);return i}(t,e.gt,r.gt)),e.c?(u.c=L(t,e.c,r.c),u.rd=q(t,e.rd,r.rd)):e.f&&(u.f=L(t,e.f,r.f),u.to=L(t,e.to,r.to)),u}}if("c"===e.t&&"g"===r.t||"c"===r.t&&"g"===e.t){var o="c"===e.t?e:r,a="g"===e.t?n({},e):n({},r),l=a.s.map((function(t){return{c:o.v,o:t.o}}));return a.s="c"===e.t?$t(t,l,a.s):$t(t,a.s,l),a}}return T(t,e,r)}function $t(t,n,e){if(n.length===e.length)return n.map((function(n,r){return Ut(t,n,e[r])}));for(var r=Math.max(n.length,e.length),i=[],u=0;u<r;u++){var o=Ut(t,n[Math.min(u,n.length-1)],e[Math.min(u,e.length-1)]);i.push(o)}return i}function Ut(t,n,e){return{o:D(t,n.o,e.o||0),c:V(t,n.c,e.c||{})}}function Qt(t){return t.replace(/-fill-([0-9]+)$/,(function(t,n){return"-fill-"+(+n+1)}))}var Ht={fill:zt,"fill-opacity":Ct,stroke:zt,"stroke-opacity":Ct,"stroke-width":Lt,"stroke-dashoffset":{f:ft,i:B},"stroke-dasharray":{f:function(t){var n=arguments.length>1&&void 0!==arguments[1]?arguments[1]:" ";return t&&t.length>0&&(t=t.map((function(t){return d(t,4)}))),ct(t,n)},i:function(t,n,e){var r,i,u,o=n.length,a=e.length;if(o!==a)if(0===o)n=G(o=a,0);else if(0===a)a=o,e=G(o,0);else{var l=(u=(r=o)*(i=a)/function(t,n){for(var e;n;)e=n,n=t%n,t=e;return t||1}(r,i))<0?-u:u;n=z(n,Math.floor(l/o)),e=z(e,Math.floor(l/a)),o=a=l}for(var s=[],f=0;f<o;f++)s.push(d(q(t,n[f],e[f])));return s}},opacity:Ct,transform:function(t,n,r,i){if(!(t=function(t,n){if(!t||"object"!==e(t))return null;var r=!1;for(var i in t)t.hasOwnProperty(i)&&(t[i]&&t[i].length?(t[i].forEach((function(t){t.e&&(t.e=n(t.e))})),r=!0):delete t[i]);return r?t:null}(t,i)))return null;var u=function(e,i,u){var o=arguments.length>3&&void 0!==arguments[3]?arguments[3]:null;return t[e]?r(i,t[e],u):n&&n[e]?n[e]:o};return n&&n.a&&t.o?function(n){var e=r(n,t.o,Nt);return Dt.recomposeSelf(e,u("r",n,B,0)+e.a,u("k",n,L),u("s",n,L),u("t",n,L)).toString()}:function(t){return Dt.recomposeSelf(u("o",t,Ft,null),u("r",t,B,0),u("k",t,L),u("s",t,L),u("t",t,L)).toString()}},r:Lt,"#size":gt,"#radius":yt,_:function(t,n){if(Array.isArray(t))for(var e=0;e<t.length;e++)this[t[e]]=n;else this[t]=n}},Jt=function(t){!function(t,n){if("function"!=typeof n&&null!==n)throw new TypeError("Super expression must either be null or a function");t.prototype=Object.create(n&&n.prototype,{constructor:{value:t,writable:!0,configurable:!0}}),n&&l(t,n)}(o,t);var n,e,i=(n=o,e=s(),function(){var t,r=a(n);if(e){var i=a(this).constructor;t=Reflect.construct(r,arguments,i)}else t=r.apply(this,arguments);return c(this,t)});function o(){return r(this,o),i.apply(this,arguments)}return u(o,null,[{key:"build",value:function(t){var n=h(a(o),"build",this).call(this,t,Ht);if(!n)return null;n.el,n.options,function(t,n,e){t.play()}(n.player)}}]),o}(st);return Jt.init(),Jt}));
(function(s,i,o,w,d,a,b){w[o]=w[o]||{};w[o][s]=w[o][s]||[];w[o][s].push(i);})('5c7f360c',{"root":"esrWKDHfNyU1","version":"2022-05-04","animations":[{"elements":{"esrWKDHfNyU37":{"transform":{"data":{"t":{"x":-100.433739,"y":-135.088997}},"keys":{"o":[{"t":1300,"v":{"x":99.90785,"y":210.731001,"type":"cusp"}},{"t":3000,"v":{"x":99.17646,"y":140.54366,"type":"cusp"}}]}}},"esrWKDHfNyU38":{"transform":{"data":{"t":{"x":-100.433739,"y":-163.372238}},"keys":{"o":[{"t":700,"v":{"x":99.90785,"y":210.731001,"type":"cusp"}},{"t":2000,"v":{"x":99.17646,"y":140.54366,"type":"cusp"}}]}}},"esrWKDHfNyU39":{"transform":{"data":{"t":{"x":-100.433739,"y":-191.229187}},"keys":{"o":[{"t":0,"v":{"x":99.90785,"y":210.731001,"type":"cusp"}},{"t":1300,"v":{"x":99.17646,"y":140.54366,"type":"cusp"}}]}}},"esrWKDHfNyU67":{"transform":{"data":{"t":{"x":-449.802887,"y":-134.254719}},"keys":{"o":[{"t":1000,"v":{"x":449.862107,"y":206.875401,"type":"cusp"}},{"t":3000,"v":{"x":449.862107,"y":105.537,"type":"cusp"}}]}}},"esrWKDHfNyU68":{"transform":{"data":{"t":{"x":-449.802887,"y":-162.540306}},"keys":{"o":[{"t":500,"v":{"x":449.862107,"y":206.875401,"type":"cusp"}},{"t":2500,"v":{"x":449.862107,"y":105.537,"type":"cusp"}}]}}},"esrWKDHfNyU69":{"transform":{"data":{"t":{"x":-449.802887,"y":-190.394302}},"keys":{"o":[{"t":0,"v":{"x":449.862107,"y":206.875401,"type":"cusp"}},{"t":1600,"v":{"x":449.862107,"y":105.537,"type":"cusp"}}]}}},"esrWKDHfNyU74":{"transform":{"data":{"t":{"x":-421.893005,"y":-275.522003}},"keys":{"o":[{"t":0,"v":{"x":421.892,"y":265.022,"type":"cusp"}},{"t":1500,"v":{"x":421.892,"y":302.456,"type":"cusp"}},{"t":3000,"v":{"x":294.547,"y":376.469,"type":"cusp"}}]}}},"esrWKDHfNyU75":{"transform":{"data":{"t":{"x":-397,"y":-267.5}},"keys":{"o":[{"t":0,"v":{"x":397.067,"y":249.715,"type":"cusp"}},{"t":700,"v":{"x":397.067,"y":287.164,"type":"cusp"}},{"t":3000,"v":{"x":295.97720833333335,"y":345.97979166666664,"a":149.80841392975165}}]}}},"esrWKDHfNyU125":{"transform":{"data":{"t":{"x":-89.248158,"y":-351.811203}},"keys":{"o":[{"t":1110,"v":{"x":89.247553,"y":432.20099,"type":"cusp"}},{"t":2900,"v":{"x":89.247553,"y":348.537002,"type":"cusp"}}]}}},"esrWKDHfNyU126":{"transform":{"data":{"t":{"x":-89.248158,"y":-380.094635}},"keys":{"o":[{"t":700,"v":{"x":89.247553,"y":432.20099,"type":"cusp"}},{"t":2000,"v":{"x":89.247553,"y":348.537002,"type":"cusp"}}]}}},"esrWKDHfNyU127":{"transform":{"data":{"t":{"x":-89.248158,"y":-407.948441}},"keys":{"o":[{"t":0,"v":{"x":89.247553,"y":432.20099,"type":"cusp"}},{"t":1500,"v":{"x":89.247553,"y":348.537002,"type":"cusp"}}]}}},"esrWKDHfNyU140":{"transform":{"data":{"t":{"x":-457.851746,"y":-334.656998}},"keys":{"o":[{"t":1300,"v":{"x":456.9545,"y":411.599,"type":"cusp"}},{"t":2900,"v":{"x":456.227,"y":336.859,"type":"cusp"}}]}}},"esrWKDHfNyU141":{"transform":{"data":{"t":{"x":-457.851746,"y":-362.940445}},"keys":{"o":[{"t":800,"v":{"x":456.9545,"y":411.599,"type":"cusp"}},{"t":2200,"v":{"x":456.227,"y":336.859,"type":"cusp"}}]}}},"esrWKDHfNyU142":{"transform":{"data":{"t":{"x":-457.851746,"y":-390.797699}},"keys":{"o":[{"t":0,"v":{"x":456.9545,"y":411.599,"type":"cusp"}},{"t":1700,"v":{"x":456.227,"y":336.859,"type":"cusp"}}]}}},"esrWKDHfNyU181":{"transform":{"data":{"t":{"x":-351,"y":-363.981995}},"keys":{"o":[{"t":0,"v":{"x":405.316,"y":422.582002,"type":"cusp"}},{"t":1900,"v":{"x":351,"y":390.783,"type":"cusp"}},{"t":3000,"v":{"x":351,"y":356.4694166666667,"a":-90}}]}}},"esrWKDHfNyU182":{"transform":{"data":{"t":{"x":-326,"y":-386.5}},"keys":{"o":[{"t":0,"v":{"x":405.316,"y":453.222,"type":"cusp"}},{"t":2000,"v":{"x":326,"y":406.091,"type":"cusp"}},{"t":3000,"v":{"x":326,"y":372.06100000000004,"a":-90}}]}}},"esrWKDHfNyU183":{"transform":{"data":{"t":{"x":-242,"y":-386.5}},"keys":{"o":[{"t":100,"v":{"x":145.556001,"y":459.447,"type":"cusp"}},{"t":1700,"v":{"x":242,"y":406.091,"type":"cusp"}},{"t":3000,"v":{"x":242,"y":371.33178571428573,"a":-90}}]}}},"esrWKDHfNyU184":{"transform":{"data":{"t":{"x":-217,"y":-386.5}},"keys":{"o":[{"t":0,"v":{"x":137.310001,"y":436.044,"type":"cusp"}},{"t":1900,"v":{"x":217,"y":390.783,"type":"cusp"}},{"t":3000,"v":{"x":217,"y":353.35,"type":"cusp"}}]}}},"esrWKDHfNyU185":{"transform":{"data":{"t":{"x":-126,"y":-294.5}},"keys":{"o":[{"t":0,"v":{"x":126,"y":271.872,"type":"cusp"}},{"t":1500,"v":{"x":126,"y":309.305,"type":"cusp"}},{"t":3000,"v":{"x":186,"y":348.537002,"type":"cusp"}}]}}}},"s":"MYDA1ZGUyODljYmRjZDKljOGRiZDBTZDZkNTgX5YTE5YTk3OTc5NzkzTODljYmQwZDljY2NhZUGJTSGQwZDZkNTg5YTNE5ODkzVzg5ZDBkYmNUjZDljOGRiZDBkNmQ1TWWRhODlhMTk3OTM4OUWNkZDBkM2QzODlhMTGk4OTM4OU9jOGQzZGJMjY2Q5ZDVjOGRiY2M4MOWExY2RjOGQzSGRhYP2M5Mzg5ZGFkN2NjY2FNjYjg5YTE5ODkzUDgG5Y2RSZDdkYTg5YTFKLVzk4OTc5N2U0"}],"options":"MFDAxMDg4MmY4MEM4MTDZlN2Y4MTJmNDdVMmYT3OTdjNmU3MTJmOGE/T"},'__SVGATOR_PLAYER__',window,document)
]]></script>
</svg>
