<svg width="256" height="42" viewBox="0 0 256 42" fill="none" xmlns="http://www.w3.org/2000/svg">
<path d="M33.0496 32.605L28.0305 37.6241H45.8662V0L8.2495 0.00746451V15.6844L13.709 10.2249C13.4896 9.23509 13.7568 8.15572 14.5272 7.38539C15.723 6.18957 17.6622 6.18957 18.8655 7.39285C20.0688 8.59613 20.0613 10.5279 18.8655 11.7253C18.0952 12.4956 17.0158 12.7628 16.026 12.5434L4.03504 24.5627C3.04525 24.3433 1.96588 24.6105 1.19554 25.3808C-0.00027205 26.5766 -0.00027205 28.5159 1.19554 29.7132C2.28238 30.8001 3.98727 30.909 5.18308 30.0163C5.30699 29.9342 5.42344 29.8312 5.53392 29.7207C6.30425 28.9504 6.57148 27.871 6.35202 26.8812L17.9175 15.3157L21.5886 11.6446C21.3691 10.6548 21.6364 9.57547 22.4067 8.80514C23.6025 7.60932 25.5492 7.60186 26.7451 8.79767C27.9409 9.99349 27.9349 11.9402 26.7376 13.136C25.9673 13.9064 24.8879 14.1736 23.8981 13.9542L3.84843 33.9874C2.85864 33.7679 1.77927 34.0352 1.00893 34.8055C-0.186885 36.0013 -0.180913 37.9481 1.01639 39.1439C2.21221 40.3397 4.15149 40.3397 5.34879 39.1439C6.11913 38.3736 6.38636 37.2942 6.16691 36.3044L21.7618 20.7931C21.5423 19.8033 21.8095 18.724 22.5799 17.9536C23.7757 16.7578 25.7224 16.7638 26.9182 17.9611C28.1141 19.1569 28.1141 21.0962 26.9182 22.2935C26.1479 23.0638 25.0685 23.3311 24.0787 23.1116L23.5771 23.6132L23.5562 23.5923L11.9907 35.1578C11.0009 34.9384 9.92155 35.2056 9.15122 35.9759C8.93325 36.1939 8.75858 36.4522 8.61974 36.7284C8.55107 36.8657 8.48986 37.009 8.43462 37.1524C8.37491 37.3091 8.32863 37.4748 8.30176 37.642C8.27488 37.8092 8.27339 37.9824 8.27488 38.1586C8.27488 38.3303 8.28683 38.5034 8.3137 38.6736C8.33311 38.796 8.35849 38.9185 8.39133 39.0379C8.53614 39.5156 8.7974 39.9545 9.14972 40.3083C10.3396 41.4982 12.2788 41.5116 13.4881 40.3158C14.2241 39.5798 14.4988 38.5631 14.3271 37.6211C14.3271 37.5659 14.3137 37.5256 14.3062 37.4763L25.8717 25.9108L25.8508 25.8899L30.8431 20.8976C30.6236 19.9078 30.8909 18.8285 31.6612 18.0581C32.857 16.8623 34.8037 16.8549 36.007 18.0581C37.2028 19.254 37.1969 21.2007 35.9996 22.3965C35.2292 23.1669 34.1499 23.4341 33.1601 23.2146L20.5988 35.9476C19.609 35.7281 18.5356 35.9894 17.7653 36.7582C16.562 37.9615 16.5694 39.9068 17.7653 41.1041C18.9611 42.2999 20.9004 42.2999 22.1036 41.0966C22.874 40.3263 23.1352 39.2544 22.9143 38.2631C22.9143 38.2631 23.3875 37.6181 23.4025 37.6181L30.7326 30.288C30.5132 29.2982 30.7744 28.2248 31.5433 27.4545C32.7391 26.2586 34.6858 26.2512 35.8816 27.447C37.0849 28.6503 37.0774 30.5955 35.8816 31.7928C35.1113 32.5632 34.0394 32.8244 33.0481 32.6035L33.0496 32.605Z" fill="white"/>
<path d="M64.9752 12.7613C60.6652 11.6581 59.5918 11.1191 59.5918 9.48142V9.40827C59.5918 8.20051 60.695 7.23759 62.7985 7.23759C64.902 7.23759 67.0772 8.16319 69.2897 9.6964L72.1411 5.55807C69.6091 3.52773 66.5069 2.38864 62.8717 2.38864C57.7764 2.38864 54.1412 5.38042 54.1412 9.91137V9.98005C54.1412 14.9395 57.3838 16.3249 62.4059 17.6118C66.58 18.6792 67.4325 19.3898 67.4325 20.7812V20.8543C67.4325 22.3144 66.0784 23.2087 63.8331 23.2087C60.9817 23.2087 58.6288 22.0322 56.3835 20.1751L53.1409 24.0611C56.1327 26.7334 59.9471 28.0516 63.7286 28.0516C69.1105 28.0516 72.8875 25.2733 72.8875 20.3199V20.2467C72.8875 15.8949 70.0361 14.0796 64.9737 12.7613H64.9752Z" fill="#EC6A15"/>
<path d="M91.4594 2.74395V17.04C91.4594 20.9947 89.4305 23.0235 86.0775 23.0235C82.7244 23.0235 80.6956 20.92 80.6956 16.8564V2.74395H75.2076V17.0027C75.2076 24.3462 79.3042 28.0875 86.0103 28.0875C92.7164 28.0875 96.9533 24.3791 96.9533 16.825V2.74395H91.4609H91.4594Z" fill="#EC6A15"/>
<path d="M110.673 2.74395H100.478V27.6948H105.97V20.2094H110.14C115.737 20.2094 120.226 17.2176 120.226 11.4416V11.3685C120.226 6.27318 116.627 2.74246 110.674 2.74246L110.673 2.74395ZM114.663 11.5476C114.663 13.6869 113.063 15.3291 110.316 15.3291H105.969V7.6974H110.206C112.953 7.6974 114.662 9.01564 114.662 11.4744V11.5476H114.663Z" fill="#EC6A15"/>
<path d="M122.224 2.74395V7.62873H141.045V2.74395H122.224ZM127.674 22.8145V17.5729H139.438V12.6867H122.224V27.6948H141.222V22.8145H127.674Z" fill="#EC6A15"/>
<path d="M159.509 18.7867C162.678 17.6103 164.855 15.0783 164.855 11.0505V10.9773C164.855 5.8462 161.324 2.74395 155.445 2.74395H144.036V27.6948H149.529V19.7123H153.839L159.185 27.6948H165.603L159.509 18.7867ZM159.294 11.3326C159.294 13.4361 157.761 14.8633 155.088 14.8633H149.527V7.6974H154.978C157.65 7.6974 159.294 8.91113 159.294 11.2654V11.3341V11.3326Z" fill="#EC6A15"/>
<path d="M165.96 2.74395V7.80638H173.55V27.6948H179.042V7.80638H186.632V2.74395H165.96Z" fill="white"/>
<path d="M194.228 22.8145V17.5729H205.987V12.6867H188.773V27.6948H207.771V22.8145H194.228ZM207.592 7.62873V2.74395H188.771V7.62873H207.592Z" fill="white"/>
<path d="M229.014 20.1363C227.058 21.9203 225.31 23.0609 222.46 23.0609C218.181 23.0609 215.221 19.4988 215.221 15.2201V15.147C215.221 10.8728 218.25 7.37941 222.46 7.37941C224.955 7.37941 226.912 8.44684 228.836 10.1935L232.331 6.16568C230.014 3.88453 227.2 2.31549 222.491 2.31549C214.828 2.31549 209.482 8.12736 209.482 15.2201V15.2933C209.482 22.4547 214.939 28.1248 222.276 28.1248C227.089 28.1248 229.945 26.4139 232.509 23.6685L229.014 20.1378V20.1363Z" fill="white"/>
<path d="M250.439 2.74395V12.6195H240.311V2.74395H234.823V27.6948H240.311V17.6775H250.439V27.6948H255.926V2.74395H250.439Z" fill="white"/>
<path d="M104.721 31.3047V39.544H106.536V31.3047H104.721Z" fill="#EC6A15"/>
<path d="M112.718 31.3047V32.9737H115.223V39.544H117.039V32.9737H119.544V31.3047H112.717H112.718Z" fill="#EC6A15"/>
<path d="M139.971 37.0478C139.328 37.639 138.747 38.0152 137.805 38.0152C136.393 38.0152 135.415 36.8388 135.415 35.4266V35.3997C135.415 33.9874 136.42 32.8319 137.805 32.8319C138.632 32.8319 139.28 33.1872 139.913 33.7635L141.068 32.4348C140.3 31.6809 139.374 31.1643 137.82 31.1643C135.288 31.1643 133.52 33.0842 133.52 35.428V35.449C133.52 37.8137 135.319 39.6858 137.747 39.6858C139.337 39.6858 140.279 39.1215 141.125 38.2153L139.97 37.0493L139.971 37.0478Z" fill="#EC6A15"/>
<path d="M151.077 31.1628C148.534 31.1628 146.688 33.0827 146.688 35.4266V35.4475C146.688 37.7913 148.513 39.6843 151.056 39.6843C153.598 39.6843 155.445 37.7644 155.445 35.4266V35.3997C155.445 33.0558 153.619 31.1628 151.077 31.1628ZM153.55 35.4475C153.55 36.8597 152.535 38.0152 151.077 38.0152C149.618 38.0152 148.582 36.8388 148.582 35.4266V35.3997C148.582 33.9874 149.597 32.8319 151.056 32.8319C152.514 32.8319 153.55 34.0143 153.55 35.4266V35.4475Z" fill="#EC6A15"/>
<path d="M167.303 31.3047V36.379L163.443 31.3047H161.769V39.544H163.558V34.3084L167.548 39.544H169.092V31.3047H167.303Z" fill="#EC6A15"/>
<path d="M179.126 34.6099C177.703 34.2487 177.348 34.071 177.348 33.5276V33.5067C177.348 33.1036 177.713 32.7841 178.409 32.7841C179.105 32.7841 179.821 33.0932 180.548 33.6007L181.49 32.2347C180.659 31.5599 179.633 31.1837 178.43 31.1837C176.746 31.1837 175.547 32.172 175.547 33.6679V33.6948C175.547 35.3325 176.619 35.7878 178.278 36.2103C179.654 36.5656 179.936 36.8015 179.936 37.2613V37.2822C179.936 37.7629 179.491 38.0615 178.749 38.0615C177.807 38.0615 177.028 37.6749 176.291 37.0568L175.219 38.3437C176.207 39.2275 177.468 39.6619 178.714 39.6619C180.492 39.6619 181.743 38.7408 181.743 37.1046V37.0837C181.743 35.6445 180.801 35.0489 179.127 34.6099H179.126Z" fill="#EC6A15"/>
<path d="M193.265 31.3047V36.0222C193.265 37.33 192.595 37.9988 191.491 37.9988C190.388 37.9988 189.713 37.3076 189.713 35.964V31.3032H187.898V36.0103C187.898 38.4377 189.252 39.6724 191.466 39.6724C193.68 39.6724 195.08 38.4482 195.08 35.9536V31.3032H193.265V31.3047Z" fill="#EC6A15"/>
<path d="M203.455 37.8958V31.3047H201.64V39.544H207.561V37.8958H203.454H203.455Z" fill="#EC6A15"/>
<path d="M211.871 31.3047V32.9737H214.376V39.544H216.191V32.9737H218.702V31.3047H211.871Z" fill="#EC6A15"/>
<path d="M224.88 31.3047V39.544H226.695V31.3047H224.88Z" fill="#EC6A15"/>
<path d="M238.998 31.3047V36.379L235.138 31.3047H233.464V39.544H235.252V34.3084L239.243 39.544H240.787V31.3047H238.998Z" fill="#EC6A15"/>
<path d="M251.386 34.7995V36.3686H253.212V37.545C252.752 37.8749 252.166 38.0361 251.507 38.0361C250.047 38.0361 249.013 36.9329 249.013 35.4266V35.3997C249.013 33.9978 250.059 32.8319 251.378 32.8319C252.33 32.8319 252.894 33.1409 253.533 33.6694L254.674 32.293C253.815 31.5599 252.921 31.1628 251.436 31.1628C248.941 31.1628 247.115 33.0827 247.115 35.4266V35.4475C247.115 37.8854 248.883 39.6843 251.446 39.6843C252.959 39.6843 254.118 39.0991 254.966 38.3765V34.798H251.388L251.386 34.7995Z" fill="#EC6A15"/>
<path d="M101.922 34.6085H53.1427V37.8107H101.922V34.6085Z" fill="white"/>
</svg>
