<svg width="256" height="43" viewBox="0 0 256 43" fill="none" xmlns="http://www.w3.org/2000/svg">
<path d="M32.9336 33.2662L27.9149 38.285H45.7493V0.663574L8.13381 0.671036V16.3469L13.593 10.8877C13.3735 9.89801 13.6407 8.81872 14.411 8.04843C15.6068 6.8527 17.5459 6.85271 18.7491 8.0559C19.9448 9.25163 19.9448 11.1908 18.7491 12.388C17.9788 13.1583 16.8995 13.4255 15.9098 13.206L3.91965 25.2246C2.92993 25.0051 1.85064 25.2723 1.08035 26.0426C-0.115376 27.2383 -0.115376 29.1775 1.08035 30.3747C2.16711 31.4615 3.87188 31.5704 5.06761 30.6777C5.19151 30.5956 5.30795 30.4926 5.41842 30.3822C6.1887 29.6119 6.45591 28.5326 6.23647 27.5429L17.8012 15.9782L21.4719 12.3074C21.2525 11.3177 21.5197 10.2384 22.29 9.46808C23.4857 8.27235 25.4323 8.26488 26.6281 9.46061C27.8238 10.6563 27.8178 12.603 26.6206 13.7987C25.8503 14.569 24.771 14.8362 23.7813 14.6167L3.73305 34.6515C2.74333 34.4321 1.66404 34.6993 0.893754 35.4696C-0.301976 36.6653 -0.296004 38.6119 0.901218 39.8077C2.09695 41.0034 4.03609 41.0034 5.23331 39.8077C6.0036 39.0374 6.27081 37.9581 6.05136 36.9684L21.6451 21.4582C21.4257 20.4685 21.6929 19.3892 22.4632 18.6189C23.6589 17.4232 25.6055 17.4292 26.8012 18.6264C27.997 19.8221 27.997 21.7613 26.8012 22.9585C26.0309 23.7288 24.9517 23.996 23.9619 23.7765L23.4604 24.2781L23.4395 24.2572L11.8748 35.8219C10.885 35.6025 9.80575 35.8697 9.03546 36.64C8.81751 36.8579 8.64286 37.1161 8.50403 37.3923C8.43536 37.5297 8.37416 37.673 8.31892 37.8163C8.25921 37.973 8.21293 38.1387 8.18606 38.3059C8.15919 38.4731 8.1577 38.6463 8.15919 38.8224C8.15919 38.9941 8.17114 39.1673 8.19801 39.3374C8.21741 39.4598 8.24279 39.5823 8.27563 39.7017C8.42043 40.1794 8.68167 40.6183 9.03397 40.9721C10.2237 42.1618 12.1629 42.1752 13.372 40.9795C14.108 40.2436 14.3827 39.227 14.211 38.285C14.211 38.2298 14.1976 38.1895 14.1901 38.1402L25.7548 26.5755L25.7339 26.5546L30.7258 21.5627C30.5063 20.573 30.7736 19.4937 31.5438 18.7234C32.7396 17.5277 34.6862 17.5202 35.8894 18.7234C37.0851 19.9191 37.0791 21.8657 35.8819 23.0615C35.1116 23.8318 34.0323 24.099 33.0426 23.8795L20.4822 36.6116C19.4925 36.3921 18.4192 36.6534 17.6489 37.4222C16.4457 38.6254 16.4532 40.5705 17.6489 41.7677C18.8446 42.9634 20.7838 42.9634 21.987 41.7602C22.7572 40.99 23.0185 39.9181 22.7975 38.9269C22.7975 38.9269 23.2708 38.282 23.2857 38.282L30.6153 30.9524C30.3959 29.9627 30.6571 28.8894 31.4259 28.1191C32.6216 26.9233 34.5682 26.9159 35.764 28.1116C36.9672 29.3148 36.9597 31.2599 35.764 32.4571C34.9937 33.2274 33.9219 33.4887 32.9306 33.2677L32.9336 33.2662Z" fill="white"/>
<path d="M64.855 13.4227C60.5453 12.3195 59.472 11.7807 59.472 10.1431V10.0699C59.472 8.86224 60.5752 7.89938 62.6785 7.89938C64.7819 7.89938 66.9569 8.82491 69.1692 10.358L72.0204 6.21998C69.4886 4.18978 66.3866 3.05078 62.7517 3.05078C57.6567 3.05078 54.0218 6.04235 54.0218 10.573V10.6416C54.0218 15.6007 57.2641 16.986 62.2859 18.2728C66.4598 19.3402 67.3121 20.0507 67.3121 21.442V21.5152C67.3121 22.9751 65.9582 23.8693 63.713 23.8693C60.8618 23.8693 58.5091 22.693 56.264 20.836L53.0216 24.7217C56.0132 27.3938 59.8273 28.7119 63.6085 28.7119C68.99 28.7119 72.7668 25.9338 72.7668 20.9808V20.9076C72.7668 16.5561 69.9156 14.7409 64.8535 13.4227H64.855Z" fill="white"/>
<path d="M91.3386 3.40625V17.7013C91.3386 21.6557 89.3099 23.6844 85.9571 23.6844C82.6042 23.6844 80.5755 21.581 80.5755 17.5177V3.40625H75.088V17.6654C75.088 25.0085 79.1843 28.7494 85.8899 28.7494C92.5955 28.7494 96.8321 25.0413 96.8321 17.4878V3.40774H91.3401L91.3386 3.40625Z" fill="white"/>
<path d="M110.55 3.40625H100.356V28.3568H105.848V20.872H110.017C115.613 20.872 120.102 17.8804 120.102 12.1048V12.0316C120.102 6.93672 116.503 3.40625 110.551 3.40625H110.55ZM114.54 12.2093C114.54 14.3484 112.94 15.9905 110.193 15.9905H105.846V8.35934H110.083C112.829 8.35934 114.539 9.67748 114.539 12.1361V12.2093H114.54Z" fill="white"/>
<path d="M122.1 3.40625V8.29217H140.919V3.40625H122.1ZM127.55 23.4754V18.2342H139.313V13.3483H122.1V28.3553H141.097V23.4754H127.55Z" fill="white"/>
<path d="M159.384 19.4488C162.553 18.2725 164.729 15.7407 164.729 11.7131V11.64C164.729 6.50926 161.199 3.40723 155.32 3.40723H143.912V28.3578H149.404V20.3758H153.714L159.06 28.3578H165.477L159.384 19.4503V19.4488ZM159.169 11.9953C159.169 14.0986 157.636 15.5257 154.963 15.5257H149.403V8.36031H154.853C157.525 8.36031 159.169 9.57396 159.169 11.9281V11.9968V11.9953Z" fill="white"/>
<path d="M165.832 3.40625V8.4698H173.422V28.3568H178.914V8.4698H186.503V3.40625H165.832Z" fill="white"/>
<path d="M194.099 23.4769V18.2357H205.858V13.3498H188.644V28.3568H207.642V23.4769H194.099ZM207.462 8.29217V3.40625H188.643V8.29217H207.462Z" fill="white"/>
<path d="M228.884 20.798C226.928 22.5819 225.18 23.7224 222.331 23.7224C218.052 23.7224 215.092 20.1606 215.092 15.8822V15.8091C215.092 11.5352 218.121 8.04208 222.331 8.04208C224.825 8.04208 226.782 9.10944 228.706 10.856L232.201 6.82843C229.884 4.54744 227.07 2.97852 222.362 2.97852C214.699 2.97852 209.354 8.78997 209.354 15.8822V15.9554C209.354 23.1163 214.81 28.786 222.147 28.786C226.96 28.786 229.815 27.0752 232.379 24.33L228.884 20.7995V20.798Z" fill="white"/>
<path d="M250.308 3.40601V13.2809H240.181V3.40601H234.693V28.3566H240.181V18.3399H250.308V28.3566H255.796V3.40601H250.308Z" fill="white"/>
<path d="M104.596 31.9648V40.2036H106.411V31.9648H104.596Z" fill="white"/>
<path d="M112.594 31.9646V33.6336H115.098V40.2034H116.914V33.6336H119.419V31.9646H112.592H112.594Z" fill="white"/>
<path d="M139.845 37.7095C139.202 38.3007 138.621 38.6769 137.679 38.6769C136.267 38.6769 135.289 37.5005 135.289 36.0883V36.0615C135.289 34.6493 136.294 33.4939 137.679 33.4939C138.506 33.4939 139.154 33.8492 139.787 34.4254L140.942 33.0968C140.174 32.3429 139.248 31.8264 137.694 31.8264C135.162 31.8264 133.395 33.7461 133.395 36.0898V36.1107C133.395 38.4753 135.194 40.3473 137.621 40.3473C139.211 40.3473 140.153 39.783 140.999 38.8769L139.844 37.711L139.845 37.7095Z" fill="white"/>
<path d="M150.948 31.8259C148.405 31.8259 146.559 33.7457 146.559 36.0893V36.1102C146.559 38.4539 148.385 40.3468 150.927 40.3468C153.469 40.3468 155.316 38.4271 155.316 36.0893V36.0625C155.316 33.7188 153.49 31.8259 150.948 31.8259ZM153.421 36.1102C153.421 37.5224 152.406 38.6779 150.948 38.6779C149.489 38.6779 148.453 37.5015 148.453 36.0893V36.0625C148.453 34.6503 149.468 33.4949 150.927 33.4949C152.385 33.4949 153.421 34.6772 153.421 36.0893V36.1102Z" fill="white"/>
<path d="M167.179 31.9646V37.0386L163.318 31.9646H161.645V40.2034H163.433V34.9681L167.423 40.2034H168.967V31.9646H167.179Z" fill="white"/>
<path d="M178.995 35.2714C177.572 34.9102 177.217 34.7325 177.217 34.1891V34.1682C177.217 33.7652 177.583 33.4457 178.278 33.4457C178.974 33.4457 179.69 33.7547 180.417 34.2623L181.359 32.8964C180.528 32.2216 179.502 31.8455 178.299 31.8455C176.615 31.8455 175.417 32.8337 175.417 34.3295V34.3563C175.417 35.9939 176.488 36.4492 178.147 36.8717C179.523 37.227 179.805 37.4628 179.805 37.9226V37.9435C179.805 38.4242 179.361 38.7228 178.619 38.7228C177.677 38.7228 176.897 38.3361 176.16 37.7181L175.088 39.0049C176.076 39.8886 177.338 40.323 178.583 40.323C180.361 40.323 181.612 39.402 181.612 37.7659V37.745C181.612 36.3059 180.67 35.7103 178.996 35.2714H178.995Z" fill="white"/>
<path d="M193.132 31.9646V36.6819C193.132 37.9896 192.462 38.6583 191.359 38.6583C190.256 38.6583 189.581 37.9672 189.581 36.6237V31.9631H187.766V36.6699C187.766 39.0972 189.12 40.3318 191.334 40.3318C193.547 40.3318 194.948 39.1077 194.948 36.6132V31.9631H193.132V31.9646Z" fill="white"/>
<path d="M203.327 38.5553V31.9646H201.512V40.2034H207.432V38.5553H203.326H203.327Z" fill="white"/>
<path d="M211.74 31.9646V33.6336H214.245V40.2034H216.061V33.6336H218.572V31.9646H211.74Z" fill="white"/>
<path d="M224.75 31.9646V40.2034H226.565V31.9646H224.75Z" fill="white"/>
<path d="M238.866 31.9646V37.0386L235.006 31.9646H233.332V40.2034H235.121V34.9681L239.111 40.2034H240.654V31.9646H238.866Z" fill="white"/>
<path d="M251.254 35.4594V37.0284H253.079V38.2047C252.619 38.5346 252.033 38.6958 251.374 38.6958C249.915 38.6958 248.88 37.5926 248.88 36.0864V36.0596C248.88 34.6578 249.926 33.492 251.245 33.492C252.197 33.492 252.761 33.801 253.4 34.3294L254.541 32.953C253.682 32.2201 252.788 31.823 251.303 31.823C248.808 31.823 246.983 33.7427 246.983 36.0864V36.1073C246.983 38.5451 248.75 40.3439 251.313 40.3439C252.825 40.3439 253.985 39.7587 254.833 39.0362V35.458H251.255L251.254 35.4594Z" fill="white"/>
<path d="M101.801 35.2695H53.0255V38.4716H101.801V35.2695Z" fill="white"/>
</svg>
